<?xml version="1.0" standalone="no"?>
<!DOCTYPE svg PUBLIC "-//W3C//DTD SVG 1.1//EN" "http://www.w3.org/Graphics/SVG/1.1/DTD/svg11.dtd" >
<svg xmlns="http://www.w3.org/2000/svg">
<metadata></metadata>
<defs>
<font id="freightsans_prosemibold" horiz-adv-x="1114" >
<font-face units-per-em="2048" ascent="1638" descent="-410" />
<missing-glyph horiz-adv-x="466" />
<glyph unicode="&#xfb01;" horiz-adv-x="1175" d="M8 750l8 153l154 45l2 101q4 197 90.5 286.5t251.5 89.5q93 0 205 -41q0 -2 -11.5 -54.5t-23.5 -103.5t-12 -50q-81 34 -140 34q-66 0 -95 -40t-29 -128v-104h274l-6 -199h-262v-739h-242v737zM784 1247q0 67 38.5 106.5t109.5 39.5t110 -39.5t39 -106.5 q0 -66 -39 -104.5t-110 -38.5t-109.5 38.5t-38.5 104.5zM811 0v938l242 35v-973h-242z" />
<glyph unicode="&#xfb02;" horiz-adv-x="1202" d="M8 750l8 153l154 45l2 101q4 197 91 286.5t251 89.5q113 0 223 -47q0 -1 -12.5 -53t-25.5 -103.5t-13 -50.5q-88 39 -154 39t-95 -40t-29 -128v-104h280l-6 -199h-268v-739h-242v737zM831 0v1368l242 33v-1401h-242z" />
<glyph unicode="&#xfb03;" horiz-adv-x="1863" d="M8 750l8 153l154 45l2 80q4 197 91 287t251 90q113 0 223 -47q0 -1 -12.5 -53t-25.5 -103.5t-13 -50.5q-88 39 -154 39t-95 -40t-29 -128v-84h452l2 111q4 197 90 286.5t250 89.5q93 0 205 -41q0 -2 -11.5 -54.5t-23.5 -103.5t-12 -50q-81 34 -139 34q-66 0 -95.5 -40 t-29.5 -128v-104h274l-6 -199h-260v-739h-242v739h-448v-739h-242v737zM1473 1247q0 67 38.5 106.5t108.5 39.5q71 0 110 -39.5t39 -106.5q0 -66 -39 -104.5t-110 -38.5q-70 0 -108.5 39t-38.5 104zM1499 0v938l242 35v-973h-242z" />
<glyph unicode="&#xfb04;" horiz-adv-x="1890" d="M8 750l8 153l154 45l2 80q4 197 91 287t251 90q113 0 223 -47q0 -1 -12.5 -53t-25.5 -103.5t-13 -50.5q-88 39 -154 39t-95 -40t-29 -128v-84h452l2 111q4 197 90 286.5t250 89.5q113 0 223 -47q0 -1 -12.5 -53t-24.5 -103.5t-12 -50.5q-92 39 -155 39q-66 0 -95.5 -40 t-29.5 -128v-104h282l-6 -199h-268v-739h-242v739h-448v-739h-242v737zM1520 0v1368l241 33v-1401h-241z" />
<glyph horiz-adv-x="2048" />
<glyph horiz-adv-x="2048" />
<glyph unicode="&#xd;" horiz-adv-x="2048" />
<glyph unicode=" "  horiz-adv-x="466" />
<glyph unicode="&#x09;" horiz-adv-x="466" />
<glyph unicode="&#xa0;" horiz-adv-x="466" />
<glyph unicode="!" horiz-adv-x="593" d="M133 123q0 67 46 108t120 41q71 0 115.5 -41t44.5 -108q0 -68 -45 -111t-115 -43q-73 0 -119.5 43t-46.5 111zM154 1335h288l-59 -915h-168z" />
<glyph unicode="&#x22;" horiz-adv-x="757" d="M-2 815l235 506l216 -74l-314 -432h-137zM367 815l235 506l213 -74l-311 -432h-137z" />
<glyph unicode="#" horiz-adv-x="1210" d="M35 285v174h203l75 274h-237v174h284l109 408h178l-110 -408h309l110 408h179l-111 -408h158v-174h-205l-74 -274h238v-174h-283l-117 -437h-178l117 437h-309l-117 -437h-178l117 437h-158zM414 453h309l80 286h-311z" />
<glyph unicode="$" horiz-adv-x="1093" d="M59 88l60 215q145 -86 282 -110l52 360q-62 19 -108 36.5t-99 49.5t-87 69.5t-56.5 95.5t-22.5 128q0 172 123.5 275.5t335.5 103.5h41l26 184h121l-29 -197q150 -25 283 -100l-61 -211q-118 68 -252 96q0 1 -12.5 -81.5t-25.5 -165.5l-12 -82q65 -18 115.5 -37 t104.5 -51t89 -71t58 -97t23 -129q0 -177 -132.5 -288.5t-355.5 -111.5h-33l-32 -221h-119q2 15 5.5 39t11 75.5t12.5 85.5t4 34q-182 25 -310 106zM322 946q0 -61 43.5 -98t138.5 -68l47 324h-4q-115 0 -170 -42.5t-55 -115.5zM516 176h6q113 0 179.5 47t66.5 125 q0 68 -46.5 107t-154.5 71z" />
<glyph unicode="%" horiz-adv-x="1609" d="M33 979q0 154 95 252t255 98q161 0 255.5 -98t94.5 -252q0 -151 -95.5 -248.5t-256.5 -97.5q-159 0 -253.5 97.5t-94.5 248.5zM193 979q0 -93 51.5 -152t138.5 -59q86 0 137 59t51 152q0 96 -50.5 155.5t-137.5 59.5q-88 0 -139 -59.5t-51 -155.5zM195 -31l1040 1340h182 l-1040 -1340h-182zM879 299q0 151 94.5 248.5t255.5 97.5q159 0 253.5 -97.5t94.5 -248.5q0 -154 -95 -252t-255 -98q-161 0 -254.5 98t-93.5 252zM1038 299q0 -97 51.5 -156t139.5 -59q85 0 135.5 59.5t50.5 155.5q0 93 -51 152t-137 59t-137.5 -60t-51.5 -151z" />
<glyph unicode="&#x26;" horiz-adv-x="1310" d="M45 326q0 125 86 216.5t213 125.5q-201 111 -201 297q0 64 27 125t76.5 110t127.5 79t171 30q171 0 275 -89.5t104 -222.5q0 -100 -69.5 -176t-176.5 -116q93 -46 221 -181l160 262h264l-303 -391l309 -379l-252 -43l-192 258q-197 -262 -441 -262q-180 0 -289.5 101 t-109.5 256zM276 362q0 -88 58 -144t153 -56q161 0 299 192q-171 193 -321 246q-87 -43 -138 -104.5t-51 -133.5zM367 979q0 -73 47 -123t141 -90q150 77 150 205q0 72 -47 117t-123 45q-75 0 -121.5 -45.5t-46.5 -108.5z" />
<glyph unicode="'" horiz-adv-x="389" d="M-2 815l235 506l216 -74l-314 -432h-137z" />
<glyph unicode="(" horiz-adv-x="806" d="M125 465q0 123 25 240.5t69 215t101 183.5t124 154.5t134.5 119.5t136.5 86l119 -159q-72 -42 -139.5 -100t-131 -138t-111 -170.5t-76 -202.5t-28.5 -229q0 -116 28.5 -228t76 -202.5t111 -170.5t131 -138.5t139.5 -100.5l-117 -160q-84 43 -165 107.5t-159 158 t-137 202t-95 247t-36 285.5z" />
<glyph unicode=")" horiz-adv-x="806" d="M-27 -375q72 42 140 100.5t131.5 138.5t110.5 170.5t75.5 202.5t28.5 228q0 117 -28.5 229t-75.5 202.5t-110.5 170.5t-131.5 138t-140 100l121 159q82 -42 162.5 -106.5t158.5 -158t136.5 -202t94.5 -247t36 -285.5t-36 -285.5t-95 -247t-137 -202t-158.5 -158 t-163.5 -107.5z" />
<glyph unicode="*" horiz-adv-x="755" d="M20 815l297 121v14l-292 123l129 178l204 -247l13 4l30 317l207 -68l-174 -272l8 -10l306 74v-218l-306 76l-8 -10l168 -274l-207 -64l-24 320l-13 2l-204 -242z" />
<glyph unicode="+" horiz-adv-x="1034" d="M76 389l6 193h340v346h196v-346h336l7 -193h-343v-348h-196v348h-346z" />
<glyph unicode="," horiz-adv-x="509" d="M25 -238q206 144 206 238q0 40 -35.5 72t-129.5 73q8 67 57 110.5t123 43.5q86 0 147.5 -65.5t61.5 -159.5q0 -64 -26.5 -124t-75 -111t-101.5 -92t-121 -81z" />
<glyph unicode="-" horiz-adv-x="698" d="M61 393v207h578v-207h-578z" />
<glyph unicode="." horiz-adv-x="509" d="M94 129q0 68 46 113t118 45q70 0 115 -45t45 -113t-45 -114t-115 -46q-71 0 -117.5 46t-46.5 114z" />
<glyph unicode="/" horiz-adv-x="516" d="M-104 -408l497 1846h191l-498 -1846h-190z" />
<glyph unicode="0" horiz-adv-x="1177" d="M84 485q0 232 139 375.5t365 143.5q227 0 367.5 -142.5t140.5 -374.5t-140.5 -375t-369.5 -143q-227 0 -364.5 142t-137.5 374zM319 485q0 -142 74.5 -229.5t194.5 -87.5q121 0 195.5 87t74.5 230q0 145 -74 232.5t-196 87.5q-120 0 -194.5 -88t-74.5 -232z" />
<glyph unicode="1" horiz-adv-x="747" d="M78 879l483 127v-1006h-239v737l-238 -65z" />
<glyph unicode="2" horiz-adv-x="978" d="M78 870q82 61 187 97.5t218 36.5q176 0 280.5 -85.5t104.5 -224.5q0 -58 -21.5 -111t-55 -96.5t-94 -93.5t-118.5 -89.5t-149 -96.5h483l2 -207h-825v182q38 26 97 66.5t92 62.5t80.5 55.5t74 54.5t60 49.5t51.5 49t35.5 45t24.5 46.5t7 44q0 63 -46.5 101.5t-129.5 38.5 q-132 0 -293 -113z" />
<glyph unicode="3" horiz-adv-x="940" d="M29 -297l34 207q144 -92 328 -92q119 -2 189.5 52t70.5 153q0 89 -66.5 136t-189.5 50q-87 3 -176 -12v186q82 17 143 36t118 48.5t87.5 71t30.5 94.5q0 78 -54.5 121t-154.5 43q-137 0 -293 -115l-65 186q181 136 405 136q190 0 306 -91t116 -239q0 -109 -73 -194.5 t-185 -127.5q145 -24 223 -114t78 -209q0 -126 -68 -221t-180 -143t-250 -48q-215 0 -374 86z" />
<glyph unicode="4" horiz-adv-x="1122" d="M45 160l608 835h246v-778h195l6 -203h-201v-381h-229v381h-598zM315 215h363v510z" />
<glyph unicode="5" horiz-adv-x="942" d="M41 -301l31 215q71 -36 163.5 -63t172.5 -27q115 0 185.5 62.5t70.5 168.5q0 95 -72 157t-205 62q-144 0 -254 -36l-45 45l86 692h694l6 -211h-503l-41 -309q11 1 31.5 3t42.5 3.5t47 1.5q210 0 330 -108.5t120 -282.5q0 -201 -137 -328t-352 -127q-96 0 -197.5 22.5 t-173.5 59.5z" />
<glyph unicode="6" horiz-adv-x="1112" d="M82 530q0 141 50 271.5t143.5 239t238 187t322.5 111.5l63 -209q-222 -46 -372.5 -155t-196.5 -273l6 -4q130 127 323 127q164 0 272.5 -109.5t108.5 -291.5q0 -197 -128.5 -326t-346.5 -129q-150 0 -261 75t-166.5 201t-55.5 285zM336 453q0 -119 64.5 -203t172.5 -84 q101 0 161.5 66t60.5 174q0 102 -60 164.5t-157 62.5q-66 0 -130 -26.5t-104 -61.5q-8 -36 -8 -92z" />
<glyph unicode="7" horiz-adv-x="978" d="M37 758l6 217h895v-178l-563 -1164h-240l553 1125h-651z" />
<glyph unicode="8" horiz-adv-x="1067" d="M78 319q0 111 73.5 194.5t178.5 109.5q-234 109 -234 299q0 166 118.5 269t332.5 103q200 0 311 -97t111 -253q0 -102 -64 -181.5t-160 -111.5q113 -52 178.5 -124.5t65.5 -182.5q0 -163 -119.5 -269t-339.5 -106q-210 0 -331 96.5t-121 253.5zM309 344q0 -85 65 -137.5 t169 -52.5t160.5 45t56.5 127q0 34 -15.5 63.5t-38.5 51.5t-62.5 44t-75.5 37t-89 35q-80 -32 -125 -89t-45 -124zM330 936q0 -73 67 -122t197 -97q68 33 107.5 86.5t39.5 116.5q0 87 -57 138.5t-145 51.5q-97 0 -153 -49.5t-56 -124.5z" />
<glyph unicode="9" horiz-adv-x="1112" d="M72 545q0 130 56 233.5t165 164.5t254 61q150 0 261 -75t166.5 -201t55.5 -286q0 -141 -50 -271t-143 -238t-237.5 -186.5t-323.5 -111.5l-63 207q223 47 371.5 155.5t191.5 272.5l-6 4q-124 -124 -313 -124q-166 0 -275.5 107.5t-109.5 287.5zM317 567 q0 -102 60.5 -164.5t157.5 -62.5q67 0 130 27t103 63q8 33 8 90q0 119 -64.5 203t-172.5 84q-101 0 -161.5 -66t-60.5 -174z" />
<glyph unicode=":" horiz-adv-x="509" d="M94 129q0 68 46 113t118 45q70 0 115 -45t45 -113t-45 -114t-115 -46q-71 0 -117.5 46t-46.5 114zM94 733q0 68 46 113t118 45q70 0 115 -45t45 -113t-45 -114t-115 -46q-71 0 -117.5 46t-46.5 114z" />
<glyph unicode=";" horiz-adv-x="509" d="M25 -238q206 144 206 238q0 40 -35.5 72t-129.5 73q8 67 57 110.5t123 43.5q86 0 147.5 -65.5t61.5 -159.5q0 -64 -26.5 -124t-75 -111t-101.5 -92t-121 -81zM94 733q0 68 46 113t118 45q70 0 115 -45t45 -113t-45 -114t-115 -46q-71 0 -117.5 46t-46.5 114z" />
<glyph unicode="&#x3c;" horiz-adv-x="999" d="M80 401v162l821 381v-207l-555 -245v-21l557 -244v-207z" />
<glyph unicode="=" horiz-adv-x="993" d="M78 180l10 191h821l11 -191h-842zM78 780h842l-11 -190h-821z" />
<glyph unicode="&#x3e;" horiz-adv-x="999" d="M80 20v207l555 244v21l-555 245v207l821 -381v-162z" />
<glyph unicode="?" horiz-adv-x="792" d="M96 1071l6 211q91 27 191 27q186 0 306 -103.5t120 -255.5q0 -62 -18 -109.5t-52 -79.5t-70.5 -52t-86.5 -37q-30 -11 -40 -14.5t-33.5 -13t-32 -15.5t-21.5 -16t-18.5 -20.5t-6.5 -23.5q0 -9 3.5 -19.5t12 -22.5t16 -21.5t20.5 -22.5l20.5 -20.5t22 -21t18.5 -17.5 q-132 -29 -140 -29q-72 35 -119 98.5t-47 133.5q0 84 53.5 131.5t151.5 79.5q35 11 54.5 18t42.5 18.5t35 22t20 26.5t8 35q0 62 -63 101t-175 39q-77 0 -178 -27zM174 123q0 67 46.5 108t117.5 41q72 0 117 -41t45 -108q0 -68 -45 -111t-117 -43q-71 0 -117.5 43.5 t-46.5 110.5z" />
<glyph unicode="@" horiz-adv-x="1726" d="M84 496q0 167 63.5 319t171 263t259 177t319.5 66q153 0 292 -49t244 -136.5t167.5 -219.5t62.5 -287q0 -129 -35.5 -235t-95 -173t-135 -103t-158.5 -36q-94 0 -159.5 42t-94.5 120q-105 -123 -246 -123q-126 0 -208 94t-82 242q0 198 125 333.5t309 135.5q87 0 182 -45 l207 45l-101 -510q-41 -209 121 -209q114 0 196.5 113.5t82.5 308.5q0 135 -56.5 251t-150.5 193.5t-215.5 121.5t-251.5 44q-147 0 -281 -60.5t-230 -161t-153 -236.5t-57 -283q0 -188 83.5 -344.5t235.5 -248t341 -91.5q122 0 256 41l24 -78q-146 -47 -285 -47 q-213 0 -384.5 102t-267 277t-95.5 387zM647 475q0 -90 48 -145.5t120 -55.5q73 0 148 64l75 371q-69 65 -153 65q-103 0 -170.5 -90.5t-67.5 -208.5z" />
<glyph unicode="A" horiz-adv-x="1247" d="M8 0l467 1280h303l461 -1280h-252l-106 303h-516l-105 -303h-252zM430 510h387l-192 555z" />
<glyph unicode="B" horiz-adv-x="1214" d="M147 0v1280h490q465 0 465 -338q0 -201 -230 -278q127 -28 199 -106t72 -191q0 -367 -498 -367h-498zM393 201h248q250 0 250 176q0 172 -268 172h-230v-348zM393 731h215q119 0 181.5 47t62.5 131q0 82 -57.5 126t-165.5 44h-236v-348z" />
<glyph unicode="C" horiz-adv-x="1243" d="M86 637q0 306 183.5 490t484.5 184q110 0 219 -27t194 -74l-77 -217q-155 103 -336 103q-189 0 -302.5 -121.5t-113.5 -329.5q0 -212 113.5 -336.5t306.5 -124.5q186 0 350 115l47 -229q-77 -46 -187.5 -73.5t-219.5 -27.5q-299 0 -480.5 178.5t-181.5 489.5z" />
<glyph unicode="D" horiz-adv-x="1355" d="M147 0v1280h435q324 0 507 -171t183 -460q0 -300 -185 -474.5t-522 -174.5h-418zM397 211h183q207 0 324.5 108.5t117.5 317.5q0 215 -116.5 323.5t-338.5 108.5h-170v-858z" />
<glyph unicode="E" d="M147 0v1280h873v-211h-627v-321h514v-211h-514v-326h627v-211h-873z" />
<glyph unicode="F" horiz-adv-x="1060" d="M147 0v1280h852v-217h-604v-338h492v-215h-492v-510h-248z" />
<glyph unicode="G" horiz-adv-x="1345" d="M86 637q0 308 184 491t484 183q120 0 243.5 -30t208.5 -81l-80 -217q-182 113 -368 113q-191 0 -305.5 -122.5t-114.5 -328.5q0 -216 112 -340.5t308 -124.5q130 0 241 51v246h-335v211h567v-598q-101 -58 -228.5 -89.5t-250.5 -31.5q-299 0 -482.5 180t-183.5 488z" />
<glyph unicode="H" horiz-adv-x="1402" d="M147 0v1280h250v-526h609v526h247v-1280h-247v537h-609v-537h-250z" />
<glyph unicode="I" horiz-adv-x="550" d="M152 0v1280h247v-1280h-247z" />
<glyph unicode="J" horiz-adv-x="911" d="M25 53l45 215q135 -84 252 -84q104 0 151 60.5t47 191.5v844h248v-860q0 -214 -104.5 -332.5t-317.5 -118.5q-89 0 -175 23.5t-146 60.5z" />
<glyph unicode="K" horiz-adv-x="1202" d="M147 0v1280h250v-588h2l484 588h297l-549 -629l557 -651h-305l-484 586h-2v-586h-250z" />
<glyph unicode="L" horiz-adv-x="1038" d="M147 0v1280h250v-1061h578v-219h-828z" />
<glyph unicode="M" horiz-adv-x="1660" d="M115 0l43 1280h346l330 -1008l329 1008h342l41 -1280h-241l-11 1026l-333 -1008h-263l-336 1008l-12 -1026h-235z" />
<glyph unicode="N" horiz-adv-x="1411" d="M147 0v1280h273l606 -932v932h238v-1292h-267l-612 942v-930h-238z" />
<glyph unicode="O" horiz-adv-x="1486" d="M86 637q0 194 85.5 348.5t235.5 240t338 85.5q189 0 337 -78t233.5 -230.5t85.5 -357.5q0 -195 -85 -349.5t-235.5 -240.5t-337.5 -86q-190 0 -338 78.5t-233.5 231t-85.5 358.5zM338 645q0 -211 111.5 -339t298.5 -128q182 0 292.5 127t110.5 332q0 211 -112.5 338 t-299.5 127q-182 0 -291.5 -126t-109.5 -331z" />
<glyph unicode="P" horiz-adv-x="1159" d="M147 0v1280h414q258 0 393.5 -117t135.5 -311q0 -219 -143 -335t-404 -118l-146 -2v-397h-250zM393 604l160 4q142 3 214.5 63t72.5 173q0 227 -295 227h-152v-467z" />
<glyph unicode="Q" horiz-adv-x="1486" d="M86 637q0 194 85.5 348.5t235.5 240t338 85.5q189 0 337 -78t233.5 -230.5t85.5 -357.5q0 -195 -89.5 -349t-244.5 -237l379 -176l-103 -209l-559 297q-6 0 -20.5 -1t-20.5 -1q-190 0 -338 78.5t-233.5 231t-85.5 358.5zM338 645q0 -212 111.5 -341.5t298.5 -129.5 q182 0 292.5 127.5t110.5 335.5q0 211 -112.5 338t-299.5 127q-182 0 -291.5 -126t-109.5 -331z" />
<glyph unicode="R" horiz-adv-x="1189" d="M147 0v1280h1h1h1h1h1h1h1h1h1h1h1h1h1h1h1h1h1h1h1h1h1h1h1h1h1h1h1h1h1h1h1h1h1h1h1h1h1h1h1h1h1h1h1h1h1h1h1h1h1h1h1h1h1h1h1h1h1h1h1h1h1h1h1h1h1h1h1h1h1h1h1h1h1h1h1h1h1h1h2h1h1h1h1h1h1h1h1h1h1h1h2h1h1h1h1h1h1h1h2h1h1h1h1h1h2h1h1h1h1h1h2h1h1h1h2h1h1h1h1h2 h1h1h1h2h1h1h2h1h1h1h2h1h1h2h1h1h1h2h1h1h2h1h1h2h1h1h2h1h2h1h1h2h1h1h2h1h2h1h1h2h1h2h1h1h2h1h2h1h1h2h1h2h1h2h1h2h1h2h1h1h2h1h2h1h2h1h2h1h2h1h2h1h2h1h2h2h1h2h1h2h1h2h1h2h1h2h2h1h2h1h2h1h2h2h1h2h1h2h2h1h2h1h2h2h1h2h2h1h2h1h2h2h1h2h2h1h2h2h1h2h2h1h2h2h1h2h2 h2h1h2h2h1h2h2h2h1h2h2h1h2h2h2h1h2h2h2h1h2h2h2h2h1h2h2h2h1h2h2h2h2h2h1h2h2h2h2h1h2h2h2h2h2h2h1h2h2h2h2h2h2h2h1h2h2h2h2h2h2h2h2h2h2h2h1h2h2h9q239 0 367.5 -104.5t128.5 -284.5q0 -135 -72.5 -229.5t-204.5 -139.5l336 -522h-285l-284 469l-185 -12v-457h-250z M395 653l187 4q119 6 186.5 61t67.5 156q0 98 -72 147.5t-207 49.5h-162v-418z" />
<glyph unicode="S" horiz-adv-x="1097" d="M68 88l57 215q203 -123 407 -123q105 0 171.5 47t66.5 123q0 74 -65 114.5t-220 82.5q-65 18 -113 35.5t-105 49.5t-93.5 70.5t-61 97.5t-24.5 132q0 172 123.5 275.5t335.5 103.5q241 0 440 -113l-61 -211q-85 51 -186 81t-191 30q-108 0 -161.5 -41.5t-53.5 -110.5 q0 -31 14 -56t36.5 -43t62.5 -35.5t79 -29.5t99 -28q65 -18 115.5 -37t104.5 -51t89.5 -71t58.5 -97t23 -129q0 -177 -132.5 -288.5t-355.5 -111.5q-127 0 -248 31.5t-212 87.5z" />
<glyph unicode="T" horiz-adv-x="1189" d="M43 1061v219h1104v-219h-428v-1061h-248v1061h-428z" />
<glyph unicode="U" horiz-adv-x="1349" d="M141 485v795h250v-762q0 -330 291 -330q279 0 279 320v1v1v1v1v1v1v1v1v1v1v1v1v1v1v1v1v1v1v1v1v1v1v1v1v1v1v1v1v1v1v1v1v1v1v1v1v1v1v1v1v1v1v1v1v1v1v1v1v1v1v1v1v1v1v1v1v1v1v1v1v1v1v1v1v1v1v1v1v1v1v1v1v1v1v1v1v1v1v1v1v1v1v1v1v1v1v1v1v1v1v1v1v1v1v1v1v1v1v1v1 v1v1v1v1v1v1v1v1v1v1v1v1v1v1v1v1v1v1v1v1v1v1v1v1v1v1v1v1v1v1v1v1v1v1v1v1v1v1v1v1v1v1v1v1v1v2v1v1v1v1v1v1v1v1v1v1v2v1v1v1v1v1v1v1v1v2v1v1v1v1v1v1v2v1v1v1v1v1v1v2v1v1v1v1v1v2v1v1v1v1v2v1v1v1v1v2v1v1v1v1v2v1v1v1v2v1v1v1v2v1v1v1v1v2v1v1v2v1v1v1v2v1v1v1v2v1v1 v1v2v1v1v2v1v1v2v1v1v1v2v1v1v2v1v1v2v1v1v2v1v1v2v1v1v2v1v1v2v1v1v2v1v1v2v1v2v1v1v2v1v1v2v1v2v1v1v2v1v1v2v1v2v1v1v2v1v2v1v2v1v1v2v1v2v1v1v2v1v2v1v2v1v2v1v1v2v1v2v1v2v1v2v1v2v1v1v2v1v2v1v2v1v2v1v2v1v2v1v2v1v2v1v2v1v2v1v2v1v2v1v2v1v2v1v2v1v2v2v1v2v1v2v1v2v1 v2v1v2v1v2v2v1v2v1v2v1v2v2v1v2v1v2v1v2v2v1v2v1v2v1v2v2v1v2v1v2v2v1v2v1v2v2v1v2v2v1v2v1v2v2v1v2v2v1v2v1v2v2v1v2v2v1v2v2v1v2v2v1v2v2v1v2v2v1v2v2v1v2v2v1v2v2v1v2v2v1v2v2v1v2v2v2v1v2v2v1v2v2v2v1v2v2v1v2v2v2v1v2v2v2v1v2v2v1v2v2v2v1v2v2v2v1v2v2v2v1v2v2v2v2v1v2 v2v2v1v2v2v2v2v1v2v2v2v2v1v2v2v2v2v1v2v2v2v2v1v2v2v2v2v2v1v2v2v2v2v2v1v2v2v2v2v2v1v2v2v2v2v2v2v1v2v2v2v2v2v2v2v1v2v2v2v2v2v2v2v2v1v2v2v2v2v2v2v8h247v-772q0 -260 -139 -399.5t-395 -139.5q-249 0 -391 134t-142 382z" />
<glyph unicode="V" horiz-adv-x="1226" d="M4 1280h258l350 -1028l351 1028h258l-459 -1280h-303z" />
<glyph unicode="W" horiz-adv-x="1898" d="M55 1280h267l223 -975l266 975h287l270 -975l221 975h254l-352 -1280h-258l-283 989l-288 -989h-254z" />
<glyph unicode="X" horiz-adv-x="1247" d="M23 0l450 643l-436 637h291l295 -459l305 459h282l-440 -627l455 -653h-293l-314 481l-313 -481h-282z" />
<glyph unicode="Y" horiz-adv-x="1179" d="M20 1280h271l303 -553l297 553h268l-444 -784v-496h-248v498z" />
<glyph unicode="Z" horiz-adv-x="1128" d="M55 0v172l682 891h-669v217h983v-176l-680 -887h678v-217h-994z" />
<glyph unicode="[" horiz-adv-x="798" d="M154 -438v1837h630v-182h-415v-1471h415v-184h-630z" />
<glyph unicode="\" horiz-adv-x="522" d="M-61 1438h190l498 -1846h-191z" />
<glyph unicode="]" horiz-adv-x="800" d="M18 -254h416v1471h-416v182h629v-1837h-629v184z" />
<glyph unicode="^" horiz-adv-x="811" d="M53 1071l240 383h233l240 -383h-170l-184 242h-4l-183 -242h-172z" />
<glyph unicode="_" horiz-adv-x="1028" d="M-20 0h1069v-180h-1069v180z" />
<glyph unicode="`" horiz-adv-x="808" d="M102 1446h273l211 -375h-162z" />
<glyph unicode="a" horiz-adv-x="985" d="M66 236q0 317 559 335v23q0 96 -44 138t-145 42q-138 0 -313 -100l-49 190q76 47 181 79t214 32q215 0 309 -95q89 -90 88 -274v-20v-338q0 -54 14.5 -68.5t69.5 -17.5l-18 -182q-36 -4 -67 -4q-182 0 -232 133h-8q-116 -140 -267 -140q-126 0 -209 77t-83 190zM303 268 q0 -55 38.5 -89t102.5 -34q106 0 181 82v217q-177 -22 -249.5 -61.5t-72.5 -114.5z" />
<glyph unicode="b" horiz-adv-x="1116" d="M129 -31v1399l242 33v-547q125 121 264 121q186 0 300 -137t114 -357q0 -223 -137 -366.5t-341 -143.5q-110 0 -211 33zM371 217q68 -53 178 -53q119 0 186.5 85.5t67.5 221.5q0 139 -63 220t-175 81q-106 0 -194 -78v-1v-1v-1v-1v-1v-1v-1v-1v-1v-1v-1v-1v-1v-1v-1v-1 v-1v-1v-1v-1v-1v-1v-1v-1v-1v-1v-1v-1v-1v-1v-1v-1v-1v-1v-1v-1v-1v-1v-1v-1v-1v-1v-1v-1v-1v-1v-1v-1v-1v-1v-1v-1v-1v-1v-1v-1v-1v-1v-1v-1v-1v-1v-1v-1v-1v-1v-1v-1v-1v-1v-1v-1v-1v-1v-1v-1v-1v-1v-1v-1v-2v-1v-1v-1v-1v-1v-1v-1v-1v-1v-1v-1v-1v-1v-1v-2v-1v-1v-1v-1 v-1v-1v-1v-2v-1v-1v-1v-1v-1v-1v-2v-1v-1v-1v-1v-1v-2v-1v-1v-1v-1v-2v-1v-1v-1v-2v-1v-1v-1v-2v-1v-1v-1v-2v-1v-1v-1v-2v-1v-1v-1v-2v-1v-1v-2v-1v-1v-2v-1v-1v-1v-2v-1v-1v-2v-1v-1v-2v-1v-2v-1v-1v-2v-1v-1v-2v-1v-2v-1v-1v-2v-1v-1v-2v-1v-2v-1v-2v-1v-1v-2v-1v-2v-1 v-2v-1v-1v-2v-1v-2v-1v-2v-1v-2v-1v-2v-1v-1v-2v-1v-2v-1v-2v-1v-2v-1v-2v-1v-2v-1v-2v-2v-1v-2v-1v-2v-1v-2v-1v-2v-1v-2v-2v-1v-2v-1v-2v-1v-2v-1v-2v-2v-1v-2v-1v-2v-2v-1v-2v-1v-2v-2v-1v-2v-2v-1v-2v-1v-2v-2v-1v-2v-2v-1v-2v-2v-1v-2v-2v-1v-2v-2v-1v-2v-2v-1v-2v-2 v-1v-2v-2v-1v-2v-2v-2v-1v-2v-2v-1v-2v-2v-2v-1v-2v-2v-1v-2v-2v-2v-1v-2v-2v-2v-2v-1v-2v-2v-2v-1v-2v-2v-2v-2v-1v-2v-2v-2v-1v-2v-2v-2v-2v-2v-1v-2v-2v-2v-2v-2v-1v-2v-2v-2v-2v-2v-1v-2v-2v-2v-2v-2v-2v-2v-1v-2v-2v-2v-2v-2v-8z" />
<glyph unicode="c" horiz-adv-x="962" d="M74 469q0 229 136.5 367.5t360.5 138.5q191 0 326 -80l-51 -195q-121 76 -256 76q-128 0 -198 -81t-70 -220q0 -143 73 -224t195 -81q145 0 262 74l39 -197q-131 -78 -328 -78q-229 0 -359 133.5t-130 366.5z" />
<glyph unicode="d" horiz-adv-x="1122" d="M74 465q0 223 137 366.5t340 143.5q99 0 201 -31v424l241 33v-1401h-241v92q-127 -123 -267 -123q-186 0 -298.5 137.5t-112.5 358.5zM319 475q0 -138 64.5 -219.5t173.5 -81.5q111 0 195 78v1v1v1v1v1v1v1v1v1v1v1v1v1v1v1v1v1v1v1v1v1v1v1v1v1v1v1v1v1v1v1v1v1v1v1v1v1 v1v1v1v1v1v1v1v1v1v1v1v1v1v1v1v1v1v1v1v1v1v1v1v1v1v1v1v1v1v1v1v1v1v1v1v1v1v1v1v1v1v1v1v1v1v1v1v1v1v1v1v1v1v1v1v1v2v1v1v1v1v1v1v1v1v2v1v1v1v1v1v1v2v1v1v1v1v1v2v1v1v1v1v2v1v1v1v1v2v1v1v1v2v1v1v1v2v1v1v1v2v1v1v2v1v1v1v2v1v1v2v1v1v2v1v1v2v1v1v2v1v1v2v1v1v2v1 v1v2v1v2v1v1v2v1v2v1v1v2v1v2v1v1v2v1v2v1v2v1v2v1v1v2v1v2v1v2v1v2v1v2v1v2v1v2v1v2v1v2v1v2v1v2v1v2v1v2v1v2v1v2v1v2v2v1v2v1v2v1v2v1v2v2v1v2v1v2v2v1v2v1v2v2v1v2v1v2v2v1v2v2v1v2v1v2v2v1v2v2v1v2v2v1v2v2v1v2v2v1v2v2v1v2v2v2v1v2v2v1v2v2v2v1v2v2v1v2v2v2v1v2v2v2v1 v2v2v2v1v2v2v2v2v1v2v2v2v2v1v2v2v2v2v1v2v2v2v2v1v2v2v2v2v2v1v2v2v2v2v2v2v1v2v2v2v2v2v2v1v2v2v2v9q-74 55 -179 55q-118 0 -186 -86t-68 -221z" />
<glyph unicode="e" horiz-adv-x="1021" d="M74 463q0 229 136.5 370.5t350.5 141.5q185 0 287 -103.5t102 -279.5q0 -90 -20 -158l-619 -8v-6q8 -117 83.5 -187.5t199.5 -70.5q155 0 295 86l31 -201q-143 -78 -342 -78q-228 0 -366 134.5t-138 359.5zM317 567l406 2v17q0 98 -44.5 152.5t-135.5 54.5 q-95 0 -155.5 -66t-70.5 -160z" />
<glyph unicode="f" horiz-adv-x="702" d="M8 750l8 153l154 45l2 101q4 197 91 286.5t251 89.5q113 0 223 -47q0 -1 -12.5 -53t-25.5 -103.5t-13 -50.5q-88 39 -154 39t-95 -40t-29 -128v-104h280l-6 -199h-268v-739h-242v737z" />
<glyph unicode="g" horiz-adv-x="1028" d="M6 -248q0 77 55.5 134.5t157.5 74.5q-64 23 -103.5 66t-39.5 98q0 64 48 118.5t126 80.5q-79 40 -125.5 116.5t-46.5 173.5q0 152 113 256.5t303 104.5q129 0 266 -60l254 23l10 -211l-180 31q18 -19 30.5 -64t12.5 -84q0 -147 -111 -245.5t-284 -98.5q-58 0 -130 17 q-28 -10 -50.5 -32.5t-22.5 -49.5q0 -40 41.5 -57t152.5 -17h1h1h1h1h1h1h1h1h1h1h1h1h1h1h1h1h1h1h1h1h2h1h1h1h2h1h1h2h1h2h1h2h1h2h1h2h2h1h2h2h1h2h2h2h1h2h2h2h2h2h2h2h2h2h2h3h2h2h2h3h9q424 0 424 -260q0 -109 -75.5 -196t-201 -134t-274.5 -47q-195 0 -322 69.5 t-127 192.5zM225 -199q0 -66 74.5 -107.5t194.5 -41.5q127 0 209.5 44t82.5 116q0 63 -61 85.5t-201 22.5q-102 0 -180 8q-54 -20 -86.5 -53t-32.5 -74zM311 612q0 -86 49 -137t136 -51q81 0 125.5 53t44.5 144q0 87 -46.5 138.5t-134.5 51.5q-79 0 -126.5 -54.5 t-47.5 -144.5z" />
<glyph unicode="h" horiz-adv-x="1107" d="M129 0v1368l242 33v-576q137 150 319 150q137 0 216 -87t79 -239v-649h-242v575q0 101 -39 144t-118 43q-63 0 -119.5 -25t-95.5 -63v-674h-242z" />
<glyph unicode="i" horiz-adv-x="499" d="M102 1262q0 66 39.5 105.5t108.5 39.5q71 0 110 -39.5t39 -105.5q0 -67 -39 -106.5t-110 -39.5q-70 0 -109 39.5t-39 106.5zM129 0v938l242 35v-973h-242z" />
<glyph unicode="j" horiz-adv-x="495" d="M-37 -338q91 43 128.5 114.5t37.5 219.5v-1v1v1v1v1v1v1v1v1v1v1v1v1v1v1v1v1v1v1v1v1v1v1v1v1v1v1v1v1v1v1v1v1v1v1v1v1v1v1v1v1v1v1v1v1v1v1v1v1v1v1v1v1v1v1v1v1v1v1v1v1v1v1v1v1v1v1v1v1v1v1v1v1v1v1v1v1v1v1v1v1v1v1v1v1v1v1v1v1v1v1v1v1v1v1v1v1v1v1v1v1v1v1v1v1v1 v1v1v1v1v1v1v1v1v1v1v1v1v1v1v1v1v1v1v1v1v1v1v1v1v1v1v1v1v1v1v1v1v1v1v1v1v1v1v1v1v1v1v1v1v1v1v1v1v1v2v1v1v1v1v1v1v1v1v1v1v1v1v1v1v1v1v1v1v1v1v1v2v1v1v1v1v1v1v1v1v1v1v1v2v1v1v1v1v1v1v1v1v2v1v1v1v1v1v1v1v2v1v1v1v1v1v1v2v1v1v1v1v1v2v1v1v1v1v1v2v1v1v1v1v2v1v1 v1v1v1v2v1v1v1v2v1v1v1v1v2v1v1v1v1v2v1v1v1v2v1v1v1v2v1v1v1v2v1v1v1v2v1v1v1v2v1v1v2v1v1v1v2v1v1v1v2v1v1v2v1v1v2v1v1v1v2v1v1v2v1v1v2v1v1v2v1v1v2v1v1v2v1v1v2v1v1v2v1v1v2v1v1v2v1v1v2v1v2v1v1v2v1v1v2v1v2v1v1v2v1v1v2v1v2v1v1v2v1v2v1v1v2v1v2v1v2v1v1v2v1v2v1v1v2 v1v2v1v2v1v2v1v1v2v1v2v1v2v1v2v1v1v2v1v2v1v2v1v2v1v2v1v2v1v1v2v1v2v1v2v1v2v1v2v1v2v1v2v1v2v1v2v1v2v1v2v1v2v1v2v1v2v1v2v2v1v2v1v2v1v2v1v2v1v2v1v2v1v2v2v1v2v1v2v1v2v1v2v2v1v2v1v2v1v2v2v1v2v1v2v1v2v2v1v2v1v2v2v1v2v1v2v2v1v2v1v2v2v1v2v1v2v2v1v2v1v2v2v1v2v2v1 v2v1v2v2v1v2v2v1v2v1v2v2v1v2v2v1v2v2v1v2v2v1v2v2v1v2v2v1v2v2v1v2v2v1v2v2v1v2v2v1v2v2v1v2v2v2v1v2v2v1v2v2v1v2v2v2v1v2v2v1v2v2v2v1v2v2v1v2v2v2v1v2v2v2v1v2v2v2v1v2v2v1v2v2v2v1v2v2v2v2v1v2v2v2v1v2v2v2v1v2v2v2v2v1v2v2v2v1v2v2v2v2v1v2v2v2v2v1v2v2v2v2v1v2v2v2v2 v2v1v2v2v2v2v1v2v2v2v2v2v1v2v2v2v2v2v1v2v2v2v2v2v2v1v2v2v2v2v2v2v2v1v2v2v2v2v2v2v2v1v2v2v2v2v2v2v2v2v1v2v2v2v2v2v2v2v2v1v2v9l242 35v-1v-1v-1v-1v-1v-1v-1v-1v-1v-1v-1v-1v-1v-1v-1v-1v-1v-1v-1v-1v-1v-1v-1v-1v-1v-1v-1v-1v-1v-1v-1v-1v-1v-1v-1v-1v-1v-1v-1v-1v-1 v-1v-1v-1v-1v-1v-1v-1v-1v-1v-1v-1v-1v-1v-1v-1v-1v-1v-1v-1v-1v-1v-1v-1v-1v-1v-1v-1v-1v-1v-1v-1v-1v-1v-1v-1v-1v-1v-1v-1v-1v-1v-1v-1v-1v-1v-1v-1v-1v-1v-1v-1v-1v-1v-1v-1v-1v-1v-1v-1v-1v-1v-1v-1v-1v-1v-1v-1v-1v-1v-1v-1v-1v-1v-1v-1v-1v-1v-1v-1v-1v-1v-1v-1v-1 v-1v-1v-1v-1v-1v-1v-1v-1v-1v-1v-1v-1v-1v-1v-1v-1v-1v-1v-1v-1v-1v-1v-1v-1v-1v-1v-1v-1v-1v-1v-1v-1v-1v-1v-1v-1v-1v-1v-1v-1v-1v-1v-1v-1v-1v-1v-1v-1v-2v-1v-1v-1v-1v-1v-1v-1v-1v-1v-1v-1v-1v-2v-1v-1v-1v-1v-1v-1v-1v-1v-1v-2v-1v-1v-1v-1v-1v-1v-1v-2v-1v-1v-1v-1 v-1v-1v-2v-1v-1v-1v-1v-1v-2v-1v-1v-1v-1v-1v-2v-1v-1v-1v-1v-1v-2v-1v-1v-1v-1v-2v-1v-1v-1v-1v-2v-1v-1v-1v-2v-1v-1v-1v-1v-2v-1v-1v-1v-2v-1v-1v-1v-2v-1v-1v-1v-2v-1v-1v-1v-2v-1v-1v-1v-2v-1v-1v-1v-2v-1v-1v-2v-1v-1v-1v-2v-1v-1v-2v-1v-1v-1v-2v-1v-1v-2v-1v-1v-2 v-1v-1v-2v-1v-1v-2v-1v-1v-2v-1v-1v-2v-1v-1v-2v-1v-1v-2v-1v-1v-2v-1v-1v-2v-1v-1v-2v-1v-2v-1v-1v-2v-1v-1v-2v-1v-2v-1v-1v-2v-1v-2v-1v-1v-2v-1v-2v-1v-1v-2v-1v-2v-1v-1v-2v-1v-2v-1v-1v-2v-1v-2v-1v-2v-1v-1v-2v-1v-2v-1v-2v-1v-2v-1v-1v-2v-1v-2v-1v-2v-1v-2v-1v-2 v-1v-2v-1v-1v-2v-1v-2v-1v-2v-1v-2v-1v-2v-1v-2v-1v-2v-1v-2v-1v-2v-1v-2v-1v-2v-1v-2v-1v-2v-1v-2v-1v-2v-1v-2v-1v-2v-2v-1v-2v-1v-2v-1v-2v-1v-2v-1v-2v-1v-2v-2v-1v-2v-1v-2v-1v-2v-1v-2v-2v-1v-2v-1v-2v-1v-2v-2v-1v-2v-1v-2v-1v-2v-2v-1v-2v-1v-2v-2v-1v-2v-1v-2v-2 v-1v-2v-1v-2v-2v-1v-2v-2v-1v-2v-1v-2v-2v-1v-2v-2v-1v-2v-1v-2v-2v-1v-2v-2v-1v-2v-2v-1v-2v-1v-2v-2v-1v-2v-2v-1v-2v-2v-1v-2v-2v-1v-2v-2v-1v-2v-2v-2v-1v-2v-2v-1v-2v-2v-1v-2v-2v-1v-2v-2v-2v-1v-2v-2v-1v-2v-2v-1v-2v-2v-2v-1v-2v-2v-2v-1v-2v-2v-1v-2v-2v-2v-1v-2 v-2v-2v-1v-2v-2v-2v-1v-2v-2v-2v-1v-2v-2v-2v-1v-2v-2v-2v-2v-1v-2v-2v-2v-1v-2v-2v-2v-2v-1v-2v-2v-2v-2v-1v-2v-2v-2v-2v-1v-2v-2v-2v-2v-1v-2v-2v-2v-2v-2v-1v-2v-2v-2v-2v-2v-1v-2v-2v-2v-2v-2v-2v-1v-2v-2v-2v-2v-2v-2v-1v-2v-2v-2v-2v-2v-2v-2v-1v-2v-2v-2v-2v-2v-2 v-2v-2v-2v-2v-1v-2v-2v-2v-2v-2v-2v-2v-2v-2v-2v-2v-2v-2v-2v-1v-2v-2v-2v-2v-2v-2v-2v-2v-2v-2v-2v-2v-2v-2v-2v-2v-2v-2v-2v-2v-2v-2v-2v-3v-2v-2v-2v-2v-2v-2v-2v-2v-2v-3v-2v-2v-2v-2v-9q0 -207 -59 -320.5t-201 -173.5zM102 1262q0 66 39.5 105.5t108.5 39.5 q71 0 110 -39.5t39 -105.5q0 -67 -39 -106.5t-110 -39.5q-70 0 -109 39.5t-39 106.5z" />
<glyph unicode="k" horiz-adv-x="1011" d="M129 0v1368l242 33v-877h4l338 420h288l-391 -448l394 -496h-289l-340 455h-4v-455h-242z" />
<glyph unicode="l" horiz-adv-x="499" d="M129 0v1368l242 33v-1401h-242z" />
<glyph unicode="m" horiz-adv-x="1677" d="M129 0v940l242 33v-133q135 135 301 135q88 0 155.5 -42t102.5 -120q149 162 336 162q134 0 212 -87.5t78 -240.5v-647h-241v573q0 101 -39 145t-117 44q-100 0 -196 -84v-57v-621h-242v573q0 101 -38 145t-116 44q-114 0 -196 -78v-684h-242z" />
<glyph unicode="n" horiz-adv-x="1107" d="M129 0v940l242 33v-150q65 71 146 111.5t165 40.5q142 0 222.5 -86.5t80.5 -239.5v-649h-242v575q0 102 -39.5 144.5t-123.5 42.5q-59 0 -114.5 -25.5t-94.5 -62.5v-674h-242z" />
<glyph unicode="o" d="M74 471q0 229 138 367.5t351 138.5q212 0 344.5 -137t132.5 -367q0 -227 -139 -365.5t-350 -138.5t-344 135.5t-133 366.5zM311 473q0 -138 66 -222.5t182 -84.5q115 0 178.5 83t63.5 222t-65.5 225t-180.5 86q-116 0 -180 -84.5t-64 -224.5z" />
<glyph unicode="p" horiz-adv-x="1122" d="M129 -451v1391l242 33v-119q125 121 264 121q186 0 300 -137t114 -357q0 -223 -137 -366.5t-341 -143.5q-111 0 -200 27v-449h-242zM371 217q68 -53 178 -53q119 0 186.5 85.5t67.5 221.5q0 139 -63 220t-175 81q-106 0 -194 -78v-1v-1v-1v-1v-1v-1v-1v-1v-1v-1v-1v-1v-1 v-1v-1v-1v-1v-1v-1v-1v-1v-1v-1v-1v-1v-1v-1v-1v-1v-1v-1v-1v-1v-1v-1v-1v-1v-1v-1v-1v-1v-1v-1v-1v-1v-1v-1v-1v-1v-1v-1v-1v-1v-1v-1v-1v-1v-1v-1v-1v-1v-1v-1v-1v-1v-1v-1v-1v-1v-1v-1v-1v-1v-1v-1v-1v-1v-1v-1v-1v-2v-1v-1v-1v-1v-1v-1v-1v-1v-1v-1v-1v-1v-1v-1v-2v-1 v-1v-1v-1v-1v-1v-1v-2v-1v-1v-1v-1v-1v-1v-2v-1v-1v-1v-1v-1v-2v-1v-1v-1v-1v-2v-1v-1v-1v-2v-1v-1v-1v-2v-1v-1v-1v-2v-1v-1v-1v-2v-1v-1v-1v-2v-1v-1v-2v-1v-1v-2v-1v-1v-1v-2v-1v-1v-2v-1v-1v-2v-1v-2v-1v-1v-2v-1v-1v-2v-1v-2v-1v-1v-2v-1v-1v-2v-1v-2v-1v-2v-1v-1v-2 v-1v-2v-1v-2v-1v-1v-2v-1v-2v-1v-2v-1v-2v-1v-2v-1v-1v-2v-1v-2v-1v-2v-1v-2v-1v-2v-1v-2v-1v-2v-2v-1v-2v-1v-2v-1v-2v-1v-2v-1v-2v-2v-1v-2v-1v-2v-1v-2v-1v-2v-2v-1v-2v-1v-2v-2v-1v-2v-1v-2v-2v-1v-2v-2v-1v-2v-1v-2v-2v-1v-2v-2v-1v-2v-2v-1v-2v-2v-1v-2v-2v-1v-2v-2 v-1v-2v-2v-1v-2v-2v-1v-2v-2v-2v-1v-2v-2v-1v-2v-2v-2v-1v-2v-2v-1v-2v-2v-2v-1v-2v-2v-2v-2v-1v-2v-2v-2v-1v-2v-2v-2v-2v-1v-2v-2v-2v-1v-2v-2v-2v-2v-2v-1v-2v-2v-2v-2v-2v-1v-2v-2v-2v-2v-2v-1v-2v-2v-2v-2v-2v-2v-2v-1v-2v-2v-2v-2v-2v-8z" />
<glyph unicode="q" horiz-adv-x="1122" d="M74 465q0 223 137 366.5t340 143.5q120 0 233 -41l209 39v-1424h-241v543q-127 -123 -267 -123q-186 0 -298.5 137.5t-112.5 358.5zM319 475q0 -138 65 -221.5t173 -83.5q106 0 195 82v1v1v1v1v1v1v1v1v1v1v1v1v1v1v1v1v1v1v1v1v1v1v1v1v1v1v1v1v1v1v1v1v1v1v1v1v1v1v1v1 v1v1v1v1v1v1v1v1v1v1v1v1v1v1v1v1v1v1v1v1v1v1v1v1v1v1v1v1v1v1v1v1v1v1v1v1v1v1v1v1v1v1v1v1v1v1v1v1v1v1v1v1v1v2v1v1v1v1v1v1v1v1v2v1v1v1v1v1v1v2v1v1v1v1v1v2v1v1v1v1v2v1v1v1v1v2v1v1v1v2v1v1v1v2v1v1v1v2v1v1v2v1v1v1v2v1v1v2v1v1v2v1v1v2v1v1v2v1v1v2v1v1v2v1v1v2v1 v2v1v1v2v1v2v1v1v2v1v2v1v1v2v1v2v1v2v1v2v1v1v2v1v2v1v2v1v2v1v2v1v2v1v2v1v2v1v2v1v2v1v2v1v2v1v2v1v2v1v2v1v2v2v1v2v1v2v1v2v1v2v2v1v2v1v2v2v1v2v1v2v2v1v2v1v2v2v1v2v2v1v2v1v2v2v1v2v2v1v2v2v1v2v2v1v2v2v1v2v2v1v2v2v2v1v2v2v1v2v2v2v1v2v2v1v2v2v2v1v2v2v2v1v2v2v2 v1v2v2v2v2v1v2v2v2v2v1v2v2v2v2v1v2v2v2v2v1v2v2v2v2v2v1v2v2v2v2v2v2v1v2v2v2v2v2v2v1v2v2v2v9q-77 57 -179 57q-118 0 -186 -87t-68 -222z" />
<glyph unicode="r" horiz-adv-x="800" d="M129 0v938l242 35v-154q92 156 245 156q97 0 168 -43l-53 -217q-67 37 -135 37q-133 0 -225 -168v-584h-242z" />
<glyph unicode="s" horiz-adv-x="882" d="M55 55l54 189q72 -40 157 -64t162 -24q71 0 113.5 27.5t42.5 76.5q0 51 -46.5 77t-144.5 50q-72 17 -126 39t-99.5 55.5t-69.5 83.5t-24 115q0 133 103.5 214t273.5 81q88 0 183 -21t161 -55l-54 -188q-68 35 -150.5 56t-146.5 21q-67 0 -104 -24.5t-37 -69.5 q0 -49 46 -74t145 -49q74 -18 127.5 -39.5t99.5 -55.5t70 -84.5t24 -117.5q0 -134 -107 -220.5t-286 -86.5q-93 0 -195 24.5t-172 63.5z" />
<glyph unicode="t" horiz-adv-x="733" d="M16 750l7 153l147 47l4 209h234l-5 -221h267l-6 -199h-275l-12 -436v-6q0 -123 125 -123q58 0 147 29l33 -197q-107 -37 -219 -37q-163 1 -241 77q-73 71 -72 220v23l14 444z" />
<glyph unicode="u" horiz-adv-x="1099" d="M121 295v649h241v-575q0 -100 40 -142.5t120 -42.5q61 0 115.5 23.5t91.5 58.5v678h242v-938l-242 -33v140q-61 -66 -142 -105t-169 -39q-138 0 -217.5 87t-79.5 239z" />
<glyph unicode="v" horiz-adv-x="978" d="M-2 944h258l238 -690l227 690h260l-365 -946h-258z" />
<glyph unicode="w" horiz-adv-x="1490" d="M25 944h251l164 -663l189 661h241l203 -657l141 659h256l-276 -948h-238l-211 663l-204 -663h-236z" />
<glyph unicode="x" horiz-adv-x="931" d="M-4 0l326 483l-314 461h262l195 -305l188 305h265l-306 -457l324 -487h-262l-207 336l-205 -336h-266z" />
<glyph unicode="y" horiz-adv-x="970" d="M-55 -410l71 199q92 -45 150 -45q54 0 87.5 32.5t70.5 127.5l41 108l-369 932h260l236 -676l225 676h258l-361 -926l-55 -147q-69 -188 -154.5 -262t-220.5 -74q-120 0 -239 55z" />
<glyph unicode="z" horiz-adv-x="888" d="M41 0v166l494 573h-476v205h785v-162l-496 -575h496v-207h-803z" />
<glyph unicode="{" horiz-adv-x="755" d="M25 489l6 107q135 9 192.5 44t57.5 116q0 47 -20 113t-40 141.5t-20 146.5q0 76 35 128.5t106 83.5t161.5 45.5t219.5 19.5v-154q-163 -12 -230 -45t-67 -98q0 -46 38 -167.5t38 -209.5q0 -110 -77.5 -181.5t-209.5 -78.5v-21q133 -9 210 -79.5t77 -180.5 q0 -88 -38 -205.5t-38 -165.5q0 -68 67.5 -102.5t229.5 -44.5v-154q-103 4 -179.5 13.5t-143.5 29t-109 50t-66 76.5t-24 108q0 89 40 217t40 182q0 78 -58 113.5t-192 46.5z" />
<glyph unicode="|" horiz-adv-x="505" d="M150 -408v1846h206v-1846h-206z" />
<glyph unicode="}" horiz-adv-x="755" d="M33 -299q162 10 229.5 44.5t67.5 102.5q0 48 -37 165.5t-37 205.5q0 110 76 180.5t211 79.5v21q-134 7 -210.5 78t-76.5 182q0 88 37 209.5t37 167.5q0 65 -67 98t-230 45v154q129 -5 220.5 -19.5t162.5 -45.5t106 -83.5t35 -128.5q0 -71 -21 -146.5t-42 -141.5t-21 -113 q0 -81 58.5 -116t193.5 -44l6 -107l-6 -106q-134 -11 -193 -46.5t-59 -113.5q0 -54 42 -182t42 -217q0 -62 -24 -108t-66 -76.5t-109.5 -50t-144.5 -29t-180 -13.5v154z" />
<glyph unicode="~" horiz-adv-x="811" d="M35 385q17 155 68 221t145 66q43 0 92 -20.5t85 -45t73.5 -45t60.5 -20.5q57 0 70 116h1h1h1h1h1h1h1h1h1h1h1h1h1h1h1h1h1h1h1h1h1h1h1h1h1h1h1h1h1h2h1h1h1h1h2h1h1h1h2h1h1h2h1h1h2h1h1h2h1h2h1h2h1h1h2h1h2h2h1h2h1h2h1h2h2h1h2h2h1h2h2h1h2h2h2h1h2h2h2h2h1h2h2h2h2 h2h2h2h2h2h2h2h2h2h2h2h2h2h10q-17 -154 -67 -219t-144 -65q-55 0 -118 32.5t-115 64.5t-80 32q-27 0 -44 -26.5t-26 -90.5h-1h-1h-1h-1h-1h-1h-1h-1h-1h-1h-1h-1h-1h-1h-1h-1h-1h-1h-1h-1h-1h-1h-1h-1h-1h-1h-1h-2h-1h-1h-1h-1h-1h-2h-1h-1h-1h-2h-1h-1h-2h-1h-1h-2h-1h-2 h-1h-1h-2h-1h-2h-1h-2h-1h-2h-1h-2h-1h-2h-2h-1h-2h-1h-2h-2h-1h-2h-2h-2h-1h-2h-2h-1h-2h-2h-2h-2h-2h-1h-2h-2h-2h-2h-2h-2h-2h-2h-2h-2h-2h-2h-2h-2h-2h-3h-2h-2h-9z" />
<glyph unicode="&#xa1;" horiz-adv-x="593" d="M137 1155q0 66 45 110t113 44t114 -44t46 -110q0 -65 -46 -107t-114 -42t-113 42t-45 107zM156 -57l59 915h160l61 -915h-280z" />
<glyph unicode="&#xa2;" horiz-adv-x="948" d="M74 469q0 230 136 368t359 138h31l29 192h119l-31 -206q101 -18 180 -66l-51 -195q-77 48 -160 66q1 0 -21.5 -149.5t-45.5 -298.5l-23 -150q144 3 256 76l39 -197q-131 -78 -326 -78l-35 -235h-120l36 246q-173 34 -272.5 162.5t-99.5 326.5zM315 475q0 -108 43 -183 t121 -106l90 592q-122 -6 -188 -87t-66 -216z" />
<glyph unicode="&#xa3;" horiz-adv-x="1103" d="M43 154q125 32 174 81.5t49 147.5q0 73 -10 178h-188l-9 127h183q-9 142 -9 182q0 211 121.5 326t319.5 115q189 0 336 -94q-52 -193 -52 -197q-129 90 -272 90q-108 0 -162.5 -65.5t-54.5 -174.5q0 -42 8 -182h375l-8 -127h-357q5 -127 5 -151q0 -74 -15 -136 q57 -46 126.5 -73t127.5 -27q153 0 187 207l176 -33q-8 -124 -57.5 -211t-122.5 -127.5t-162 -40.5q-173 0 -344 160q-93 -116 -312 -164z" />
<glyph unicode="&#xa4;" horiz-adv-x="952" d="M57 1032l123 123l127 -127q73 43 170 43q98 0 176 -43l119 119l121 -121l-125 -125q41 -77 41 -166q0 -91 -41 -168l135 -135l-123 -123l-133 133q-73 -43 -170 -43q-109 0 -172 39l-121 -121l-121 121l121 121q-41 66 -41 176q0 106 41 172zM301 735q0 -75 48 -127.5 t128 -52.5q79 0 126.5 52.5t47.5 127.5q0 76 -47.5 128t-126.5 52q-81 0 -128.5 -52t-47.5 -128z" />
<glyph unicode="&#xa5;" horiz-adv-x="1183" d="M23 1280h270l299 -522l299 522h264l-399 -635h315l-6 -127h-358v-147h358l6 -127h-360v-244h-242v244h-360l8 127h356v147h-356l-8 127h317z" />
<glyph unicode="&#xa6;" horiz-adv-x="505" d="M150 -285v686h206v-686h-206zM150 629v686h206v-686h-206z" />
<glyph unicode="&#xa7;" horiz-adv-x="1021" d="M47 584q0 86 57.5 150.5t149.5 96.5q-104 71 -104 189q0 133 103 215t273 82q85 0 180.5 -20.5t163.5 -55.5l-53 -188q-67 34 -149.5 54.5t-147.5 20.5q-67 0 -104 -23.5t-37 -68.5q0 -12 4 -22.5t13 -20t18.5 -17t27 -15.5t30.5 -13.5t36.5 -12.5t38.5 -11.5t42.5 -12 t43.5 -12.5q60 -17 102 -31.5t93.5 -40t83 -54t53.5 -71.5t22 -94q0 -85 -50 -149.5t-140 -98.5q104 -73 104 -186q0 -135 -107.5 -222t-285.5 -87q-93 0 -195.5 23.5t-171.5 62.5l54 190q70 -41 155 -64.5t162 -23.5q73 0 115.5 28t42.5 77q0 18 -8 33.5t-29.5 29.5 t-38 22.5t-55 20.5t-57 17t-66.5 18q-48 12 -75.5 20t-72 23.5t-71 29.5t-58.5 36t-49.5 46t-30 57.5t-12.5 72.5zM250 637q0 -34 27 -60.5t76.5 -46.5t101.5 -36t121 -37.5t116 -42.5q40 25 66 62.5t26 80.5q0 34 -26 61t-74 47.5t-98.5 36t-118.5 37t-115 41.5 q-102 -70 -102 -143z" />
<glyph unicode="&#xa8;" horiz-adv-x="811" d="M41 1225q0 63 40 102t103 39q64 0 104 -39t40 -102q0 -65 -40 -105.5t-104 -40.5q-63 0 -103 41t-40 105zM489 1225q0 63 40 102t104 39t103.5 -39t39.5 -102q0 -65 -39.5 -105.5t-103.5 -40.5t-104 40.5t-40 105.5z" />
<glyph unicode="&#xa9;" horiz-adv-x="1562" d="M68 637q0 146 56.5 278.5t152 228.5t227 153t276.5 57t277.5 -57t228.5 -153t152.5 -228.5t56.5 -278.5q0 -145 -56.5 -277t-152.5 -227.5t-228.5 -152t-277.5 -56.5q-193 0 -357 95.5t-259.5 260t-95.5 357.5zM133 637q0 -176 87 -326.5t236 -238.5t324 -88 q132 0 252.5 52t207.5 140t138.5 208.5t51.5 252.5t-51.5 253t-138.5 209t-207.5 140.5t-252.5 52.5q-175 0 -324 -88.5t-236 -239.5t-87 -327zM422 635q0 182 108.5 288.5t292.5 106.5q141 0 248 -55l-59 -158q-83 53 -189 53q-98 0 -155.5 -61.5t-57.5 -167.5 q0 -108 57 -171.5t158 -63.5q106 0 197 61l41 -168q-43 -24 -111.5 -38.5t-134.5 -14.5q-181 0 -288 102t-107 287z" />
<glyph unicode="&#xaa;" horiz-adv-x="765" d="M41 717q0 118 104 191.5t328 82.5v37q0 58 -33.5 89.5t-95.5 31.5q-120 0 -238 -90l-61 147q66 48 151.5 77.5t172.5 29.5q139 0 218 -68t79 -211v-274q0 -107 84 -213l-199 -43q-49 56 -68 117h-4q-99 -115 -221 -115q-96 0 -156.5 59t-60.5 152zM223 750 q0 -48 30 -73.5t77 -25.5q38 0 79 16.5t64 39.5v176q-131 -7 -190.5 -43.5t-59.5 -89.5z" />
<glyph unicode="&#xab;" horiz-adv-x="1214" d="M37 373v213l512 313l35 -156l-330 -262v-4l330 -262l-35 -156zM602 367v223l531 330l32 -162l-342 -277v-4l342 -278l-32 -162z" />
<glyph unicode="&#xac;" horiz-adv-x="1034" d="M82 506l6 192h866v-471h-190v279h-682z" />
<glyph unicode="&#xad;" horiz-adv-x="698" d="M61 393v207h578v-207h-578z" />
<glyph unicode="&#xae;" horiz-adv-x="1562" d="M68 637q0 146 56.5 278.5t152 228.5t227 153t276.5 57t277.5 -57t228.5 -153t152.5 -228.5t56.5 -278.5q0 -145 -56.5 -277t-152.5 -227.5t-228.5 -152t-277.5 -56.5q-193 0 -357 95.5t-259.5 260t-95.5 357.5zM133 637q0 -176 87 -326.5t236 -238.5t324 -88 q132 0 252.5 52t207.5 140t138.5 208.5t51.5 252.5t-51.5 253t-138.5 209t-207.5 140.5t-252.5 52.5q-175 0 -324 -88.5t-236 -239.5t-87 -327zM487 272v748h316q146 0 225.5 -64t79.5 -176q0 -76 -36.5 -132t-106.5 -83l178 -293h-205l-145 254l-119 -6v-248h-187zM672 647 l102 2q146 3 146 119q0 111 -148 111h-100v-232z" />
<glyph unicode="&#xaf;" horiz-adv-x="811" d="M82 1114l16 141h621l16 -141h-653z" />
<glyph unicode="&#xb0;" horiz-adv-x="774" d="M49 973q0 142 93 240t243 98q154 0 246 -97.5t92 -240.5q0 -140 -92.5 -238t-245.5 -98q-149 0 -242.5 98.5t-93.5 237.5zM160 973q0 -96 61.5 -163t163.5 -67q104 0 166.5 67t62.5 163q0 100 -62.5 166.5t-166.5 66.5q-103 0 -164 -66.5t-61 -166.5z" />
<glyph unicode="&#xb1;" horiz-adv-x="1034" d="M76 0l6 193h872l7 -193h-885zM76 518l6 193h340v274h196v-274h336l7 -193h-343v-274h-196v274h-346z" />
<glyph unicode="&#xb2;" horiz-adv-x="675" d="M41 1245q52 43 124.5 69.5t151.5 26.5q130 0 203.5 -67t73.5 -172q0 -32 -8 -60.5t-29.5 -60t-44 -57t-67.5 -65t-82.5 -69.5t-104.5 -83q-2 -1 84 -1h173l87 1l4 -148h-559l-4 131q29 25 81 69q167 141 223 202.5t56 125.5q0 48 -31.5 76.5t-86.5 28.5 q-46 0 -94.5 -21.5t-86.5 -56.5q-2 0 -18.5 33t-31.5 65.5t-13 32.5z" />
<glyph unicode="&#xb3;" horiz-adv-x="675" d="M45 592l29 137q111 -47 209 -47q70 0 113.5 24.5t43.5 73.5q0 44 -40 71.5t-119 27.5q-29 -1 -125 -13v125q129 24 188 52t59 77q0 78 -110 78q-47 0 -99 -18t-90 -47l-57 133q49 33 119.5 54t144.5 21q126 0 200.5 -49.5t74.5 -142.5q0 -137 -207 -188q114 3 176.5 -50 t62.5 -133q0 -110 -91.5 -173.5t-235.5 -63.5q-135 0 -246 51z" />
<glyph unicode="&#xb4;" horiz-adv-x="808" d="M233 1071l209 375h273l-322 -375h-160z" />
<glyph unicode="&#xb6;" d="M84 868q0 196 141 304t391 108h-1h-1h1h1h1h1h1h1h1h1h1h1h1h1h1h1h1h1h1h1h1h1h1h1h1h1h1h1h1h1h1h1h1h1h1h1h1h1h1h1h1h1h1h1h1h1h1h1h1h1h1h1h1h1h1h1h1h1h2h1h1h1h1h1h1h1h1h1h1h1h2h1h1h1h1h1h1h2h1h1h1h1h1h2h1h1h1h1h2h1h1h1h2h1h1h1h2h1h1h2h1h1h1h2h1h1h2h1h1h2 h1h1h2h1h1h2h1h2h1h1h2h1h2h1h1h2h1h2h1h2h1h1h2h1h2h1h2h1h2h1h2h1h2h1h2h1h2h1h2h1h2h1h2h1h2h2h1h2h1h2h1h2h2h1h2h1h2h2h1h2h1h2h2h1h2h2h1h2h1h2h2h1h2h2h1h2h2h2h1h2h2h1h2h2h1h2h2h2h1h2h2h2h1h2h2h2h1h2h2h2h1h2h2h2h2h1h2h2h2h2h2h1h2h2h2h2h2h1h2h2h2h2h2h1h2h9 v-1417h-207v608q-54 -8 -139 -8q-253 0 -383.5 108.5t-130.5 296.5z" />
<glyph unicode="&#xb7;" horiz-adv-x="505" d="M94 496q0 68 46 112.5t118 44.5q70 0 115 -44.5t45 -112.5t-45 -114t-115 -46q-71 0 -117.5 46t-46.5 114z" />
<glyph unicode="&#xb8;" horiz-adv-x="811" d="M236 -147l239 227h137q-190 -183 -215 -201q116 -3 186 -52t70 -134q0 -204 -370 -250l-15 125q228 14 228 110q0 108 -242 78z" />
<glyph unicode="&#xb9;" horiz-adv-x="675" d="M94 1262l395 75v-778h-196v590l-193 -39z" />
<glyph unicode="&#xba;" horiz-adv-x="894" d="M59 907q0 183 111 293.5t283 110.5q170 0 275.5 -109.5t105.5 -294.5q0 -181 -110.5 -291t-279.5 -110q-170 0 -277.5 109t-107.5 292zM254 909q0 -112 51.5 -182t143.5 -70t142 67.5t50 180.5t-52.5 183.5t-142.5 70.5q-92 0 -142 -68.5t-50 -181.5z" />
<glyph unicode="&#xbb;" horiz-adv-x="1224" d="M59 199l342 278v4l-342 277l33 162l533 -330v-223l-533 -330zM641 215l330 262v4l-330 262l37 156l510 -313v-213l-510 -314z" />
<glyph unicode="&#xbc;" horiz-adv-x="1464" d="M94 1262l395 75v-778h-196v590l-193 -39zM125 -238l1116 1518h182l-1116 -1518h-182zM811 10l307 469h223v-456h103l4 -134h-107v-182h-167v182h-353zM971 20h207v322z" />
<glyph unicode="&#xbd;" horiz-adv-x="1464" d="M94 -238l1116 1518h183l-1117 -1518h-182zM94 1262l395 75v-778h-196v590l-193 -39zM829 393q52 43 125 69.5t152 26.5q130 0 203 -67t73 -172q0 -47 -18 -88t-67 -92.5t-99.5 -93.5t-150.5 -121q-2 -1 84 -1h173l87 1l4 -148h-559l-5 131q29 24 80 68q168 142 224.5 204 t56.5 126q0 48 -32 76t-87 28q-95 0 -180 -78q-2 0 -18.5 32.5t-32 65.5t-13.5 33z" />
<glyph unicode="&#xbe;" horiz-adv-x="1464" d="M45 592l29 137q111 -47 209 -47q70 0 113.5 24.5t43.5 73.5q0 44 -40 71.5t-119 27.5q-29 -1 -125 -13v125q129 24 188 52t59 77q0 78 -110 78q-47 0 -99 -18t-90 -47l-57 133q49 33 119.5 54t144.5 21q126 0 200.5 -49.5t74.5 -142.5q0 -137 -207 -188q114 3 176.5 -50 t62.5 -133q0 -110 -91.5 -173.5t-235.5 -63.5q-135 0 -246 51zM125 -238l1116 1518h182l-1116 -1518h-182zM811 10l307 469h223v-456h103l4 -134h-107v-182h-167v182h-353zM971 20h207v322z" />
<glyph unicode="&#xbf;" horiz-adv-x="792" d="M72 330q0 61 18 108.5t52.5 79t71.5 51.5t87 37q42 16 59.5 23t42.5 20.5t35.5 28t12.5 33.5q0 40 -102 137q-6 5 -9 8q129 27 139 27q71 -33 118.5 -96.5t47.5 -133.5q0 -85 -53.5 -133t-151.5 -80q-35 -11 -54 -18t-42.5 -18t-35 -22t-19.5 -27t-8 -36q0 -61 62.5 -100 t174.5 -39q87 0 176 29l-6 -211q-82 -29 -190 -29q-185 0 -305.5 104.5t-120.5 256.5zM291 1155q0 69 45 111.5t117 42.5t117.5 -42.5t45.5 -111.5q0 -67 -45.5 -108t-117.5 -41t-117 41t-45 108z" />
<glyph unicode="&#xc0;" horiz-adv-x="1247" d="M8 0l467 1280h303l461 -1280h-252l-106 303h-516l-105 -303h-252zM225 1761h273l211 -375h-162zM430 510h387l-192 555z" />
<glyph unicode="&#xc1;" horiz-adv-x="1247" d="M8 0l467 1280h303l461 -1280h-252l-106 303h-516l-105 -303h-252zM430 510h387l-192 555zM535 1386l208 375h273l-322 -375h-159z" />
<glyph unicode="&#xc2;" horiz-adv-x="1247" d="M8 0l467 1280h303l461 -1280h-252l-106 303h-516l-105 -303h-252zM270 1386l240 383h233l240 -383h-170l-184 242h-4l-183 -242h-172zM430 510h387l-192 555z" />
<glyph unicode="&#xc3;" horiz-adv-x="1247" d="M8 0l467 1280h303l461 -1280h-252l-106 303h-516l-105 -303h-252zM252 1407q17 155 68 221t145 66q43 0 92 -20.5t85 -45t73.5 -45t60.5 -20.5q57 0 70 116h1h1h1h1h1h1h1h1h1h1h1h1h1h1h1h1h1h1h1h1h1h1h1h1h1h1h1h1h1h2h1h1h1h1h2h1h1h1h2h1h1h2h1h1h2h1h1h2h1h2h1h2h1 h1h2h1h2h2h1h2h1h2h1h2h2h1h2h2h1h2h2h1h2h2h2h1h2h2h2h2h1h2h2h2h2h2h2h2h2h2h2h2h2h2h2h2h2h2h10q-17 -154 -67 -219t-144 -65q-55 0 -118 32.5t-115 64.5t-80 32q-27 0 -44 -26.5t-26 -90.5h-1h-1h-1h-1h-1h-1h-1h-1h-1h-1h-1h-1h-1h-1h-1h-1h-1h-1h-1h-1h-1h-1h-1h-1h-1 h-1h-1h-2h-1h-1h-1h-1h-1h-2h-1h-1h-1h-2h-1h-1h-2h-1h-1h-2h-1h-2h-1h-1h-2h-1h-2h-1h-2h-1h-2h-1h-2h-1h-2h-2h-1h-2h-1h-2h-2h-1h-2h-2h-2h-1h-2h-2h-1h-2h-2h-2h-2h-2h-1h-2h-2h-2h-2h-2h-2h-2h-2h-2h-2h-2h-2h-2h-2h-2h-3h-2h-2h-9zM430 510h387l-192 555z" />
<glyph unicode="&#xc4;" horiz-adv-x="1247" d="M8 0l467 1280h303l461 -1280h-252l-106 303h-516l-105 -303h-252zM252 1540q0 63 40 102t103 39q64 0 104 -39t40 -102q0 -65 -40 -105t-104 -40q-63 0 -103 40.5t-40 104.5zM430 510h387l-192 555zM700 1540q0 63 40 102t104 39t103.5 -39t39.5 -102q0 -65 -39.5 -105 t-103.5 -40t-104 40t-40 105z" />
<glyph unicode="&#xc5;" horiz-adv-x="1247" d="M8 0l447 1227q-47 30 -74 76.5t-27 101.5q0 99 74.5 166t196.5 67t195 -66.5t75 -166.5q1 -54 -24.5 -100.5t-73.5 -77.5l442 -1227h-252l-106 303h-516l-105 -303h-252zM430 510h387l-192 555zM469 1407q0 -60 43.5 -99.5t112.5 -39.5q72 0 115.5 39.5t43.5 99.5 t-43.5 99.5t-115.5 39.5q-69 0 -112.5 -39.5t-43.5 -99.5z" />
<glyph unicode="&#xc6;" horiz-adv-x="1771" d="M-16 0l678 1280h1028v-211h-629v-321h522v-211h-522v-326h629v-211h-875v303h-403l-158 -303h-270zM514 514h301v582z" />
<glyph unicode="&#xc7;" horiz-adv-x="1243" d="M86 637q0 306 183.5 490t484.5 184q110 0 219 -27t194 -74l-77 -217q-155 103 -336 103q-189 0 -302.5 -121.5t-113.5 -329.5q0 -212 113.5 -336.5t306.5 -124.5q186 0 350 115l47 -229q-70 -42 -170.5 -69t-202.5 -32q-18 -16 -42 -38.5t-38 -35.5t-18 -16 q116 -3 186 -52t70 -134q0 -204 -371 -250l-14 125q227 14 227 110q0 107 -241 78l-19 97l129 122q-259 28 -412 202.5t-153 459.5z" />
<glyph unicode="&#xc8;" d="M147 0v1280h873v-211h-627v-321h514v-211h-514v-326h627v-211h-873zM207 1761h272l211 -375h-162z" />
<glyph unicode="&#xc9;" d="M147 0v1280h873v-211h-627v-321h514v-211h-514v-326h627v-211h-873zM477 1386l209 375h272l-321 -375h-160z" />
<glyph unicode="&#xca;" d="M147 0v1280h873v-211h-627v-321h514v-211h-514v-326h627v-211h-873zM227 1386l240 383h233l240 -383h-170l-184 242h-4l-183 -242h-172z" />
<glyph unicode="&#xcb;" d="M147 0v1280h873v-211h-627v-321h514v-211h-514v-326h627v-211h-873zM215 1540q0 63 40 102t103 39q64 0 104 -39t40 -102q0 -65 -40 -105t-104 -40q-63 0 -103 40.5t-40 104.5zM664 1540q0 63 39.5 102t103.5 39t103.5 -39t39.5 -102q0 -65 -39.5 -105t-103.5 -40 t-103.5 40t-39.5 105z" />
<glyph unicode="&#xcc;" horiz-adv-x="550" d="M-111 1761h273l211 -375h-162zM152 0v1280h247v-1280h-247z" />
<glyph unicode="&#xcd;" horiz-adv-x="550" d="M152 0v1280h247v-1280h-247zM182 1386l209 375h273l-322 -375h-160z" />
<glyph unicode="&#xce;" horiz-adv-x="550" d="M-78 1386l240 383h233l240 -383h-170l-184 242h-5l-182 -242h-172zM152 0v1280h247v-1280h-247z" />
<glyph unicode="&#xcf;" horiz-adv-x="550" d="M-90 1540q0 63 40 102t103 39q64 0 104 -39t40 -102q0 -65 -40 -105t-104 -40q-63 0 -103 40.5t-40 104.5zM152 0v1280h247v-1280h-247zM358 1540q0 63 40 102t104 39t103.5 -39t39.5 -102q0 -65 -39.5 -105t-103.5 -40t-104 40t-40 105z" />
<glyph unicode="&#xd0;" horiz-adv-x="1406" d="M33 547v201h170v532h432q325 0 508.5 -171t183.5 -460q0 -301 -184.5 -475t-521.5 -174h-418v547h-170zM453 211h168q209 0 332.5 109t123.5 317q0 213 -122.5 322.5t-346.5 109.5h-155v-321h290v-201h-290v-336z" />
<glyph unicode="&#xd1;" horiz-adv-x="1411" d="M147 0v1280h273l606 -932v932h238v-1292h-267l-612 942v-930h-238zM334 1407q17 155 68 221t145 66q43 0 92 -20.5t85 -45t73.5 -45t60.5 -20.5q57 0 70 116h1h1h1h1h1h1h1h1h1h1h1h1h1h1h1h1h1h1h1h1h1h1h1h1h1h1h1h1h1h2h1h1h1h1h2h1h1h1h2h1h1h2h1h1h2h1h1h2h1h2h1h2 h1h1h2h1h2h2h1h2h1h2h1h2h2h1h2h2h1h2h2h1h2h2h2h1h2h2h2h2h1h2h2h2h2h2h2h2h2h2h2h2h2h2h2h2h2h2h10q-17 -154 -67 -219t-144 -65q-55 0 -118 32.5t-115 64.5t-80 32q-27 0 -44 -26.5t-26 -90.5h-1h-1h-1h-1h-1h-1h-1h-1h-1h-1h-1h-1h-1h-1h-1h-1h-1h-1h-1h-1h-1h-1h-1h-1 h-1h-1h-1h-2h-1h-1h-1h-1h-1h-2h-1h-1h-1h-2h-1h-1h-2h-1h-1h-2h-1h-2h-1h-1h-2h-1h-2h-1h-2h-1h-2h-1h-2h-1h-2h-2h-1h-2h-1h-2h-2h-1h-2h-2h-2h-1h-2h-2h-1h-2h-2h-2h-2h-2h-1h-2h-2h-2h-2h-2h-2h-2h-2h-2h-2h-2h-2h-2h-2h-2h-3h-2h-2h-9z" />
<glyph unicode="&#xd2;" horiz-adv-x="1486" d="M86 637q0 194 85.5 348.5t235.5 240t338 85.5q189 0 337 -78t233.5 -230.5t85.5 -357.5q0 -195 -85 -349.5t-235.5 -240.5t-337.5 -86q-190 0 -338 78.5t-233.5 231t-85.5 358.5zM338 645q0 -211 111.5 -339t298.5 -128q182 0 292.5 127t110.5 332q0 211 -112.5 338 t-299.5 127q-182 0 -291.5 -126t-109.5 -331zM358 1767h273l211 -374h-162z" />
<glyph unicode="&#xd3;" horiz-adv-x="1486" d="M86 637q0 194 85.5 348.5t235.5 240t338 85.5q189 0 337 -78t233.5 -230.5t85.5 -357.5q0 -195 -85 -349.5t-235.5 -240.5t-337.5 -86q-190 0 -338 78.5t-233.5 231t-85.5 358.5zM338 645q0 -211 111.5 -339t298.5 -128q182 0 292.5 127t110.5 332q0 211 -112.5 338 t-299.5 127q-182 0 -291.5 -126t-109.5 -331zM653 1393l209 374h273l-322 -374h-160z" />
<glyph unicode="&#xd4;" horiz-adv-x="1486" d="M86 637q0 194 85.5 348.5t235.5 240t338 85.5q189 0 337 -78t233.5 -230.5t85.5 -357.5q0 -195 -85 -349.5t-235.5 -240.5t-337.5 -86q-190 0 -338 78.5t-233.5 231t-85.5 358.5zM338 645q0 -211 111.5 -339t298.5 -128q182 0 292.5 127t110.5 332q0 211 -112.5 338 t-299.5 127q-182 0 -291.5 -126t-109.5 -331zM391 1386l240 383h233l240 -383h-170l-184 242h-5l-182 -242h-172z" />
<glyph unicode="&#xd5;" horiz-adv-x="1486" d="M86 637q0 194 85.5 348.5t235.5 240t338 85.5q189 0 337 -78t233.5 -230.5t85.5 -357.5q0 -195 -85 -349.5t-235.5 -240.5t-337.5 -86q-190 0 -338 78.5t-233.5 231t-85.5 358.5zM338 645q0 -211 111.5 -339t298.5 -128q182 0 292.5 127t110.5 332q0 211 -112.5 338 t-299.5 127q-182 0 -291.5 -126t-109.5 -331zM373 1407q17 155 68 221t145 66q43 0 92 -20.5t85 -45t73.5 -45t60.5 -20.5q57 0 70 116h1h1h1h1h1h1h1h1h1h1h1h1h1h1h1h1h1h1h1h1h1h1h1h1h1h1h1h1h1h2h1h1h1h1h2h1h1h1h2h1h1h2h1h1h2h1h1h2h1h2h1h2h1h1h2h1h2h2h1h2h1h2h1h2 h2h1h2h2h1h2h2h1h2h2h2h1h2h2h2h2h1h2h2h2h2h2h2h2h2h2h2h2h2h2h2h2h2h2h10q-17 -154 -67 -219t-144 -65q-55 0 -118 32.5t-115 64.5t-80 32q-27 0 -44 -26.5t-26 -90.5h-1h-1h-1h-1h-1h-1h-1h-1h-1h-1h-1h-1h-1h-1h-1h-1h-1h-1h-1h-1h-1h-1h-1h-1h-1h-1h-1h-2h-1h-1h-1h-1 h-1h-2h-1h-1h-1h-2h-1h-1h-2h-1h-1h-2h-1h-2h-1h-1h-2h-1h-2h-1h-2h-1h-2h-1h-2h-1h-2h-2h-1h-2h-1h-2h-2h-1h-2h-2h-2h-1h-2h-2h-1h-2h-2h-2h-2h-2h-1h-2h-2h-2h-2h-2h-2h-2h-2h-2h-2h-2h-2h-2h-2h-2h-3h-2h-2h-9z" />
<glyph unicode="&#xd6;" horiz-adv-x="1486" d="M86 637q0 194 85.5 348.5t235.5 240t338 85.5q189 0 337 -78t233.5 -230.5t85.5 -357.5q0 -195 -85 -349.5t-235.5 -240.5t-337.5 -86q-190 0 -338 78.5t-233.5 231t-85.5 358.5zM338 645q0 -211 111.5 -339t298.5 -128q182 0 292.5 127t110.5 332q0 211 -112.5 338 t-299.5 127q-182 0 -291.5 -126t-109.5 -331zM379 1540q0 63 40 102t103 39q64 0 104 -39t40 -102q0 -65 -40 -105t-104 -40q-63 0 -103 40.5t-40 104.5zM827 1540q0 63 40 102t104 39t103.5 -39t39.5 -102q0 -65 -39.5 -105t-103.5 -40t-104 40t-40 105z" />
<glyph unicode="&#xd7;" horiz-adv-x="1034" d="M76 172l317 311l-317 314l133 131l311 -318l314 318l131 -131l-316 -314l316 -311l-131 -133l-314 315l-311 -315z" />
<glyph unicode="&#xd8;" horiz-adv-x="1486" d="M90 637q0 146 50 271.5t137.5 214t210 138.5t262.5 50q144 0 282 -56l94 162h140l-125 -217q125 -85 194.5 -227t69.5 -328q0 -145 -49.5 -271t-136.5 -215t-209 -139.5t-262 -50.5q-156 0 -291 58l-92 -164h-140l127 221q-124 85 -193 226.5t-69 326.5zM342 645 q0 -231 133 -358l449 778q-78 37 -181 37q-182 0 -291.5 -126t-109.5 -331zM567 219q78 -41 185 -41q182 0 291.5 127t109.5 332q0 233 -135 362z" />
<glyph unicode="&#xd9;" horiz-adv-x="1349" d="M141 485v795h250v-762q0 -330 291 -330q279 0 279 320v1v1v1v1v1v1v1v1v1v1v1v1v1v1v1v1v1v1v1v1v1v1v1v1v1v1v1v1v1v1v1v1v1v1v1v1v1v1v1v1v1v1v1v1v1v1v1v1v1v1v1v1v1v1v1v1v1v1v1v1v1v1v1v1v1v1v1v1v1v1v1v1v1v1v1v1v1v1v1v1v1v1v1v1v1v1v1v1v1v1v1v1v1v1v1v1v1v1v1v1 v1v1v1v1v1v1v1v1v1v1v1v1v1v1v1v1v1v1v1v1v1v1v1v1v1v1v1v1v1v1v1v1v1v1v1v1v1v1v1v1v1v1v1v1v1v2v1v1v1v1v1v1v1v1v1v1v2v1v1v1v1v1v1v1v1v2v1v1v1v1v1v1v2v1v1v1v1v1v1v2v1v1v1v1v1v2v1v1v1v1v2v1v1v1v1v2v1v1v1v1v2v1v1v1v2v1v1v1v2v1v1v1v1v2v1v1v2v1v1v1v2v1v1v1v2v1v1 v1v2v1v1v2v1v1v2v1v1v1v2v1v1v2v1v1v2v1v1v2v1v1v2v1v1v2v1v1v2v1v1v2v1v1v2v1v2v1v1v2v1v1v2v1v2v1v1v2v1v1v2v1v2v1v1v2v1v2v1v2v1v1v2v1v2v1v1v2v1v2v1v2v1v2v1v1v2v1v2v1v2v1v2v1v2v1v1v2v1v2v1v2v1v2v1v2v1v2v1v2v1v2v1v2v1v2v1v2v1v2v1v2v1v2v1v2v1v2v2v1v2v1v2v1v2v1 v2v1v2v1v2v2v1v2v1v2v1v2v2v1v2v1v2v1v2v2v1v2v1v2v1v2v2v1v2v1v2v2v1v2v1v2v2v1v2v2v1v2v1v2v2v1v2v2v1v2v1v2v2v1v2v2v1v2v2v1v2v2v1v2v2v1v2v2v1v2v2v1v2v2v1v2v2v1v2v2v1v2v2v1v2v2v2v1v2v2v1v2v2v2v1v2v2v1v2v2v2v1v2v2v2v1v2v2v1v2v2v2v1v2v2v2v1v2v2v2v1v2v2v2v2v1v2 v2v2v1v2v2v2v2v1v2v2v2v2v1v2v2v2v2v1v2v2v2v2v1v2v2v2v2v2v1v2v2v2v2v2v1v2v2v2v2v2v1v2v2v2v2v2v2v1v2v2v2v2v2v2v2v1v2v2v2v2v2v2v2v2v1v2v2v2v2v2v2v8h247v-772q0 -260 -139 -399.5t-395 -139.5q-249 0 -391 134t-142 382zM307 1761h273l211 -375h-162z" />
<glyph unicode="&#xda;" horiz-adv-x="1349" d="M141 485v795h250v-762q0 -330 291 -330q279 0 279 320v1v1v1v1v1v1v1v1v1v1v1v1v1v1v1v1v1v1v1v1v1v1v1v1v1v1v1v1v1v1v1v1v1v1v1v1v1v1v1v1v1v1v1v1v1v1v1v1v1v1v1v1v1v1v1v1v1v1v1v1v1v1v1v1v1v1v1v1v1v1v1v1v1v1v1v1v1v1v1v1v1v1v1v1v1v1v1v1v1v1v1v1v1v1v1v1v1v1v1v1 v1v1v1v1v1v1v1v1v1v1v1v1v1v1v1v1v1v1v1v1v1v1v1v1v1v1v1v1v1v1v1v1v1v1v1v1v1v1v1v1v1v1v1v1v1v2v1v1v1v1v1v1v1v1v1v1v2v1v1v1v1v1v1v1v1v2v1v1v1v1v1v1v2v1v1v1v1v1v1v2v1v1v1v1v1v2v1v1v1v1v2v1v1v1v1v2v1v1v1v1v2v1v1v1v2v1v1v1v2v1v1v1v1v2v1v1v2v1v1v1v2v1v1v1v2v1v1 v1v2v1v1v2v1v1v2v1v1v1v2v1v1v2v1v1v2v1v1v2v1v1v2v1v1v2v1v1v2v1v1v2v1v1v2v1v2v1v1v2v1v1v2v1v2v1v1v2v1v1v2v1v2v1v1v2v1v2v1v2v1v1v2v1v2v1v1v2v1v2v1v2v1v2v1v1v2v1v2v1v2v1v2v1v2v1v1v2v1v2v1v2v1v2v1v2v1v2v1v2v1v2v1v2v1v2v1v2v1v2v1v2v1v2v1v2v1v2v2v1v2v1v2v1v2v1 v2v1v2v1v2v2v1v2v1v2v1v2v2v1v2v1v2v1v2v2v1v2v1v2v1v2v2v1v2v1v2v2v1v2v1v2v2v1v2v2v1v2v1v2v2v1v2v2v1v2v1v2v2v1v2v2v1v2v2v1v2v2v1v2v2v1v2v2v1v2v2v1v2v2v1v2v2v1v2v2v1v2v2v1v2v2v2v1v2v2v1v2v2v2v1v2v2v1v2v2v2v1v2v2v2v1v2v2v1v2v2v2v1v2v2v2v1v2v2v2v1v2v2v2v2v1v2 v2v2v1v2v2v2v2v1v2v2v2v2v1v2v2v2v2v1v2v2v2v2v1v2v2v2v2v2v1v2v2v2v2v2v1v2v2v2v2v2v1v2v2v2v2v2v2v1v2v2v2v2v2v2v2v1v2v2v2v2v2v2v2v2v1v2v2v2v2v2v2v8h247v-772q0 -260 -139 -399.5t-395 -139.5q-249 0 -391 134t-142 382zM565 1386l209 375h273l-322 -375h-160z" />
<glyph unicode="&#xdb;" horiz-adv-x="1349" d="M141 485v795h250v-762q0 -330 291 -330q279 0 279 320v1v1v1v1v1v1v1v1v1v1v1v1v1v1v1v1v1v1v1v1v1v1v1v1v1v1v1v1v1v1v1v1v1v1v1v1v1v1v1v1v1v1v1v1v1v1v1v1v1v1v1v1v1v1v1v1v1v1v1v1v1v1v1v1v1v1v1v1v1v1v1v1v1v1v1v1v1v1v1v1v1v1v1v1v1v1v1v1v1v1v1v1v1v1v1v1v1v1v1v1 v1v1v1v1v1v1v1v1v1v1v1v1v1v1v1v1v1v1v1v1v1v1v1v1v1v1v1v1v1v1v1v1v1v1v1v1v1v1v1v1v1v1v1v1v1v2v1v1v1v1v1v1v1v1v1v1v2v1v1v1v1v1v1v1v1v2v1v1v1v1v1v1v2v1v1v1v1v1v1v2v1v1v1v1v1v2v1v1v1v1v2v1v1v1v1v2v1v1v1v1v2v1v1v1v2v1v1v1v2v1v1v1v1v2v1v1v2v1v1v1v2v1v1v1v2v1v1 v1v2v1v1v2v1v1v2v1v1v1v2v1v1v2v1v1v2v1v1v2v1v1v2v1v1v2v1v1v2v1v1v2v1v1v2v1v2v1v1v2v1v1v2v1v2v1v1v2v1v1v2v1v2v1v1v2v1v2v1v2v1v1v2v1v2v1v1v2v1v2v1v2v1v2v1v1v2v1v2v1v2v1v2v1v2v1v1v2v1v2v1v2v1v2v1v2v1v2v1v2v1v2v1v2v1v2v1v2v1v2v1v2v1v2v1v2v1v2v2v1v2v1v2v1v2v1 v2v1v2v1v2v2v1v2v1v2v1v2v2v1v2v1v2v1v2v2v1v2v1v2v1v2v2v1v2v1v2v2v1v2v1v2v2v1v2v2v1v2v1v2v2v1v2v2v1v2v1v2v2v1v2v2v1v2v2v1v2v2v1v2v2v1v2v2v1v2v2v1v2v2v1v2v2v1v2v2v1v2v2v1v2v2v2v1v2v2v1v2v2v2v1v2v2v1v2v2v2v1v2v2v2v1v2v2v1v2v2v2v1v2v2v2v1v2v2v2v1v2v2v2v2v1v2 v2v2v1v2v2v2v2v1v2v2v2v2v1v2v2v2v2v1v2v2v2v2v1v2v2v2v2v2v1v2v2v2v2v2v1v2v2v2v2v2v1v2v2v2v2v2v2v1v2v2v2v2v2v2v2v1v2v2v2v2v2v2v2v2v1v2v2v2v2v2v2v8h247v-772q0 -260 -139 -399.5t-395 -139.5q-249 0 -391 134t-142 382zM322 1386l239 383h234l239 -383h-170l-184 242 h-4l-182 -242h-172z" />
<glyph unicode="&#xdc;" horiz-adv-x="1349" d="M141 485v795h250v-762q0 -330 291 -330q279 0 279 320v1v1v1v1v1v1v1v1v1v1v1v1v1v1v1v1v1v1v1v1v1v1v1v1v1v1v1v1v1v1v1v1v1v1v1v1v1v1v1v1v1v1v1v1v1v1v1v1v1v1v1v1v1v1v1v1v1v1v1v1v1v1v1v1v1v1v1v1v1v1v1v1v1v1v1v1v1v1v1v1v1v1v1v1v1v1v1v1v1v1v1v1v1v1v1v1v1v1v1v1 v1v1v1v1v1v1v1v1v1v1v1v1v1v1v1v1v1v1v1v1v1v1v1v1v1v1v1v1v1v1v1v1v1v1v1v1v1v1v1v1v1v1v1v1v1v2v1v1v1v1v1v1v1v1v1v1v2v1v1v1v1v1v1v1v1v2v1v1v1v1v1v1v2v1v1v1v1v1v1v2v1v1v1v1v1v2v1v1v1v1v2v1v1v1v1v2v1v1v1v1v2v1v1v1v2v1v1v1v2v1v1v1v1v2v1v1v2v1v1v1v2v1v1v1v2v1v1 v1v2v1v1v2v1v1v2v1v1v1v2v1v1v2v1v1v2v1v1v2v1v1v2v1v1v2v1v1v2v1v1v2v1v1v2v1v2v1v1v2v1v1v2v1v2v1v1v2v1v1v2v1v2v1v1v2v1v2v1v2v1v1v2v1v2v1v1v2v1v2v1v2v1v2v1v1v2v1v2v1v2v1v2v1v2v1v1v2v1v2v1v2v1v2v1v2v1v2v1v2v1v2v1v2v1v2v1v2v1v2v1v2v1v2v1v2v1v2v2v1v2v1v2v1v2v1 v2v1v2v1v2v2v1v2v1v2v1v2v2v1v2v1v2v1v2v2v1v2v1v2v1v2v2v1v2v1v2v2v1v2v1v2v2v1v2v2v1v2v1v2v2v1v2v2v1v2v1v2v2v1v2v2v1v2v2v1v2v2v1v2v2v1v2v2v1v2v2v1v2v2v1v2v2v1v2v2v1v2v2v1v2v2v2v1v2v2v1v2v2v2v1v2v2v1v2v2v2v1v2v2v2v1v2v2v1v2v2v2v1v2v2v2v1v2v2v2v1v2v2v2v2v1v2 v2v2v1v2v2v2v2v1v2v2v2v2v1v2v2v2v2v1v2v2v2v2v1v2v2v2v2v2v1v2v2v2v2v2v1v2v2v2v2v2v1v2v2v2v2v2v2v1v2v2v2v2v2v2v2v1v2v2v2v2v2v2v2v2v1v2v2v2v2v2v2v8h247v-772q0 -260 -139 -399.5t-395 -139.5q-249 0 -391 134t-142 382zM309 1540q0 63 40.5 102t103.5 39 q64 0 103.5 -39t39.5 -102q0 -65 -39.5 -105t-103.5 -40q-63 0 -103.5 40.5t-40.5 104.5zM758 1540q0 63 39.5 102t103.5 39t103.5 -39t39.5 -102q0 -65 -39.5 -105t-103.5 -40t-103.5 40t-39.5 105z" />
<glyph unicode="&#xdd;" horiz-adv-x="1179" d="M20 1280h271l303 -553l297 553h268l-444 -784v-496h-248v498zM496 1386l209 375h272l-322 -375h-159z" />
<glyph unicode="&#xde;" horiz-adv-x="1150" d="M147 0v1280h250v-195h164q258 0 393.5 -116.5t135.5 -311.5q0 -219 -143 -334.5t-404 -117.5l-146 -2v-203h-250zM393 412l158 2q142 3 215.5 63.5t73.5 171.5q0 228 -295 228h-152v-465z" />
<glyph unicode="&#xdf;" horiz-adv-x="1255" d="M8 750l10 153l152 45l2 92q2 104 37 180.5t96 120t135 64t164 20.5q185 0 295.5 -92t110.5 -243q0 -49 -18.5 -92t-45 -72t-52.5 -53.5t-44.5 -49t-18.5 -47.5q0 -33 21 -60.5t54 -49.5t73.5 -45t80.5 -51.5t73 -63.5t54 -88t21 -117q0 -154 -97.5 -244t-272.5 -90 q-162 0 -312 80l43 199q132 -84 238 -84q72 0 111.5 31.5t39.5 91.5q0 41 -19.5 74t-50 55.5t-68 43.5t-75 44.5t-68 51.5t-50 70.5t-19.5 96.5q0 46 16 86t39 69t46 57t39 62.5t16 73.5q0 72 -47 120t-119 48q-89 0 -137.5 -50.5t-48.5 -144.5v-1042h-240v737z" />
<glyph unicode="&#xe0;" horiz-adv-x="985" d="M66 236q0 317 559 335v23q0 96 -44 138t-145 42q-138 0 -313 -100l-49 190q76 47 181 79t214 32q215 0 308.5 -95t88.5 -294v-338q0 -54 14.5 -68.5t69.5 -17.5l-18 -182q-241 -27 -299 129h-8q-116 -140 -267 -140q-126 0 -209 77t-83 190zM80 1446h272l211 -375h-162z M303 268q0 -55 38.5 -89t102.5 -34q106 0 181 82v217q-177 -22 -249.5 -61.5t-72.5 -114.5z" />
<glyph unicode="&#xe1;" horiz-adv-x="985" d="M66 236q0 317 559 335v23q0 96 -44 138t-145 42q-138 0 -313 -100l-49 190q76 47 181 79t214 32q215 0 308.5 -95t88.5 -294v-338q0 -54 14.5 -68.5t69.5 -17.5l-18 -182q-241 -27 -299 129h-8q-116 -140 -267 -140q-126 0 -209 77t-83 190zM303 268q0 -55 38.5 -89 t102.5 -34q106 0 181 82v217q-177 -22 -249.5 -61.5t-72.5 -114.5zM352 1071l209 375h273l-322 -375h-160z" />
<glyph unicode="&#xe2;" horiz-adv-x="985" d="M66 236q0 317 559 335v23q0 96 -44 138t-145 42q-138 0 -313 -100l-49 190q76 47 181 79t214 32q215 0 308.5 -95t88.5 -294v-338q0 -54 14.5 -68.5t69.5 -17.5l-18 -182q-241 -27 -299 129h-8q-116 -140 -267 -140q-126 0 -209 77t-83 190zM111 1071l239 383h234 l239 -383h-170l-184 242h-4l-182 -242h-172zM303 268q0 -55 38.5 -89t102.5 -34q106 0 181 82v217q-177 -22 -249.5 -61.5t-72.5 -114.5z" />
<glyph unicode="&#xe3;" horiz-adv-x="985" d="M66 236q0 317 559 335v23q0 96 -44 138t-145 42q-138 0 -313 -100l-49 190q76 47 181 79t214 32q215 0 308.5 -95t88.5 -294v-338q0 -54 14.5 -68.5t69.5 -17.5l-18 -182q-241 -27 -299 129h-8q-116 -140 -267 -140q-126 0 -209 77t-83 190zM98 1092q17 155 68 220.5 t145 65.5q54 0 117.5 -33t115 -65.5t79.5 -32.5q56 0 69 117h1h1h1h1h1h1h1h1h1h1h1h1h1h1h1h1h1h1h1h1h1h1h1h1h1h1h1h1h1h1h2h1h1h1h1h2h1h1h1h2h1h1h2h1h1h2h1h1h2h1h2h1h2h1h2h1h2h1h2h1h2h1h2h2h1h2h2h1h2h2h1h2h2h1h2h2h2h1h2h2h2h2h2h1h2h2h2h2h2h2h2h2h2h2h2h2h2h2 h3h9q-17 -154 -67 -219.5t-144 -65.5q-44 0 -93.5 20t-85 44.5t-74 44.5t-61.5 20q-27 0 -43.5 -26t-25.5 -90h-1h-1h-1h-1h-1h-1h-1h-1h-1h-1h-1h-1h-1h-1h-1h-1h-1h-1h-1h-1h-1h-1h-1h-1h-1h-1h-1h-1h-2h-1h-1h-1h-1h-2h-1h-1h-1h-2h-1h-1h-1h-2h-1h-2h-1h-1h-2h-1h-2h-1 h-2h-1h-1h-2h-1h-2h-2h-1h-2h-1h-2h-1h-2h-2h-1h-2h-2h-1h-2h-2h-2h-1h-2h-2h-2h-1h-2h-2h-2h-2h-2h-1h-2h-2h-2h-2h-2h-2h-2h-2h-2h-2h-2h-3h-2h-2h-2h-3h-8zM303 268q0 -55 38.5 -89t102.5 -34q106 0 181 82v217q-177 -22 -249.5 -61.5t-72.5 -114.5z" />
<glyph unicode="&#xe4;" horiz-adv-x="985" d="M66 236q0 317 559 335v23q0 96 -44 138t-145 42q-138 0 -313 -100l-49 190q76 47 181 79t214 32q215 0 308.5 -95t88.5 -294v-338q0 -54 14.5 -68.5t69.5 -17.5l-18 -182q-241 -27 -299 129h-8q-116 -140 -267 -140q-126 0 -209 77t-83 190zM104 1219q0 63 40.5 102 t103.5 39q64 0 103.5 -39t39.5 -102q0 -65 -39.5 -105.5t-103.5 -40.5q-63 0 -103.5 41t-40.5 105zM303 268q0 -55 38.5 -89t102.5 -34q106 0 181 82v217q-177 -22 -249.5 -61.5t-72.5 -114.5zM553 1219q0 63 39.5 102t103.5 39t104 -39t40 -102q0 -65 -40 -105.5 t-104 -40.5t-103.5 40.5t-39.5 105.5z" />
<glyph unicode="&#xe5;" horiz-adv-x="985" d="M66 236q0 317 559 335v23q0 96 -44 138t-145 42q-138 0 -313 -100l-49 190q76 47 181 79t214 32q215 0 308.5 -95t88.5 -294v-338q0 -54 14.5 -68.5t69.5 -17.5l-18 -182q-241 -27 -299 129h-8q-116 -140 -267 -140q-126 0 -209 77t-83 190zM188 1300q0 100 75 168 t198 68t196.5 -67.5t75.5 -168.5q0 -99 -74.5 -165t-197.5 -66t-198 66t-75 165zM303 268q0 -55 38.5 -89t102.5 -34q106 0 181 82v217q-177 -22 -249.5 -61.5t-72.5 -114.5zM305 1303q0 -60 43 -100t113 -40q72 0 114.5 40t42.5 100t-42.5 99.5t-114.5 39.5 q-71 0 -113.5 -39.5t-42.5 -99.5z" />
<glyph unicode="&#xe6;" horiz-adv-x="1576" d="M66 236q0 319 575 335v19q0 100 -50 142t-155 42q-138 0 -313 -100l-49 190q76 47 181 79t216 32q239 0 328 -129q123 129 321 129q182 0 281.5 -105t99.5 -278q0 -90 -20 -158l-617 -8v-6q6 -117 81 -187.5t200 -70.5q75 0 153.5 23t141.5 63l30 -201q-143 -78 -342 -78 q-134 0 -240.5 52t-170.5 143q-145 -195 -359 -195q-126 0 -209 77t-83 190zM303 268q0 -55 40 -89t108 -34q58 0 119.5 31.5t99.5 81.5q-10 27 -18.5 87t-10.5 99q-181 -15 -259.5 -57t-78.5 -119zM868 567l406 2v17q0 98 -44 152.5t-134 54.5q-95 0 -156.5 -66.5 t-71.5 -159.5z" />
<glyph unicode="&#xe7;" horiz-adv-x="964" d="M74 469q0 229 136.5 367.5t360.5 138.5q191 0 326 -80l-51 -195q-121 76 -256 76q-128 0 -198 -81t-70 -220q0 -143 73 -224t195 -81q145 0 262 74l39 -197q-109 -64 -270 -76q-72 -69 -101 -92q116 -3 186 -52t70 -134q0 -204 -370 -250l-15 125q227 14 227 110 q0 107 -241 78l-19 97l127 120q-195 23 -303 153.5t-108 342.5z" />
<glyph unicode="&#xe8;" horiz-adv-x="1021" d="M74 463q0 229 136.5 370.5t350.5 141.5q185 0 287 -103.5t102 -279.5q0 -90 -20 -158l-619 -8v-6q8 -117 83.5 -187.5t199.5 -70.5q155 0 295 86l31 -201q-143 -78 -342 -78q-228 0 -366 134.5t-138 359.5zM154 1446h272l211 -375h-162zM317 567l406 2v17 q0 98 -44.5 152.5t-135.5 54.5q-95 0 -155.5 -66t-70.5 -160z" />
<glyph unicode="&#xe9;" horiz-adv-x="1021" d="M74 463q0 229 136.5 370.5t350.5 141.5q185 0 287 -103.5t102 -279.5q0 -90 -20 -158l-619 -8v-6q8 -117 83.5 -187.5t199.5 -70.5q155 0 295 86l31 -201q-143 -78 -342 -78q-228 0 -366 134.5t-138 359.5zM317 567l406 2v17q0 98 -44.5 152.5t-135.5 54.5 q-95 0 -155.5 -66t-70.5 -160zM428 1071l209 375h272l-321 -375h-160z" />
<glyph unicode="&#xea;" horiz-adv-x="1021" d="M74 463q0 229 136.5 370.5t350.5 141.5q185 0 287 -103.5t102 -279.5q0 -90 -20 -158l-619 -8v-6q8 -117 83.5 -187.5t199.5 -70.5q155 0 295 86l31 -201q-143 -78 -342 -78q-228 0 -366 134.5t-138 359.5zM152 1071l239 383h234l239 -383h-170l-184 242h-4l-182 -242 h-172zM317 567l406 2v17q0 98 -44.5 152.5t-135.5 54.5q-95 0 -155.5 -66t-70.5 -160z" />
<glyph unicode="&#xeb;" horiz-adv-x="1021" d="M74 463q0 229 136.5 370.5t350.5 141.5q185 0 287 -103.5t102 -279.5q0 -90 -20 -158l-619 -8v-6q8 -117 83.5 -187.5t199.5 -70.5q155 0 295 86l31 -201q-143 -78 -342 -78q-228 0 -366 134.5t-138 359.5zM152 1219q0 63 40 102t103 39q64 0 103.5 -39t39.5 -102 q0 -65 -39.5 -105.5t-103.5 -40.5q-63 0 -103 41t-40 105zM317 567l406 2v17q0 98 -44.5 152.5t-135.5 54.5q-95 0 -155.5 -66t-70.5 -160zM600 1219q0 63 39.5 102t103.5 39t104 -39t40 -102q0 -65 -40 -105.5t-104 -40.5t-103.5 40.5t-39.5 105.5z" />
<glyph unicode="&#xec;" horiz-adv-x="499" d="M-125 1446h272l211 -375h-161zM135 0v934l242 27v-961h-242z" />
<glyph unicode="&#xed;" horiz-adv-x="499" d="M135 0v934l242 27v-961h-242zM154 1071l208 375h273l-322 -375h-159z" />
<glyph unicode="&#xee;" horiz-adv-x="499" d="M-98 1071l239 383h234l239 -383h-170l-184 242h-4l-182 -242h-172zM135 0v934l242 27v-961h-242z" />
<glyph unicode="&#xef;" horiz-adv-x="499" d="M-111 1219q0 63 40.5 102t103.5 39q64 0 103.5 -39t39.5 -102q0 -65 -39.5 -105.5t-103.5 -40.5q-63 0 -103.5 41t-40.5 105zM135 0v934l242 27v-961h-242zM338 1219q0 63 39.5 102t103.5 39t104 -39t40 -102q0 -65 -40 -105.5t-104 -40.5t-103.5 40.5t-39.5 105.5z" />
<glyph unicode="&#xf0;" horiz-adv-x="1134" d="M76 438q0 111 38 203t98.5 148.5t131.5 87t143 30.5q159 0 263 -112l4 2q-29 64 -99 152t-149 167l-230 -61l-36 141l147 39q-95 84 -158 133l271 55q83 -66 137 -120l231 61l35 -139l-151 -39q307 -343 307 -666q0 -156 -57 -279.5t-171.5 -197.5t-269.5 -74 q-215 0 -350 131t-135 338zM326 453q0 -134 68.5 -208.5t176.5 -74.5q107 0 174.5 78.5t67.5 216.5q0 81 -33 174q-26 37 -89 60.5t-138 23.5q-97 0 -162 -73.5t-65 -196.5z" />
<glyph unicode="&#xf1;" horiz-adv-x="1107" d="M129 0v940l242 33v-150q65 71 146 111.5t165 40.5q142 0 222.5 -86.5t80.5 -239.5v-649h-242v575q0 102 -39.5 144.5t-123.5 42.5q-59 0 -114.5 -25.5t-94.5 -62.5v-674h-242zM184 1092q17 155 68 220.5t145 65.5q54 0 117.5 -33t115 -65.5t79.5 -32.5q56 0 69 117h1h1h1 h1h1h1h1h1h1h1h1h1h1h1h1h1h1h1h1h1h1h1h1h1h1h1h1h1h1h1h2h1h1h1h1h2h1h1h1h2h1h1h2h1h1h2h1h1h2h1h2h1h2h1h2h1h2h1h2h1h2h1h2h2h1h2h2h1h2h2h1h2h2h1h2h2h2h1h2h2h2h2h2h1h2h2h2h2h2h2h2h2h2h2h2h2h2h2h3h9q-17 -154 -67 -219.5t-144 -65.5q-55 0 -118 32.5t-115 64.5 t-80 32q-27 0 -44 -26t-26 -90h-1h-1h-1h-1h-1h-1h-1h-1h-1h-1h-1h-1h-1h-1h-1h-1h-1h-1h-1h-1h-1h-1h-1h-1h-1h-1h-1h-1h-2h-1h-1h-1h-1h-2h-1h-1h-1h-2h-1h-1h-1h-2h-1h-2h-1h-1h-2h-1h-2h-1h-2h-1h-1h-2h-1h-2h-2h-1h-2h-1h-2h-1h-2h-2h-1h-2h-2h-1h-2h-2h-2h-1h-2h-2h-2 h-1h-2h-2h-2h-2h-2h-1h-2h-2h-2h-2h-2h-2h-2h-2h-2h-2h-2h-3h-2h-2h-2h-3h-8z" />
<glyph unicode="&#xf2;" d="M74 471q0 229 138 367.5t351 138.5q212 0 344.5 -137t132.5 -367q0 -227 -139 -365.5t-350 -138.5t-344 135.5t-133 366.5zM211 1446h272l211 -375h-162zM311 473q0 -138 66 -222.5t182 -84.5q115 0 178.5 83t63.5 222t-65.5 225t-180.5 86q-116 0 -180 -84.5t-64 -224.5 z" />
<glyph unicode="&#xf3;" d="M74 471q0 229 138 367.5t351 138.5q212 0 344.5 -137t132.5 -367q0 -227 -139 -365.5t-350 -138.5t-344 135.5t-133 366.5zM311 473q0 -138 66 -222.5t182 -84.5q115 0 178.5 83t63.5 222t-65.5 225t-180.5 86q-116 0 -180 -84.5t-64 -224.5zM434 1071l209 375h272 l-321 -375h-160z" />
<glyph unicode="&#xf4;" d="M74 471q0 229 138 367.5t351 138.5q212 0 344.5 -137t132.5 -367q0 -227 -139 -365.5t-350 -138.5t-344 135.5t-133 366.5zM207 1071l239 383h234l240 -383h-170l-185 242h-4l-182 -242h-172zM311 473q0 -138 66 -222.5t182 -84.5q115 0 178.5 83t63.5 222t-65.5 225 t-180.5 86q-116 0 -180 -84.5t-64 -224.5z" />
<glyph unicode="&#xf5;" d="M74 471q0 229 138 367.5t351 138.5q212 0 344.5 -137t132.5 -367q0 -227 -139 -365.5t-350 -138.5t-344 135.5t-133 366.5zM190 1092q17 155 68 220.5t145 65.5q54 0 117.5 -33t115 -65.5t79.5 -32.5q56 0 69 117h1h1h1h1h1h1h1h1h1h1h1h1h1h1h1h1h1h1h1h1h1h1h1h1h1h1h1 h1h1h1h2h1h1h1h1h2h1h1h1h2h1h1h2h1h1h2h1h1h2h1h2h1h2h1h2h1h2h1h2h1h2h1h2h2h1h2h2h1h2h2h1h2h2h1h2h2h2h1h2h2h2h2h2h1h2h2h2h2h2h2h2h2h2h2h2h2h2h2h3h9q-17 -154 -67 -219.5t-144 -65.5q-55 0 -118 32.5t-115 64.5t-80 32q-27 0 -44 -26t-26 -90h-1h-1h-1h-1h-1h-1h-1 h-1h-1h-1h-1h-1h-1h-1h-1h-1h-1h-1h-1h-1h-1h-1h-1h-1h-1h-1h-1h-1h-2h-1h-1h-1h-1h-2h-1h-1h-1h-2h-1h-1h-1h-2h-1h-2h-1h-1h-2h-1h-2h-1h-2h-1h-1h-2h-1h-2h-2h-1h-2h-1h-2h-1h-2h-2h-1h-2h-2h-1h-2h-2h-2h-1h-2h-2h-2h-1h-2h-2h-2h-2h-2h-1h-2h-2h-2h-2h-2h-2h-2h-2h-2 h-2h-2h-3h-2h-2h-2h-3h-8zM311 473q0 -138 66 -222.5t182 -84.5q115 0 178.5 83t63.5 222t-65.5 225t-180.5 86q-116 0 -180 -84.5t-64 -224.5z" />
<glyph unicode="&#xf6;" d="M74 471q0 229 138 367.5t351 138.5q212 0 344.5 -137t132.5 -367q0 -227 -139 -365.5t-350 -138.5t-344 135.5t-133 366.5zM195 1219q0 63 40 102t103 39q64 0 103.5 -39t39.5 -102q0 -65 -39.5 -105.5t-103.5 -40.5q-63 0 -103 41t-40 105zM311 473q0 -138 66 -222.5 t182 -84.5q115 0 178.5 83t63.5 222t-65.5 225t-180.5 86q-116 0 -180 -84.5t-64 -224.5zM643 1219q0 63 39.5 102t103.5 39t104 -39t40 -102q0 -65 -40 -105.5t-104 -40.5t-103.5 40.5t-39.5 105.5z" />
<glyph unicode="&#xf7;" horiz-adv-x="1034" d="M76 389l6 193h872l7 -193h-885zM369 139q0 63 43 104.5t110 41.5q66 0 108 -41.5t42 -104.5q0 -62 -42.5 -104.5t-107.5 -42.5q-67 0 -110 42.5t-43 104.5zM369 829q0 64 42 107t107 43q67 0 110.5 -43t43.5 -107q0 -62 -43.5 -103.5t-110.5 -41.5q-65 0 -107 41.5 t-42 103.5z" />
<glyph unicode="&#xf8;" d="M80 473q0 227 137.5 365.5t351.5 138.5q113 0 197 -37l80 137h143l-117 -198q83 -67 129 -171t46 -235q0 -228 -137.5 -366t-350.5 -138q-105 0 -192 35l-84 -141h-142q8 13 20 34t38 65.5t43 74t16 29.5q-85 66 -131.5 170t-46.5 237zM315 477q0 -132 58 -223l299 516 q-52 27 -111 27q-118 0 -182 -87t-64 -233zM463 174q55 -20 106 -20q116 0 180 86t64 231q0 128 -55 219z" />
<glyph unicode="&#xf9;" horiz-adv-x="1099" d="M121 295v649h241v-575q0 -100 40 -142.5t120 -42.5q61 0 115.5 23.5t91.5 58.5v678h242v-938l-242 -33v140q-61 -66 -142 -105t-169 -39q-138 0 -217.5 87t-79.5 239zM176 1446h273l210 -375h-161z" />
<glyph unicode="&#xfa;" horiz-adv-x="1099" d="M121 295v649h241v-575q0 -100 40 -142.5t120 -42.5q61 0 115.5 23.5t91.5 58.5v678h242v-938l-242 -33v140q-61 -66 -142 -105t-169 -39q-138 0 -217.5 87t-79.5 239zM449 1071l208 375h273l-322 -375h-159z" />
<glyph unicode="&#xfb;" horiz-adv-x="1099" d="M121 295v649h241v-575q0 -100 40 -142.5t120 -42.5q61 0 115.5 23.5t91.5 58.5v678h242v-938l-242 -33v140q-61 -66 -142 -105t-169 -39q-138 0 -217.5 87t-79.5 239zM197 1071l239 383h234l239 -383h-170l-184 242h-4l-182 -242h-172z" />
<glyph unicode="&#xfc;" horiz-adv-x="1099" d="M121 295v649h241v-575q0 -100 40 -142.5t120 -42.5q61 0 115.5 23.5t91.5 58.5v678h242v-938l-242 -33v140q-61 -66 -142 -105t-169 -39q-138 0 -217.5 87t-79.5 239zM180 1219q0 63 40.5 102t103.5 39q64 0 103.5 -39t39.5 -102q0 -65 -39.5 -105.5t-103.5 -40.5 q-63 0 -103.5 41t-40.5 105zM629 1219q0 63 39.5 102t103.5 39t103.5 -39t39.5 -102q0 -65 -39.5 -105.5t-103.5 -40.5t-103.5 40.5t-39.5 105.5z" />
<glyph unicode="&#xfd;" horiz-adv-x="970" d="M-55 -410l71 199q92 -45 150 -45q54 0 87.5 32.5t70.5 127.5l41 108l-369 932h260l236 -676l225 676h258l-361 -926l-55 -147q-69 -188 -154.5 -262t-220.5 -74q-120 0 -239 55zM387 1071l209 375h272l-321 -375h-160z" />
<glyph unicode="&#xfe;" horiz-adv-x="1116" d="M129 -469v1837l242 33v-541q132 115 258 115q190 0 305 -137t115 -357q0 -223 -137 -366.5t-341 -143.5q-111 0 -200 27v-467h-242zM371 217q68 -53 178 -53q119 0 186.5 85.5t67.5 221.5q0 139 -63 220t-175 81q-106 0 -194 -78v-1v-1v-1v-1v-1v-1v-1v-1v-1v-1v-1v-1v-1 v-1v-1v-1v-1v-1v-1v-1v-1v-1v-1v-1v-1v-1v-1v-1v-1v-1v-1v-1v-1v-1v-1v-1v-1v-1v-1v-1v-1v-1v-1v-1v-1v-1v-1v-1v-1v-1v-1v-1v-1v-1v-1v-1v-1v-1v-1v-1v-1v-1v-1v-1v-1v-1v-1v-1v-1v-1v-1v-1v-1v-1v-1v-1v-1v-1v-1v-1v-2v-1v-1v-1v-1v-1v-1v-1v-1v-1v-1v-1v-1v-1v-1v-2v-1 v-1v-1v-1v-1v-1v-1v-2v-1v-1v-1v-1v-1v-1v-2v-1v-1v-1v-1v-1v-2v-1v-1v-1v-1v-2v-1v-1v-1v-2v-1v-1v-1v-2v-1v-1v-1v-2v-1v-1v-1v-2v-1v-1v-1v-2v-1v-1v-2v-1v-1v-2v-1v-1v-1v-2v-1v-1v-2v-1v-1v-2v-1v-2v-1v-1v-2v-1v-1v-2v-1v-2v-1v-1v-2v-1v-1v-2v-1v-2v-1v-2v-1v-1v-2 v-1v-2v-1v-2v-1v-1v-2v-1v-2v-1v-2v-1v-2v-1v-2v-1v-1v-2v-1v-2v-1v-2v-1v-2v-1v-2v-1v-2v-1v-2v-2v-1v-2v-1v-2v-1v-2v-1v-2v-1v-2v-2v-1v-2v-1v-2v-1v-2v-1v-2v-2v-1v-2v-1v-2v-2v-1v-2v-1v-2v-2v-1v-2v-2v-1v-2v-1v-2v-2v-1v-2v-2v-1v-2v-2v-1v-2v-2v-1v-2v-2v-1v-2v-2 v-1v-2v-2v-1v-2v-2v-1v-2v-2v-2v-1v-2v-2v-1v-2v-2v-2v-1v-2v-2v-1v-2v-2v-2v-1v-2v-2v-2v-2v-1v-2v-2v-2v-1v-2v-2v-2v-2v-1v-2v-2v-2v-1v-2v-2v-2v-2v-2v-1v-2v-2v-2v-2v-2v-1v-2v-2v-2v-2v-2v-1v-2v-2v-2v-2v-2v-2v-2v-1v-2v-2v-2v-2v-2v-8z" />
<glyph unicode="&#xff;" horiz-adv-x="970" d="M-55 -410l71 199q92 -45 150 -45q54 0 87.5 32.5t70.5 127.5l41 108l-369 932h260l236 -676l225 676h258l-361 -926l-55 -147q-69 -188 -154.5 -262t-220.5 -74q-120 0 -239 55zM119 1225q0 63 40 102t103 39q64 0 104 -39t40 -102q0 -65 -40 -105.5t-104 -40.5 q-63 0 -103 41t-40 105zM567 1225q0 63 40 102t104 39t103.5 -39t39.5 -102q0 -65 -39.5 -105.5t-103.5 -40.5t-104 40.5t-40 105.5z" />
<glyph unicode="&#x152;" horiz-adv-x="1925" d="M90 631q0 301 182.5 475t518.5 174h1052v-211h-624v-321h518v-211h-518v-326h624v-211h-1061q-324 0 -508 171t-184 460zM342 643q0 -215 116 -323.5t339 -108.5h172v858h-185q-207 0 -324.5 -108.5t-117.5 -317.5z" />
<glyph unicode="&#x153;" horiz-adv-x="1734" d="M74 471q0 229 138 367.5t351 138.5q230 0 352 -170q63 80 156.5 124t202.5 44q185 0 287 -103.5t102 -279.5q0 -86 -21 -158l-618 -8v-6q6 -117 82 -187.5t199 -70.5q158 0 294 86l31 -201q-143 -78 -342 -78q-241 0 -379 170q-128 -170 -358 -170q-211 0 -344 135.5 t-133 366.5zM311 473q0 -138 66 -222.5t182 -84.5q115 0 178.5 83t63.5 222t-65.5 225t-180.5 86q-116 0 -180 -84.5t-64 -224.5zM1030 567l404 2q2 4 2 17q0 98 -45.5 152.5t-135.5 54.5q-95 0 -155 -66t-70 -160z" />
<glyph unicode="&#x178;" horiz-adv-x="1179" d="M20 1280h271l303 -553l297 553h268l-444 -784v-496h-248v498zM223 1540q0 63 40.5 102t103.5 39q64 0 103.5 -39t39.5 -102q0 -65 -39.5 -105t-103.5 -40q-63 0 -103.5 40.5t-40.5 104.5zM672 1540q0 63 39.5 102t103.5 39t103.5 -39t39.5 -102q0 -65 -39.5 -105 t-103.5 -40t-103.5 40t-39.5 105z" />
<glyph unicode="&#x2c6;" horiz-adv-x="811" d="M53 1071l240 383h233l240 -383h-170l-184 242h-4l-183 -242h-172z" />
<glyph unicode="&#x2dc;" horiz-adv-x="808" d="M35 1092q17 155 68 220.5t145 65.5q43 0 92 -20.5t85 -45t73.5 -45t60.5 -20.5q57 0 70 117h1h1h1h1h1h1h1h1h1h1h1h1h1h1h1h1h1h1h1h1h1h1h1h1h1h1h1h1h1h2h1h1h1h1h2h1h1h1h2h1h1h2h1h1h2h1h1h2h1h2h1h2h1h1h2h1h2h2h1h2h1h2h1h2h2h1h2h2h1h2h2h1h2h2h2h1h2h2h2h2h1h2 h2h2h2h2h2h2h2h2h2h2h2h2h2h2h2h2h10q-17 -154 -67 -219.5t-144 -65.5q-55 0 -118 32.5t-115 64.5t-80 32q-27 0 -44 -26t-26 -90h-1h-1h-1h-1h-1h-1h-1h-1h-1h-1h-1h-1h-1h-1h-1h-1h-1h-1h-1h-1h-1h-1h-1h-1h-1h-1h-1h-2h-1h-1h-1h-1h-1h-2h-1h-1h-1h-2h-1h-1h-2h-1h-1h-2 h-1h-2h-1h-1h-2h-1h-2h-1h-2h-1h-2h-1h-2h-1h-2h-2h-1h-2h-1h-2h-2h-1h-2h-2h-2h-1h-2h-2h-1h-2h-2h-2h-2h-2h-1h-2h-2h-2h-2h-2h-2h-2h-2h-2h-2h-2h-2h-2h-2h-2h-3h-2h-2h-9z" />
<glyph unicode="&#x2000;" horiz-adv-x="884" />
<glyph unicode="&#x2001;" horiz-adv-x="1769" />
<glyph unicode="&#x2002;" horiz-adv-x="884" />
<glyph unicode="&#x2003;" horiz-adv-x="1769" />
<glyph unicode="&#x2004;" horiz-adv-x="589" />
<glyph unicode="&#x2005;" horiz-adv-x="442" />
<glyph unicode="&#x2006;" horiz-adv-x="294" />
<glyph unicode="&#x2007;" horiz-adv-x="294" />
<glyph unicode="&#x2008;" horiz-adv-x="221" />
<glyph unicode="&#x2009;" horiz-adv-x="353" />
<glyph unicode="&#x200a;" horiz-adv-x="98" />
<glyph unicode="&#x2010;" horiz-adv-x="698" d="M61 393v207h578v-207h-578z" />
<glyph unicode="&#x2011;" horiz-adv-x="698" d="M61 393v207h578v-207h-578z" />
<glyph unicode="&#x2012;" horiz-adv-x="698" d="M61 393v207h578v-207h-578z" />
<glyph unicode="&#x2013;" horiz-adv-x="1009" d="M57 397l6 183h889l6 -183h-901z" />
<glyph unicode="&#x2014;" horiz-adv-x="1972" d="M57 397l6 183h1852l6 -183h-1864z" />
<glyph unicode="&#x2018;" horiz-adv-x="503" d="M47 944q0 218 326 410l104 -97q-205 -145 -205 -237q0 -40 36 -72.5t128 -73.5q-8 -67 -56 -110t-122 -43q-86 0 -148.5 65.5t-62.5 157.5z" />
<glyph unicode="&#x2019;" horiz-adv-x="503" d="M25 831q206 144 206 238q0 40 -35.5 72t-129.5 73q8 67 57 110.5t123 43.5q86 0 147.5 -65.5t61.5 -157.5q0 -65 -26.5 -125.5t-75 -111.5t-101.5 -91.5t-121 -81.5z" />
<glyph unicode="&#x201a;" horiz-adv-x="503" d="M25 -225q102 71 154 129t52 108q0 41 -36 73.5t-129 72.5q8 67 57 110t123 43q86 0 147.5 -65.5t61.5 -157.5q0 -65 -26.5 -125.5t-75 -111.5t-101.5 -91.5t-121 -81.5z" />
<glyph unicode="&#x201c;" horiz-adv-x="997" d="M47 944q0 218 326 410l104 -97q-205 -145 -205 -237q0 -40 36 -72.5t128 -73.5q-8 -67 -56 -110t-122 -43q-86 0 -148.5 65.5t-62.5 157.5zM541 944q0 218 325 410l105 -97q-205 -145 -205 -237q0 -40 36 -72.5t128 -73.5q-8 -67 -56 -110t-122 -43q-86 0 -148.5 65.5 t-62.5 157.5z" />
<glyph unicode="&#x201d;" horiz-adv-x="997" d="M25 831q206 144 206 238q0 40 -35.5 72t-129.5 73q8 67 57 110.5t123 43.5q86 0 147.5 -65.5t61.5 -157.5q0 -65 -26.5 -125.5t-75 -111.5t-101.5 -91.5t-121 -81.5zM518 831q207 144 207 238q0 40 -36 72t-130 73q8 67 57 110.5t123 43.5q86 0 147.5 -65.5t61.5 -157.5 q0 -65 -26.5 -125.5t-74.5 -111.5t-101 -92t-121 -81z" />
<glyph unicode="&#x201e;" horiz-adv-x="976" d="M25 -225q102 71 154 129t52 108q0 41 -36 73.5t-129 72.5q8 67 57 110t123 43q86 0 147.5 -65.5t61.5 -157.5q0 -65 -26.5 -125.5t-75 -111.5t-101.5 -91.5t-121 -81.5zM518 -225q207 144 207 237q0 40 -36 72.5t-130 73.5q8 67 57 110t123 43q86 0 147.5 -65.5 t61.5 -157.5q0 -65 -26.5 -125.5t-74.5 -111.5t-101 -92t-121 -81z" />
<glyph unicode="&#x2022;" horiz-adv-x="909" d="M59 475q0 44 43 146t74 133t133.5 72.5t145.5 41.5q44 0 145.5 -41.5t132.5 -72.5t73 -133t42 -146q0 -45 -41.5 -146.5t-73.5 -133.5q-31 -31 -133.5 -73t-146.5 -42q-43 0 -145.5 42.5t-131.5 72.5q-31 33 -74 134.5t-43 145.5z" />
<glyph unicode="&#x2026;" horiz-adv-x="1531" d="M98 127q0 66 45.5 110t114.5 44q66 0 111 -44t45 -110q0 -67 -45 -112.5t-111 -45.5q-69 0 -114.5 45t-45.5 113zM610 127q0 66 46 110t114 44t113 -44t45 -110q0 -67 -45 -112.5t-113 -45.5t-114 45.5t-46 112.5zM1122 127q0 65 46.5 109.5t113.5 44.5q69 0 114.5 -44 t45.5 -110q0 -68 -45.5 -113t-114.5 -45q-67 0 -113.5 45.5t-46.5 112.5z" />
<glyph unicode="&#x202f;" horiz-adv-x="353" />
<glyph unicode="&#x2039;" horiz-adv-x="722" d="M57 367v223l551 330l35 -162l-375 -277v-4l375 -278l-35 -162z" />
<glyph unicode="&#x203a;" horiz-adv-x="722" d="M78 199l375 278v4l-375 277l37 162l551 -330v-223l-551 -330z" />
<glyph unicode="&#x205f;" horiz-adv-x="442" />
<glyph unicode="&#x20ac;" horiz-adv-x="1077" d="M57 416l6 127h148q-2 29 -2 92q0 71 2 106h-1h-1h-1h-1h-1h-1h-1h-1h-1h-1h-1h-1h-1h-1h-1h-1h-1h-1h-1h-1h-1h-1h-1h-1h-1h-1h-1h-1h-1h-1h-2h-1h-1h-1h-1h-1h-2h-1h-1h-1h-1h-2h-1h-1h-2h-1h-1h-2h-1h-1h-2h-1h-1h-2h-1h-2h-1h-1h-2h-1h-2h-1h-2h-1h-2h-1h-2h-1h-2h-1 h-2h-2h-1h-2h-1h-2h-2h-1h-2h-2h-1h-2h-2h-1h-2h-2h-1h-2h-2h-1h-2h-2h-2h-1h-2h-2h-2h-2h-1h-2h-2h-2h-9l-6 127h170q44 229 174 339t318 110q203 0 334 -78l-49 -192q-120 71 -267 71q-207 0 -264 -250h436l-6 -127h-448q-2 -27 -2 -92q0 -57 6 -106h383l6 -127h-367 q61 -248 260 -248q151 0 269 72l37 -195q-129 -76 -334 -76q-97 0 -175 24t-142.5 75.5t-108.5 139t-64 208.5h-166z" />
<glyph unicode="&#x2122;" horiz-adv-x="1978" d="M82 1128v154h733v-154h-295v-612h-168v612h-270zM911 516l13 766h293l131 -561h24l158 561h278l9 -766h-166l6 596h-25l-190 -573h-185l-163 573h-23l-8 -596h-152z" />
<glyph unicode="&#x25fc;" horiz-adv-x="942" d="M0 0v942h942v-942h-942z" />
</font>
</defs>
</svg>
