<?xml version="1.0" standalone="no"?>
<!DOCTYPE svg PUBLIC "-//W3C//DTD SVG 1.1//EN" "http://www.w3.org/Graphics/SVG/1.1/DTD/svg11.dtd" >
<svg xmlns="http://www.w3.org/2000/svg">
<metadata></metadata>
<defs>
<font id="freightsans_prolight_italic" horiz-adv-x="1417" >
<font-face units-per-em="2048" ascent="1638" descent="-410" />
<missing-glyph horiz-adv-x="466" />
<glyph unicode="&#xfb01;" horiz-adv-x="964" d="M76 0l166 854l-127 8l6 51l133 17l43 200q64 295 285 295q110 0 184 -59l-35 -72q-75 54 -156 54q-146 0 -194 -222l-41 -198h276l7 -74h-297l-166 -854h-84zM633 0l180 932l88 26l-184 -958h-84zM836 1227q0 32 19.5 55t53.5 23t57 -23t23 -55q0 -33 -22 -57.5 t-56 -24.5t-54.5 24t-20.5 58z" />
<glyph unicode="&#xfb02;" horiz-adv-x="952" d="M76 0l166 854l-127 8l6 51l133 17l43 200q64 295 285 295q110 0 184 -59l-35 -72q-75 54 -156 54q-146 0 -194 -222l-41 -198h276l7 -74h-297l-166 -854h-84zM629 0l268 1380l90 27l-274 -1407h-84z" />
<glyph unicode="&#xfb03;" horiz-adv-x="1531" d="M76 0l166 854l-127 8l6 51l133 17l39 180q64 295 285 295q110 0 184 -59l-35 -72q-74 53 -156 53q-147 0 -194 -221l-37 -178h481l43 202q64 295 285 295q110 0 184 -59l-35 -72q-75 54 -155 54q-147 0 -195 -222l-41 -198h277l6 -74h-297l-166 -854h-84l166 854h-483 l-166 -854h-84zM1200 0l180 932l88 26l-184 -958h-84zM1403 1227q0 32 20 55t54 23t56.5 -23t22.5 -55q0 -34 -21.5 -58t-55.5 -24t-55 24t-21 58z" />
<glyph unicode="&#xfb04;" horiz-adv-x="1519" d="M76 0l166 854l-127 8l6 51l133 17l39 180q64 295 285 295q110 0 184 -59l-35 -72q-74 53 -156 53q-147 0 -194 -221l-37 -178h481l43 202q64 295 285 295q110 0 184 -59l-35 -72q-75 54 -155 54q-147 0 -195 -222l-41 -198h277l-6 -74h-285l-166 -854h-84l166 854h-483 l-166 -854h-84zM1196 0l268 1380l90 27l-274 -1407h-84z" />
<glyph horiz-adv-x="2048" />
<glyph horiz-adv-x="2048" />
<glyph unicode="&#xd;" horiz-adv-x="2048" />
<glyph unicode=" "  horiz-adv-x="466" />
<glyph unicode="&#x09;" horiz-adv-x="466" />
<glyph unicode="&#xa0;" horiz-adv-x="466" />
<glyph unicode="!" horiz-adv-x="497" d="M100 57q0 30 20.5 52t51.5 22q32 0 53 -22t21 -52q0 -31 -21 -54t-53 -23q-31 0 -51.5 22.5t-20.5 54.5zM209 365l158 964l102 -10l-213 -959z" />
<glyph unicode="&#x22;" horiz-adv-x="618" d="M59 815l385 512l88 -45l-399 -467h-74zM360 815l385 512l89 -45l-400 -467h-74z" />
<glyph unicode="#" horiz-adv-x="1159" d="M-25 -152l234 504h-182l2 70h211l161 348h-251l2 70h282l219 475h76l-221 -475h377l219 475h76l-219 -475h180l-2 -70h-211l-162 -348h252l-2 -70h-283l-231 -504h-76l233 504h-378l-232 -504h-74zM313 422h377l162 348h-377z" />
<glyph unicode="$" horiz-adv-x="974" d="M23 121l28 80q117 -93 254 -129l184 557q-53 26 -88.5 45.5t-78.5 51.5t-68.5 63.5t-43 76t-17.5 95.5q0 106 58.5 185t150 116.5t200.5 37.5q51 0 113 -10l67 205h74l-74 -221q123 -38 205 -105l-29 -79q-81 69 -200 108l-174 -522q65 -34 109 -62.5t86.5 -69.5 t63.5 -93t21 -115q0 -162 -120.5 -259t-297.5 -97q-47 0 -96 6l-78 -238h-73l84 252q-150 34 -260 121zM279 967q0 -47 18.5 -86t57 -71.5t74.5 -54.5t93 -50l168 509q-45 11 -98 11q-134 0 -223.5 -71t-89.5 -187zM375 59q37 -6 76 -6q147 0 238 73.5t91 199.5 q0 49 -17.5 90.5t-51.5 74.5t-70.5 57t-87.5 50z" />
<glyph unicode="%" horiz-adv-x="1527" d="M94 -31l1317 1340h92l-1315 -1340h-94zM131 952q0 155 108.5 264t262.5 109q141 0 231 -83t90 -222q0 -155 -107.5 -263t-262.5 -108q-139 0 -230.5 83t-91.5 220zM205 958q0 -107 69.5 -173t178.5 -66q126 0 211.5 85.5t85.5 211.5q0 109 -70 174t-180 65 q-125 0 -210 -85.5t-85 -211.5zM772 250q0 155 108.5 264t262.5 109q140 0 230.5 -83.5t90.5 -222.5q0 -155 -107.5 -262.5t-262.5 -107.5q-139 0 -230.5 83t-91.5 220zM846 256q0 -108 70 -174t178 -66q126 0 211.5 85.5t85.5 211.5q0 109 -70 174.5t-180 65.5 q-125 0 -210 -85.5t-85 -211.5z" />
<glyph unicode="&#x26;" horiz-adv-x="1282" d="M41 315q0 81 34.5 149.5t94 115.5t126.5 78.5t146 52.5q-75 48 -121.5 115.5t-46.5 148.5q0 141 114.5 238.5t256.5 97.5q128 0 215.5 -76t87.5 -199q0 -68 -29 -127t-79 -101t-108 -71t-124 -47q167 -106 279 -305l315 387h105l-383 -438l200 -344l-96 -13l-164 295 q-56 -64 -100.5 -107.5t-106 -90.5t-129.5 -70.5t-141 -23.5q-147 0 -246.5 94.5t-99.5 240.5zM129 322q0 -114 77.5 -191.5t190.5 -77.5q50 0 102.5 18.5t92 42.5t90 67t77.5 70t72 75q-144 247 -335 346q-66 -19 -126 -48t-116.5 -71.5t-90.5 -102t-34 -128.5zM365 981 q0 -80 51.5 -144.5t130.5 -109.5q60 17 110 40t99 58.5t77.5 86.5t28.5 112q0 95 -65 155t-164 60q-107 0 -187.5 -75.5t-80.5 -182.5z" />
<glyph unicode="'" horiz-adv-x="354" d="M59 815l385 512l88 -45l-399 -467h-74z" />
<glyph unicode="(" horiz-adv-x="686" d="M141 479q0 138 35 271t90.5 236t127.5 191t143 146.5t139 93.5l39 -71q-64 -33 -130 -89t-131.5 -138.5t-116.5 -178.5t-82.5 -216.5t-31.5 -244.5q0 -153 47.5 -300t122.5 -256t158 -188t164 -120l-39 -74q-68 35 -139 93.5t-143 146.5t-127.5 191t-90.5 236t-35 271z " />
<glyph unicode=")" horiz-adv-x="686" d="M-29 -385q64 32 130 88t131 138t115.5 177.5t82 216t31.5 244.5t-31.5 244.5t-82 216.5t-115.5 178.5t-131 138.5t-130 89l39 71q68 -35 139 -93.5t143 -146.5t127.5 -191t90.5 -236t35 -271t-35 -271t-90.5 -236t-127.5 -191t-143 -146.5t-139 -93.5z" />
<glyph unicode="*" horiz-adv-x="684" d="M106 866l285 113l2 10l-221 213l64 60l192 -248l6 2l135 278l78 -41l-176 -258l6 -8l297 -31l-16 -90l-289 84l-8 -6l67 -305l-88 -8l-20 309l-6 4l-271 -158z" />
<glyph unicode="+" horiz-adv-x="999" d="M86 444l6 74h369v385h82v-385h366l6 -74h-372v-389h-82v389h-375z" />
<glyph unicode="," horiz-adv-x="313" d="M-119 -252q197 109 197 229q0 55 -92 91q6 28 33 49.5t59 21.5q42 0 72 -36.5t30 -84.5q0 -89 -78 -172.5t-190 -134.5z" />
<glyph unicode="-" horiz-adv-x="561" d="M74 459v78h420v-78h-420z" />
<glyph unicode="." horiz-adv-x="313" d="M8 57q0 30 20.5 52t51.5 22q32 0 53 -22t21 -52q0 -31 -21 -54t-53 -23q-31 0 -51.5 22.5t-20.5 54.5z" />
<glyph unicode="/" horiz-adv-x="403" d="M-233 -408l856 1846h77l-858 -1846h-75z" />
<glyph unicode="0" horiz-adv-x="1185" d="M96 432q0 147 73.5 275t199.5 204t274 76q194 0 324.5 -131t130.5 -326q0 -148 -74 -275t-200.5 -201t-274.5 -74q-192 0 -322.5 129.5t-130.5 322.5zM180 434q0 -166 106.5 -271.5t272.5 -105.5q127 0 232 64.5t164 173t59 235.5q0 167 -107.5 273t-273.5 106 q-127 0 -231.5 -65t-163 -174t-58.5 -236z" />
<glyph unicode="1" horiz-adv-x="630" d="M164 840l8 75l348 72l-192 -987h-82l176 893z" />
<glyph unicode="2" horiz-adv-x="864" d="M-2 0l18 96q38 24 112 70q73 45 108.5 67t97.5 62.5t93.5 63t79.5 58.5t72 60t54.5 57t44.5 60t24.5 58t10.5 61q0 89 -67 143.5t-161 54.5q-142 0 -290 -90l-15 72q157 94 316 94q129 0 214.5 -70t88.5 -196q1 -36 -10.5 -72.5t-28.5 -69t-50.5 -70t-64 -67.5t-83 -70 t-92.5 -69t-108.5 -73t-115 -72.5t-125.5 -77.5h598l-17 -80h-704z" />
<glyph unicode="3" horiz-adv-x="821" d="M-92 -252l39 72q65 -50 147.5 -78.5t163.5 -28.5q145 0 248.5 89t103.5 231q0 68 -30 120t-80 81t-107.5 43t-120.5 14q-48 0 -98 -6l12 65q63 9 125 24.5t134 45t125.5 67t89.5 95.5t36 127q0 100 -75.5 151t-182.5 51q-147 0 -301 -96l-24 70q72 45 163.5 73.5 t174.5 28.5q87 0 160 -28t122 -90.5t49 -149.5q0 -76 -33 -141t-89.5 -110.5t-121.5 -77t-137 -50.5q130 -11 212.5 -95t82.5 -212q0 -116 -62.5 -208t-160.5 -139.5t-211 -47.5q-93 0 -190 30t-164 80z" />
<glyph unicode="4" horiz-adv-x="978" d="M-45 115l846 884h80l-176 -882h194l-10 -74h-199l-84 -420h-84l84 420h-639zM61 117h562l153 753z" />
<glyph unicode="5" horiz-adv-x="837" d="M-100 -262l26 78q153 -113 312 -113q161 0 272 105.5t111 271.5q0 130 -88 208.5t-230 78.5q-101 0 -199 -25l-28 43l192 584h576l-10 -80h-512l-154 -465q63 14 137 14q81 0 152.5 -22.5t127 -65.5t88 -111t32.5 -153q0 -201 -134.5 -329t-334.5 -128q-87 0 -177 29 t-159 80z" />
<glyph unicode="6" horiz-adv-x="993" d="M86 395q0 170 72.5 324t195 267.5t285 188.5t340.5 97l8 -82q-166 -21 -318 -90t-277.5 -191t-186.5 -278l2 -2q197 131 371 131q142 0 236.5 -92t94.5 -234q0 -191 -124.5 -321.5t-313.5 -130.5q-177 0 -281 115.5t-104 297.5zM170 395q0 -146 85.5 -242t219.5 -96 q151 0 248.5 106t97.5 259q0 122 -75 192t-197 70q-177 0 -359 -133q-20 -85 -20 -156z" />
<glyph unicode="7" horiz-adv-x="862" d="M-76 -377l883 1264h-684l22 82h758v-66l-887 -1280h-92z" />
<glyph unicode="8" horiz-adv-x="968" d="M59 289q0 80 30 146t82.5 110.5t117 73.5t139.5 43q-221 117 -221 305q0 135 116.5 233t278.5 98q157 0 255.5 -86t98.5 -223q0 -135 -93.5 -225t-244.5 -131q234 -124 234 -318q0 -138 -118.5 -234.5t-287.5 -96.5t-278 86t-109 219zM147 299q0 -114 82.5 -179 t225.5 -65q135 0 224 74t89 184q0 25 -5.5 48.5t-12.5 42.5t-22 39t-26.5 34t-32.5 31.5t-33.5 27.5t-37.5 25.5t-36 22t-37 21t-33 18.5q-70 -16 -127.5 -40.5t-108.5 -62.5t-80 -94.5t-29 -126.5zM291 969q0 -23 5.5 -45.5t13 -40.5t21.5 -37t26 -33t32 -30.5t33 -26.5 t36 -24.5t35 -21.5t35 -20.5t31 -17.5q63 16 116 41t98.5 62t71 90t25.5 116q0 107 -76 176.5t-194 69.5q-130 0 -219.5 -75t-89.5 -183z" />
<glyph unicode="9" horiz-adv-x="993" d="M20 -221q166 21 318 90t278 191t187 278l-2 2q-197 -131 -371 -131q-142 0 -237 92t-95 234q0 191 125 321.5t314 130.5q177 0 281 -116t104 -298q0 -170 -72.5 -324t-195 -267t-285 -188t-340.5 -97zM186 547q0 -122 75.5 -192t197.5 -70q176 0 358 133q21 89 21 155 q0 146 -86 242t-220 96q-151 0 -248.5 -105.5t-97.5 -258.5z" />
<glyph unicode=":" horiz-adv-x="313" d="M8 57q0 30 20.5 52t51.5 22q32 0 53 -22t21 -52q0 -31 -21 -54t-53 -23q-31 0 -51.5 22.5t-20.5 54.5zM133 731q0 30 20.5 52t51.5 22q32 0 53 -22t21 -52q0 -32 -21 -55t-53 -23q-31 0 -51.5 23t-20.5 55z" />
<glyph unicode=";" horiz-adv-x="313" d="M-119 -252q197 109 197 229q0 55 -92 91q6 28 33 49.5t59 21.5q42 0 72 -36.5t30 -84.5q0 -89 -78 -172.5t-190 -134.5zM133 731q0 30 20.5 52t51.5 22q32 0 53 -22t21 -52q0 -32 -21 -55t-53 -23q-31 0 -51.5 23t-20.5 55z" />
<glyph unicode="&#x3c;" horiz-adv-x="894" d="M72 432v98l739 394v-86l-666 -349v-18l666 -348v-84z" />
<glyph unicode="=" horiz-adv-x="876" d="M74 268l6 78h719l6 -78h-731zM74 692h731l-6 -78h-719z" />
<glyph unicode="&#x3e;" horiz-adv-x="894" d="M98 39v84l666 348v18l-666 349v86l740 -394v-98z" />
<glyph unicode="?" horiz-adv-x="700" d="M156 57q0 30 20 52t51 22q32 0 53 -22t21 -52q0 -31 -21 -54t-53 -23q-31 0 -51 22.5t-20 54.5zM180 541q0 75 59.5 125.5t178.5 89.5q119 40 173 90.5t54 142.5q0 111 -78 176.5t-192 65.5q-59 0 -113 -8l14 77q61 9 103 9q160 0 254 -95.5t94 -224.5q0 -64 -21 -114.5 t-61.5 -85t-85.5 -58t-106 -43.5q-108 -36 -152.5 -70.5t-44.5 -87.5q0 -67 104 -157q-57 -15 -59 -15q-121 92 -121 183z" />
<glyph unicode="@" horiz-adv-x="1708" d="M100 496q0 161 61 308t164.5 254.5t249 171.5t306.5 64q147 0 280 -47.5t234 -132t161 -211t60 -276.5q0 -122 -31 -222t-82.5 -163.5t-116 -98t-133.5 -34.5q-85 0 -146 43.5t-83 107.5q-66 -83 -128 -117t-130 -34q-128 0 -207.5 95.5t-79.5 239.5q0 129 58 241.5 t155 178.5t207 66q106 0 213 -80l92 59l-100 -481q-26 -121 17 -187.5t136 -66.5q54 0 105.5 29.5t93.5 84t68 143t26 196.5q0 136 -56 252.5t-149.5 195t-214 122.5t-249.5 44q-117 0 -227 -39t-197.5 -109t-153.5 -162t-101.5 -204t-35.5 -229q0 -189 82.5 -346 t233.5 -249.5t339 -92.5q104 0 250 43l12 -58q-131 -41 -266 -41q-154 0 -288 57.5t-228 157t-147.5 236.5t-53.5 291zM565 444q0 -113 58.5 -188.5t160.5 -75.5q117 0 220 135l92 457q-90 90 -205 90q-130 0 -228 -125.5t-98 -292.5z" />
<glyph unicode="A" horiz-adv-x="1179" d="M-39 0l737 1280h107l233 -1280h-82l-67 379h-621l-213 -379h-94zM313 457h559l-131 745z" />
<glyph unicode="B" horiz-adv-x="1073" d="M78 0l248 1280h317q189 0 290 -87.5t101 -223.5q0 -125 -87 -214t-247 -116q115 -22 186.5 -100.5t71.5 -184.5q0 -73 -29.5 -135.5t-87.5 -112t-155 -78t-223 -28.5h-385zM178 78h295q200 0 298.5 75.5t98.5 202.5q0 104 -89 176t-257 72h-243zM297 678h244 q103 0 192 28t151 93t62 157q0 106 -77.5 176t-243.5 70h-228z" />
<glyph unicode="C" horiz-adv-x="1169" d="M115 532q0 117 29.5 229t89.5 209.5t143 171t197.5 116t246.5 42.5q203 0 389 -83l-16 -82q-78 37 -182 62.5t-195 25.5q-143 0 -262 -59t-195 -156.5t-117.5 -218t-41.5 -248.5q0 -230 130.5 -357t352.5 -127q161 0 309 74l17 -80q-148 -71 -334 -71q-259 0 -410 150.5 t-151 401.5z" />
<glyph unicode="D" horiz-adv-x="1251" d="M78 0l248 1280h241q174 0 310 -64.5t215 -191.5t79 -299q0 -152 -51 -283.5t-146.5 -230t-244 -155t-332.5 -56.5h-319zM180 78h226q143 0 264.5 41t213 119t143.5 201.5t52 279.5q0 227 -141.5 355t-386.5 128h-154z" />
<glyph unicode="E" horiz-adv-x="1003" d="M78 0l250 1280h733l-17 -78h-647l-100 -524h541l-15 -76h-540l-103 -524h647l-16 -78h-733z" />
<glyph unicode="F" horiz-adv-x="950" d="M78 0l248 1280h714l-14 -80h-629l-104 -541h522l-16 -75h-523l-112 -584h-86z" />
<glyph unicode="G" horiz-adv-x="1239" d="M115 532q0 117 29.5 229t89.5 209.5t143 171t197.5 116t246.5 42.5q203 0 389 -83l-16 -82q-78 37 -182 62.5t-195 25.5q-143 0 -262 -59t-195 -156.5t-117.5 -218t-41.5 -248.5q0 -230 130.5 -358t352.5 -128q133 0 283 70l80 418h-345l17 75h428l-103 -536 q-73 -44 -178 -73t-190 -29q-259 0 -410 150.5t-151 401.5z" />
<glyph unicode="H" horiz-adv-x="1306" d="M78 0l248 1280h86l-115 -598h799l114 598h86l-247 -1280h-86l116 604h-798l-117 -604h-86z" />
<glyph unicode="I" horiz-adv-x="425" d="M76 0l250 1280h86l-250 -1280h-86z" />
<glyph unicode="J" horiz-adv-x="839" d="M-51 94l33 76q140 -113 294 -113q259 0 322 316l176 907h86l-178 -926q-35 -178 -136.5 -276t-269.5 -98q-95 0 -182.5 33t-144.5 81z" />
<glyph unicode="K" horiz-adv-x="1034" d="M78 0l248 1280h86l-119 -618h2l764 618h119l-807 -645l553 -635h-103l-536 616h-2l-119 -616h-86z" />
<glyph unicode="L" horiz-adv-x="944" d="M78 0l250 1280h86l-234 -1202h647l-16 -78h-733z" />
<glyph unicode="M" horiz-adv-x="1531" d="M47 0l291 1280h121l229 -1210l694 1210h131l-210 -1280h-86l198 1180l-680 -1182h-110l-228 1184l-262 -1182h-88z" />
<glyph unicode="N" horiz-adv-x="1284" d="M78 0l248 1280h100l547 -1180l227 1180h82l-252 -1292h-94l-551 1190l-225 -1178h-82z" />
<glyph unicode="O" d="M121 561q0 145 52.5 280t143.5 236.5t222 162t278 60.5q246 0 403.5 -163t157.5 -412q0 -145 -53 -280.5t-144 -238t-222 -164.5t-277 -62q-162 0 -290.5 75.5t-199.5 208t-71 297.5zM207 561q0 -217 135 -361.5t350 -144.5q128 0 241.5 57.5t191 151t122.5 214t45 245.5 q0 217 -136 360.5t-351 143.5q-129 0 -242.5 -57t-190 -150t-121 -213t-44.5 -246z" />
<glyph unicode="P" horiz-adv-x="1024" d="M76 0l250 1280h288q201 0 308.5 -98t107.5 -248q0 -218 -156 -340q-152 -119 -426 -119h-14l-178 2l-94 -477h-86zM270 553l179 -2h14q225 -1 349 95q128 98 128 274q0 123 -89 202.5t-249 79.5h-205z" />
<glyph unicode="Q" d="M121 561q0 145 52.5 280t143.5 236.5t222 162t278 60.5q246 0 403.5 -163t157.5 -412q0 -164 -64.5 -313.5t-183.5 -258.5t-272 -151l383 -260l-49 -70l-436 312q-46 -4 -70 -4q-246 0 -405.5 165.5t-159.5 415.5zM207 561q0 -217 135 -361.5t350 -144.5 q128 0 241.5 57.5t191 151t122.5 214t45 245.5q0 217 -136 360.5t-351 143.5q-129 0 -242.5 -57t-190 -150t-121 -213t-44.5 -246z" />
<glyph unicode="R" horiz-adv-x="1050" d="M78 0l248 1280h258q109 0 193.5 -27t135.5 -75t77 -108t26 -130q0 -82 -34.5 -151.5t-91.5 -115.5t-122 -75.5t-133 -40.5l237 -557h-90l-229 547l-287 -17l-102 -530h-86zM283 606l225 4q61 2 119 14t113 38t96 62t65.5 89.5t24.5 118.5q0 124 -85.5 197t-260.5 73h-183 z" />
<glyph unicode="S" horiz-adv-x="970" d="M23 121l28 80q82 -67 188.5 -107.5t211.5 -40.5q146 0 237.5 77.5t91.5 195.5q0 39 -10 72.5t-33.5 62t-45 49.5t-61 44.5t-64.5 36.5t-72 36q-54 26 -90 45.5t-79.5 51.5t-69.5 63.5t-44 77t-18 96.5q0 106 58.5 185t150 116.5t200.5 37.5q103 0 209 -36.5t176 -94.5 l-29 -79q-70 60 -170 97.5t-196 37.5q-129 0 -221 -71.5t-92 -186.5q0 -30 9 -57.5t20.5 -48t36.5 -43t42 -35.5t53 -33.5t54 -29.5t59 -30q59 -30 96.5 -51t82.5 -54.5t70.5 -66.5t43.5 -80t18 -102q0 -162 -120.5 -259t-297.5 -97q-118 0 -230 38.5t-193 102.5z" />
<glyph unicode="T" horiz-adv-x="1077" d="M199 1202l14 78h991l-14 -78h-453l-233 -1202h-86l233 1202h-452z" />
<glyph unicode="U" horiz-adv-x="1200" d="M127 334q0 75 25 209l145 737h84l-145 -748q-25 -128 -25 -188q0 -131 94.5 -210t272.5 -79q155 0 259.5 105.5t141.5 292.5l160 827h84l-162 -844q-42 -215 -167.5 -335.5t-322.5 -120.5q-203 0 -323.5 99t-120.5 255z" />
<glyph unicode="V" horiz-adv-x="1122" d="M199 1280h86l202 -1196l658 1196h92l-713 -1280h-102z" />
<glyph unicode="W" horiz-adv-x="1826" d="M262 1280h84l98 -1147l574 1147h108l134 -1147l526 1147h94l-602 -1280h-80l-141 1188l-598 -1188h-80z" />
<glyph unicode="X" horiz-adv-x="1126" d="M-61 0l612 668l-330 612h92l297 -567l504 567h107l-572 -627l355 -653h-95l-319 606l-543 -606h-108z" />
<glyph unicode="Y" horiz-adv-x="1038" d="M186 1280h88l269 -680l520 680h104l-594 -764l-100 -516h-86l100 520z" />
<glyph unicode="Z" horiz-adv-x="1019" d="M-37 0l12 61l1006 1143h-754l15 76h868l-10 -61l-1006 -1143h783l-15 -76h-899z" />
<glyph unicode="[" horiz-adv-x="837" d="M233 -455v1837h502v-73h-416v-1690h416v-74h-502z" />
<glyph unicode="\" horiz-adv-x="403" d="M168 1438h70l139 -1846h-68z" />
<glyph unicode="]" horiz-adv-x="837" d="M102 -381h416v1690h-416v73h502v-1837h-502v74z" />
<glyph unicode="^" horiz-adv-x="735" d="M244 1055l301 362h102l158 -362h-62l-153 295h-4l-269 -295h-73z" />
<glyph unicode="_" horiz-adv-x="878" d="M-18 0h915v-78h-915v78z" />
<glyph unicode="`" horiz-adv-x="817" d="M334 1417h112l197 -362h-57z" />
<glyph unicode="a" horiz-adv-x="874" d="M33 233q0 161 154.5 237.5t484.5 76.5l12 59q9 40 9 75q1 74 -39 126q-58 76 -187 76q-132 0 -281 -88l-18 73q153 90 305 90q156 0 242 -90q61 -64 61 -170q0 -43 -10 -92l-92 -461q-3 -18 -3 -32q-1 -25 9 -41q15 -25 70 -25h4l-9 -63h-13q-70 0 -100 30 q-34 33 -34 101h-2q-54 -60 -133 -97.5t-162 -37.5q-116 0 -192 76t-76 177zM117 242q0 -78 54 -133.5t148 -55.5q76 0 151 39t130 101l59 284h-13q-529 0 -529 -235z" />
<glyph unicode="b" horiz-adv-x="1038" d="M57 -20l273 1400l90 27l-111 -571q133 112 285 112q155 0 257.5 -112.5t102.5 -284.5q0 -160 -65.5 -291.5t-178.5 -205.5t-249 -74q-171 0 -299 112zM178 168q47 -52 126 -85.5t163 -33.5q113 0 206 67t145 178.5t52 240.5q0 154 -79.5 249t-206.5 95q-80 0 -156.5 -38 t-138.5 -100z" />
<glyph unicode="c" horiz-adv-x="911" d="M86 403q0 105 36.5 204.5t101 177.5t160 125.5t204.5 47.5q176 0 307 -108l-35 -72q-124 103 -282 103q-107 0 -200 -65t-147.5 -173t-54.5 -229q0 -158 86 -257.5t236 -99.5q113 0 233 58l6 -78q-117 -57 -243 -57q-181 0 -294.5 119t-113.5 304z" />
<glyph unicode="d" horiz-adv-x="1036" d="M82 377q0 244 144.5 407.5t359.5 163.5q166 0 286 -123l109 555l88 27l-274 -1407h-84l16 88q-128 -108 -283 -108q-154 0 -258 111t-104 286zM166 393q0 -154 80 -249t207 -95q81 0 158 35t134 92l113 584q-46 52 -123.5 85.5t-154.5 33.5q-115 0 -211 -67.5 t-149.5 -179t-53.5 -239.5z" />
<glyph unicode="e" horiz-adv-x="942" d="M90 403q0 108 36 209t97.5 177.5t150.5 122.5t189 46q139 0 228.5 -80.5t89.5 -201.5q0 -93 -43 -187l-656 -4q-4 -50 -4 -71q0 -157 87.5 -257t238.5 -100q113 0 233 58l6 -78q-117 -57 -243 -57q-182 0 -296 119.5t-114 303.5zM197 559h573q21 55 21 113q0 89 -64 149 t-170 60q-127 0 -224.5 -92t-135.5 -230z" />
<glyph unicode="f" horiz-adv-x="567" d="M76 0l166 850l-127 8l6 55l133 17l43 200q64 295 285 295q110 0 184 -59l-35 -72q-75 54 -156 54q-146 0 -194 -222l-41 -198h276l-6 -74h-284l-166 -854h-84z" />
<glyph unicode="g" horiz-adv-x="942" d="M-106 -238q0 96 69 168t203 111q-34 16 -58 51.5t-24 77.5q0 58 43.5 104t108.5 64q-113 91 -113 246q0 106 56 193.5t142.5 134t182.5 46.5q125 0 205 -55l288 19l9 -93l-238 11q63 -90 63 -191q0 -165 -117 -272t-276 -107q-84 0 -157 39q-52 -20 -82.5 -53t-30.5 -66 q0 -49 46.5 -81t162.5 -56l80 -16q155 -32 234 -91t79 -157q0 -55 -28.5 -107t-83.5 -96t-146.5 -71t-206.5 -27q-184 0 -297.5 74.5t-113.5 199.5zM-20 -231q0 -100 93.5 -154.5t243.5 -54.5q162 0 266.5 62t104.5 157q0 73 -71 117.5t-224 74.5q-66 13 -153 37 q-260 -58 -260 -239zM203 590q0 -111 67.5 -181.5t175.5 -70.5q129 0 216.5 89t87.5 208q0 117 -67.5 186.5t-184.5 69.5t-206 -90t-89 -211z" />
<glyph unicode="h" horiz-adv-x="1007" d="M61 0l269 1380l90 27l-115 -588q172 139 334 139q122 0 193 -68.5t71 -184.5q0 -45 -14 -119l-115 -586h-84l113 582q14 71 14 108q0 90 -52.5 142.5t-152.5 52.5q-136 0 -323 -146l-144 -739h-84z" />
<glyph unicode="i" horiz-adv-x="397" d="M66 0l180 932l88 26l-184 -958h-84zM268 1227q0 32 20 55t54 23t57 -23t23 -55q0 -33 -22 -57.5t-56 -24.5t-55 24t-21 58z" />
<glyph unicode="j" horiz-adv-x="395" d="M-227 -449q125 50 184.5 125.5t87.5 219.5l201 1036l88 26l-209 -1083q-32 -162 -103.5 -251.5t-201.5 -137.5zM268 1227q0 32 20 55t54 23t57 -23t23 -55q0 -33 -22 -57.5t-56 -24.5t-55 24t-21 58z" />
<glyph unicode="k" horiz-adv-x="843" d="M61 0l269 1380l90 27l-174 -887h4l518 418h125l-561 -440l393 -498h-104l-377 487h-4l-95 -487h-84z" />
<glyph unicode="l" horiz-adv-x="385" d="M61 0l269 1380l90 27l-275 -1407h-84z" />
<glyph unicode="m" horiz-adv-x="1548" d="M61 0l181 932l90 26l-25 -124q140 124 295 124q91 0 156 -43.5t90 -119.5q160 163 338 163q116 0 187 -69t71 -184q0 -45 -14 -119l-115 -586h-84l112 582q15 76 15 108q0 90 -51 142.5t-144 52.5q-140 0 -303 -150v-30q0 -45 -16 -130l-113 -575h-84l113 582 q14 71 14 108q0 90 -50.5 142.5t-143.5 52.5q-135 0 -289 -135l-146 -750h-84z" />
<glyph unicode="n" horiz-adv-x="1007" d="M61 0l181 932l90 26l-27 -139q172 139 334 139q122 0 193 -68.5t71 -184.5q0 -45 -16 -130l-113 -575h-84l113 582q14 71 14 108q0 90 -52.5 142.5t-152.5 52.5q-130 0 -323 -150l-144 -735h-84z" />
<glyph unicode="o" horiz-adv-x="1089" d="M86 403q0 146 64.5 272.5t183.5 203.5t266 77q184 0 294 -118.5t110 -305.5q0 -146 -64.5 -271.5t-184 -202t-266.5 -76.5q-184 0 -293.5 117t-109.5 304zM172 408q0 -156 87 -254.5t237 -98.5q124 0 222 67t149 173.5t51 228.5q0 158 -86 258.5t-238 100.5 q-123 0 -221.5 -69t-149.5 -177t-51 -229z" />
<glyph unicode="p" horiz-adv-x="1040" d="M-31 -477l273 1409l90 26l-23 -118q128 108 283 108q154 0 258 -111t104 -286q0 -244 -144 -407.5t-359 -163.5q-168 0 -287 122l-113 -579h-82zM178 168q46 -52 124 -85.5t155 -33.5q115 0 210.5 67.5t149 179t53.5 239.5q0 154 -79.5 249t-206.5 95q-81 0 -158.5 -35 t-134.5 -92z" />
<glyph unicode="q" horiz-adv-x="1036" d="M84 377q0 244 144.5 407.5t359.5 163.5q166 0 286 -123l107 121l-276 -1423h-87l111 565q-128 -108 -283 -108q-154 0 -258 111t-104 286zM168 393q0 -154 80 -249t207 -95q81 0 158.5 35t134.5 92l112 584q-46 52 -123.5 85.5t-154.5 33.5q-115 0 -211 -67.5 t-149.5 -179t-53.5 -239.5z" />
<glyph unicode="r" horiz-adv-x="675" d="M61 0l181 932l90 26l-39 -198q53 92 123.5 145t150.5 53q103 0 178 -45l-22 -79q-78 47 -160 47q-170 0 -303 -291l-115 -590h-84z" />
<glyph unicode="s" horiz-adv-x="749" d="M-4 92l37 70q58 -47 132 -78t148 -31q104 0 173 52.5t69 138.5q0 62 -41.5 103t-167.5 104q-58 30 -91.5 50.5t-66.5 51t-47 67.5t-14 85q0 115 88 184t211 69q159 0 297 -96l-37 -69q-130 94 -264 94q-94 0 -154.5 -48t-60.5 -124q0 -67 41.5 -108t165.5 -101 q120 -59 171.5 -113.5t51.5 -138.5q0 -116 -93 -195t-235 -79q-87 0 -176 33.5t-137 78.5z" />
<glyph unicode="t" horiz-adv-x="663" d="M98 154q0 55 23 155l121 541l-121 8l6 55l131 17l51 223h82l-51 -225h340l-6 -74h-350l-123 -555q-21 -103 -21 -127q0 -127 146 -127q66 0 176 39l14 -72q-91 -43 -199 -43q-101 0 -160 50t-59 135z" />
<glyph unicode="u" horiz-adv-x="1007" d="M106 233q0 39 17 129l113 576h83l-112 -582q-14 -71 -14 -108q0 -90 52 -142.5t152 -52.5q137 0 324 146l143 739h84l-180 -932l-90 -26l27 139q-172 -139 -334 -139q-123 0 -194 68.5t-71 184.5z" />
<glyph unicode="v" horiz-adv-x="829" d="M98 938h86l158 -819l475 819h94l-551 -940h-73z" />
<glyph unicode="w" horiz-adv-x="1288" d="M125 938h82l82 -803l424 803h78l114 -807l381 807h90l-456 -940h-74l-115 813l-436 -813h-68z" />
<glyph unicode="x" horiz-adv-x="768" d="M-84 0l420 487l-211 451h90l176 -403l326 403h96l-385 -463l231 -475h-90l-194 428l-363 -428h-96z" />
<glyph unicode="y" horiz-adv-x="829" d="M-209 -422l45 68q57 -39 103 -39q100 0 225 211l117 202l-179 918h86l154 -823l475 823h94l-565 -956l-121 -205q-84 -143 -152.5 -195.5t-138.5 -52.5q-72 0 -143 49z" />
<glyph unicode="z" horiz-adv-x="765" d="M-53 0l12 57l725 807h-549l15 74h655l-12 -57l-725 -807h567l-14 -74h-674z" />
<glyph unicode="{" horiz-adv-x="663" d="M33 475l6 53q153 12 212.5 57.5t59.5 149.5q0 55 -27.5 128.5t-55 154t-27.5 153.5q0 121 107 177t325 69v-69q-190 -15 -268 -53.5t-78 -112.5q0 -66 55 -219.5t55 -214.5q0 -50 -16 -95t-49 -84t-90.5 -64.5t-132.5 -29.5v-2q75 -4 132.5 -29t90.5 -64t49 -84.5 t16 -96.5q0 -61 -55 -212t-55 -214q0 -79 78 -118t268 -54v-70q-108 7 -184.5 22.5t-134 43.5t-85.5 72.5t-28 107.5q0 74 27.5 155t55 154t27.5 127q0 103 -59.5 149.5t-212.5 59.5z" />
<glyph unicode="|" horiz-adv-x="548" d="M231 -408v1846h86v-1846h-86z" />
<glyph unicode="}" horiz-adv-x="663" d="M29 -401q191 15 269.5 53t78.5 112q0 66 -55.5 220t-55.5 215q0 50 16.5 95t49.5 84t90.5 64t132.5 29v2q-75 4 -132.5 29t-90.5 64t-49.5 85t-16.5 97q0 61 55.5 212.5t55.5 215.5q0 77 -78 116t-270 54v69q108 -7 185 -22.5t135 -43.5t86 -72.5t28 -107.5 q0 -74 -28.5 -155t-56.5 -154t-28 -127q0 -104 60.5 -149.5t214.5 -59.5l4 -53l-4 -53q-154 -12 -214.5 -57.5t-60.5 -149.5q0 -55 28 -128.5t56.5 -154t28.5 -153.5q0 -121 -108 -177t-326 -69v70z" />
<glyph unicode="~" horiz-adv-x="819" d="M74 369q66 213 196 213q37 0 80 -24t74.5 -52t67 -52t59.5 -24q34 0 61.5 28.5t63.5 112.5h1h1h1h1h2h1h1h1h2h1h2h1h1h2h1h2h2h1h2h2h1h2h2h2h2h1h2h2h2h2h3h2h8q-66 -213 -196 -213q-37 0 -79 24t-73.5 52t-67.5 52t-61 24q-35 0 -62 -28t-65 -113h-1h-1h-1h-2h-1h-1 h-1h-2h-1h-1h-2h-1h-2h-1h-2h-2h-1h-2h-2h-1h-2h-2h-2h-2h-2h-2h-2h-2h-2h-2h-9z" />
<glyph unicode="&#xa1;" horiz-adv-x="497" d="M96 -39l213 959l47 -5l-157 -964zM319 1223q0 31 21 54t53 23q31 0 51.5 -22.5t20.5 -54.5q0 -30 -20.5 -52t-51.5 -22q-32 0 -53 22t-21 52z" />
<glyph unicode="&#xa2;" horiz-adv-x="870" d="M86 403q0 108 38.5 209.5t104.5 177.5t160 122t199 46q37 0 67 -6l66 197h74l-70 -209q94 -28 170 -90l-35 -72q-67 58 -160 84q0 1 -66 -199t-132 -400.5t-66 -201.5q40 -4 62 -4q113 0 233 58l6 -78q-117 -57 -243 -57q-46 0 -82 8l-78 -240h-74l84 256 q-119 44 -188.5 151t-69.5 248zM176 414q0 -119 50.5 -207.5t142.5 -126.5l262 797q-32 4 -53 4q-114 0 -207.5 -67.5t-144 -174.5t-50.5 -225z" />
<glyph unicode="&#xa3;" horiz-adv-x="980" d="M-55 37q138 29 207 87.5t96 186.5q25 117 41 262h-185l-4 76h199q14 130 43 279q18 86 46.5 152.5t73.5 120.5t112.5 83t154.5 29q162 0 299 -90l-33 -74q-131 88 -268 88q-238 0 -299 -301q-26 -137 -45 -287h395l-8 -76h-397q-16 -145 -41 -262q-14 -63 -29 -100 q61 -69 147 -117.5t162 -48.5q92 0 148 58t96 159l59 -18q-86 -273 -307 -273q-92 0 -178.5 48.5t-157.5 127.5q-44 -75 -120 -116.5t-201 -65.5z" />
<glyph unicode="&#xa4;" horiz-adv-x="878" d="M127 1032l57 58l119 -119q72 57 178 57q108 0 183 -59l112 112l55 -55l-114 -115q53 -74 53 -176q0 -99 -55 -176l127 -127l-58 -57l-125 125q-74 -58 -178 -58q-103 0 -178 56l-115 -115l-55 55l115 115q-58 80 -58 182q0 104 56 178zM262 735q0 -93 60 -158t159 -65 q98 0 157.5 65t59.5 158q0 94 -59.5 158.5t-157.5 64.5q-100 0 -159.5 -64.5t-59.5 -158.5z" />
<glyph unicode="&#xa5;" horiz-adv-x="1120" d="M80 268l8 74h365l41 201h-1h-1h-1h-1h-1h-1h-1h-1h-1h-1h-1h-1h-1h-1h-1h-1h-1h-1h-1h-1h-1h-1h-1h-1h-1h-1h-1h-1h-1h-1h-1h-1h-1h-1h-1h-1h-1h-1h-1h-1h-1h-1h-1h-1h-1h-1h-1h-1h-1h-1h-1h-1h-1h-1h-1h-1h-1h-1h-1h-1h-1h-1h-1h-1h-1h-1h-1h-1h-1h-1h-1h-1h-2h-1h-1h-1 h-1h-1h-1h-2h-1h-1h-1h-1h-1h-2h-1h-1h-1h-1h-2h-1h-1h-1h-1h-2h-1h-1h-1h-2h-1h-1h-1h-2h-1h-1h-2h-1h-1h-2h-1h-1h-1h-2h-1h-1h-2h-1h-2h-1h-1h-2h-1h-1h-2h-1h-2h-1h-1h-2h-1h-2h-1h-1h-2h-1h-2h-1h-2h-1h-1h-2h-1h-2h-1h-2h-1h-2h-1h-2h-1h-2h-1h-2h-1h-2h-1h-2h-1h-2 h-1h-2h-1h-2h-2h-1h-2h-1h-2h-1h-2h-2h-1h-2h-1h-2h-2h-1h-2h-1h-2h-2h-1h-2h-1h-2h-2h-1h-2h-2h-1h-2h-2h-1h-2h-2h-1h-2h-2h-1h-2h-2h-1h-2h-2h-2h-1h-2h-2h-1h-2h-2h-2h-1h-2h-2h-2h-1h-2h-2h-2h-2h-1h-2h-2h-2h-1h-2h-2h-2h-2h-1h-2h-2h-2h-2h-2h-1h-2h-2h-2h-2h-2h-1 h-2h-2h-2h-2h-2h-2h-9l-4 73h332l-283 664h88l271 -668l518 668h104q-534 -664 -536 -664h319l-8 -73h-362l-41 -201h350l4 -74h-369l-51 -268h-86l51 268h-358z" />
<glyph unicode="&#xa6;" horiz-adv-x="548" d="M231 -285v686h86v-686h-86zM231 629v686h86v-686h-86z" />
<glyph unicode="&#xa7;" horiz-adv-x="958" d="M63 -18l41 67q135 -115 283 -115q57 0 111.5 18.5t95.5 61t41 101.5q0 55 -38.5 98t-78 63.5t-141.5 64.5q-10 5 -15 7q-67 29 -109.5 51t-89.5 55t-70 73.5t-23 88.5q0 60 30.5 110.5t80 83.5t104.5 53.5t112 27.5q-44 30 -71 75.5t-27 96.5q0 82 44 141t110 85t145 26 q154 0 307 -98l-41 -68q-147 96 -270 96q-53 0 -100 -15.5t-82 -55.5t-35 -99q0 -34 13.5 -62.5t31.5 -48t57.5 -42t68.5 -36t87 -38.5q9 -4 14 -6q67 -29 109.5 -51t90 -55.5t70.5 -74t23 -88.5q0 -60 -30.5 -110.5t-80.5 -83t-105 -53t-112 -27.5q45 -30 72 -75.5 t27 -96.5q0 -121 -99.5 -191.5t-228.5 -70.5q-83 0 -171.5 32t-150.5 85zM147 627q0 -18 5.5 -35.5t12.5 -31t22 -29t25.5 -25t32.5 -23t32 -20t36 -18.5t33.5 -15.5t34.5 -14.5t29 -12q106 -43 143 -63q62 13 109.5 28t97 40.5t77 65t27.5 89.5q0 18 -5.5 35.5t-12.5 31 t-22 28.5t-25.5 25t-31.5 23t-32.5 20t-36 18.5t-33.5 15t-34 14t-29 12.5q-97 40 -143 64q-48 -10 -86.5 -21t-82.5 -29.5t-73.5 -41.5t-49.5 -56.5t-20 -74.5z" />
<glyph unicode="&#xa8;" horiz-adv-x="737" d="M301 1227q0 29 19.5 50t50.5 21t51 -21t20 -50q0 -31 -20 -53.5t-51 -22.5t-50.5 22.5t-19.5 53.5zM670 1227q0 29 21 50t52 21q30 0 50 -21t20 -50q0 -30 -20 -53t-50 -23q-31 0 -52 23t-21 53z" />
<glyph unicode="&#xa9;" horiz-adv-x="1497" d="M123 637q0 183 89.5 337.5t244 244.5t336.5 90q137 0 261 -53t213 -143.5t142 -214.5t53 -261q0 -136 -53 -260t-142 -214t-213 -143t-261 -53q-182 0 -336.5 90t-244 244t-89.5 336zM180 639q0 -165 82 -306.5t223.5 -224.5t307.5 -83q167 0 308.5 83t223.5 224.5 t82 306.5q0 166 -82 307.5t-223.5 225t-308.5 83.5q-166 0 -307.5 -83.5t-223.5 -225.5t-82 -307zM463 635q0 171 98 275t256 104q132 0 223 -60l-26 -71q-88 57 -197 57q-121 0 -195.5 -80.5t-74.5 -222.5q0 -138 73.5 -220.5t196.5 -82.5q118 0 203 65l14 -80 q-85 -59 -219 -59q-159 0 -255.5 102t-96.5 273z" />
<glyph unicode="&#xaa;" horiz-adv-x="665" d="M92 700q0 132 125 204.5t375 66.5l10 49q22 105 -17.5 162t-144.5 57q-94 0 -227 -74l-18 60q134 75 256 75q125 0 186.5 -69.5t32.5 -212.5l-64 -313q-20 -105 35 -179l-70 -8q-39 39 -36 119h-3q-41 -43 -113 -81t-134 -38q-86 0 -139.5 54.5t-53.5 127.5zM158 709 q0 -56 41.5 -90.5t101.5 -34.5q103 0 236 108l45 228q-94 0 -168 -11.5t-121.5 -30.5t-78.5 -46.5t-43.5 -57.5t-12.5 -65z" />
<glyph unicode="&#xab;" horiz-adv-x="1165" d="M61 442l15 74l540 383l-14 -90l-465 -334v-2l350 -364l-34 -54zM586 442l14 74l541 383l-15 -90l-464 -334v-2l350 -364l-35 -54z" />
<glyph unicode="&#xac;" horiz-adv-x="999" d="M86 545l6 78h821v-424h-82v346h-745z" />
<glyph unicode="&#xad;" horiz-adv-x="561" d="M74 459v78h420v-78h-420z" />
<glyph unicode="&#xae;" horiz-adv-x="1497" d="M123 637q0 183 89.5 337.5t244 244.5t336.5 90q137 0 261 -53t213 -143.5t142 -214.5t53 -261q0 -136 -53 -260t-142 -214t-213 -143t-261 -53q-182 0 -336.5 90t-244 244t-89.5 336zM180 639q0 -165 82 -306.5t223.5 -224.5t307.5 -83q167 0 308.5 83t223.5 224.5 t82 306.5q0 166 -82 307.5t-223.5 225t-308.5 83.5q-166 0 -307.5 -83.5t-223.5 -225.5t-82 -307zM567 283v725h205q135 0 205 -58t70 -162q0 -76 -40.5 -128t-109.5 -78l188 -299h-92l-174 280l-174 -10v-270h-78zM643 621l133 6q91 3 143 44t52 113q0 154 -205 154h-123 v-317z" />
<glyph unicode="&#xaf;" horiz-adv-x="819" d="M295 1092l20 77h469l-8 -77h-481z" />
<glyph unicode="&#xb0;" horiz-adv-x="686" d="M186 1012q0 120 84.5 207.5t204.5 87.5q107 0 177.5 -64t70.5 -170q0 -122 -84.5 -208.5t-206.5 -86.5q-106 0 -176 64.5t-70 169.5zM250 1018q0 -82 53.5 -130t136.5 -48q92 0 155.5 66t63.5 159q0 83 -53 131.5t-137 48.5q-92 0 -155.5 -67t-63.5 -160z" />
<glyph unicode="&#xb1;" horiz-adv-x="999" d="M86 55l6 74h817l6 -74h-829zM86 483l6 78h369v342h82v-342h364l6 -78h-370v-313h-82v313h-375z" />
<glyph unicode="&#xb2;" horiz-adv-x="675" d="M12 559l8 78q56 42 130 95.5t117 85t94.5 71.5t80 68t55 61t37.5 64t11 65q0 63 -49 99t-119 36q-108 0 -205 -72l-20 62q110 76 233 76q101 0 172.5 -52.5t71.5 -142.5q0 -39 -10.5 -73.5t-36.5 -69t-53.5 -63t-79 -69t-93.5 -71t-116.5 -84.5t-130.5 -96h446l-8 -68 h-535z" />
<glyph unicode="&#xb3;" horiz-adv-x="675" d="M43 612l29 66q103 -68 215 -68q92 0 153.5 43.5t61.5 120.5q0 73 -58.5 110.5t-154.5 37.5q-30 0 -80 -4l10 59q328 42 328 184q0 61 -45 91t-115 30q-98 0 -203 -59l-22 59q109 66 233 66q96 0 164 -44.5t68 -129.5q0 -84 -72 -137t-180 -74q95 -10 153 -56t58 -127 q0 -101 -88 -167t-211 -66q-63 0 -132 17.5t-112 47.5z" />
<glyph unicode="&#xb4;" horiz-adv-x="817" d="M393 1055l340 362h125l-395 -362h-70z" />
<glyph unicode="&#xb6;" horiz-adv-x="1032" d="M170 864q0 81 27.5 150t75 117t111.5 81.5t135.5 49.5t148.5 16h329l-276 -1409h-82l131 663q-39 -8 -125 -8q-218 0 -346.5 94.5t-128.5 245.5z" />
<glyph unicode="&#xb7;" horiz-adv-x="313" d="M94 469q0 30 20.5 52t51.5 22q32 0 53 -22t21 -52q0 -32 -21 -55t-53 -23q-31 0 -51.5 23t-20.5 55z" />
<glyph unicode="&#xb8;" horiz-adv-x="819" d="M129 -518l2 63q136 -3 210.5 36.5t74.5 111.5q0 68 -74.5 94.5t-198.5 13.5v33l258 207h82l-213 -174q97 -3 159.5 -46.5t62.5 -119.5q0 -94 -98.5 -158.5t-264.5 -60.5z" />
<glyph unicode="&#xb9;" horiz-adv-x="675" d="M233 1212l11 68l278 59l-164 -780h-75l145 694z" />
<glyph unicode="&#xba;" horiz-adv-x="874" d="M150 854q0 116 52 217t147 163t212 62q149 0 243.5 -94.5t94.5 -243.5q0 -116 -52.5 -217t-149 -163t-214.5 -62q-147 0 -240 95t-93 243zM217 858q0 -125 75.5 -204t199.5 -79q99 0 177.5 56t119 142.5t40.5 184.5q0 123 -73.5 202t-196.5 79q-100 0 -179.5 -55 t-121 -141.5t-41.5 -184.5z" />
<glyph unicode="&#xbb;" horiz-adv-x="1165" d="M27 57l14 90l465 334v2l-350 365l34 53l392 -387l-15 -74zM551 57l14 90l465 334v2l-350 365l35 53l391 -387l-14 -74z" />
<glyph unicode="&#xbc;" horiz-adv-x="1464" d="M-6 -238l1405 1518h92l-1405 -1518h-92zM274 1212l11 68l278 59l-164 -780h-75l145 694zM776 -39l516 526h84l-108 -518h127l-11 -63h-131l-43 -203h-75l45 203h-400zM866 -31h326l92 428z" />
<glyph unicode="&#xbd;" horiz-adv-x="1464" d="M-6 -238l1405 1518h92l-1405 -1518h-92zM274 1212l11 68l278 59l-164 -780h-75l145 694zM760 -293l8 78q56 42 130 96t117 85t94.5 71t79.5 68t54.5 61t37.5 64t11 65q0 63 -49 99t-119 36q-107 0 -204 -72l-21 62q110 76 234 76q101 0 172 -52.5t71 -142.5 q0 -39 -10.5 -73.5t-36.5 -69t-53.5 -63t-79 -69t-93.5 -71t-116.5 -84.5t-130.5 -96h447l-9 -68h-534z" />
<glyph unicode="&#xbe;" horiz-adv-x="1464" d="M-6 -238l1405 1518h92l-1405 -1518h-92zM84 612l29 66q103 -68 215 -68q92 0 153.5 43.5t61.5 120.5q0 73 -58.5 110.5t-154.5 37.5q-30 0 -80 -4l10 59q328 42 328 184q0 61 -45 91t-115 30q-98 0 -203 -59l-22 59q109 66 233 66q96 0 164 -44.5t68 -129.5 q0 -84 -72 -137t-180 -74q95 -10 153 -56t58 -127q0 -101 -88 -167t-211 -66q-63 0 -132 17.5t-112 47.5zM776 -39l516 526h84l-108 -518h127l-11 -63h-131l-43 -203h-75l45 203h-400zM866 -31h326l92 428z" />
<glyph unicode="&#xbf;" horiz-adv-x="700" d="M57 291q0 64 21.5 114.5t62 85.5t85.5 58t106 43q108 36 152 70.5t44 87.5q0 67 -104 157q57 15 59 15q121 -92 121 -183q0 -75 -59.5 -125.5t-177.5 -89.5q-119 -40 -173.5 -90.5t-54.5 -142.5q0 -110 78.5 -176t192.5 -66q58 0 112 8l-14 -77q-61 -9 -102 -9 q-160 0 -254.5 95.5t-94.5 224.5zM483 1223q0 31 21 54t53 23q31 0 51.5 -22.5t20.5 -54.5q0 -30 -20.5 -52t-51.5 -22q-32 0 -53 22t-21 52z" />
<glyph unicode="&#xc0;" horiz-adv-x="1179" d="M-39 0l737 1280h107l233 -1280h-82l-67 379h-621l-213 -379h-94zM313 457h559l-131 745zM465 1759h113l196 -362h-57z" />
<glyph unicode="&#xc1;" horiz-adv-x="1179" d="M-39 0l737 1280h107l233 -1280h-82l-67 379h-621l-213 -379h-94zM313 457h559l-131 745zM721 1397l340 362h125l-395 -362h-70z" />
<glyph unicode="&#xc2;" horiz-adv-x="1179" d="M-39 0l737 1280h107l233 -1280h-82l-67 379h-621l-213 -379h-94zM313 457h559l-131 745zM473 1397l301 362h103l157 -362h-61l-154 295h-4l-268 -295h-74z" />
<glyph unicode="&#xc3;" horiz-adv-x="1179" d="M-39 0l737 1280h107l233 -1280h-82l-67 379h-621l-213 -379h-94zM313 457h559l-131 745zM467 1417q66 213 197 213q37 0 79.5 -23.5t74.5 -52t67 -52t59 -23.5q34 0 61.5 28.5t63.5 112.5h1h1h1h1h2h1h1h1h2h1h2h1h1h2h1h2h2h1h2h2h1h2h2h2h2h1h2h2h2h2h3h2h8 q-66 -213 -196 -213q-30 0 -63 15.5t-61.5 38t-55.5 45t-53.5 38t-47.5 15.5q-35 0 -62 -28.5t-65 -113.5h-1h-1h-1h-2h-1h-1h-1h-2h-1h-1h-2h-1h-2h-1h-2h-2h-1h-2h-2h-1h-2h-2h-2h-2h-2h-2h-2h-2h-2h-2h-9z" />
<glyph unicode="&#xc4;" horiz-adv-x="1179" d="M-39 0l737 1280h107l233 -1280h-82l-67 379h-621l-213 -379h-94zM313 457h559l-131 745zM541 1569q0 29 19 50t50 21t51.5 -21t20.5 -50q0 -30 -20.5 -53t-51.5 -23t-50 22.5t-19 53.5zM909 1569q0 29 21.5 50t52.5 21q30 0 50 -21t20 -50q0 -30 -20 -53t-50 -23 q-31 0 -52.5 23t-21.5 53z" />
<glyph unicode="&#xc5;" horiz-adv-x="1179" d="M-39 0l713 1237q-58 25 -91.5 73t-33.5 107q0 84 63 142.5t166 58.5t166.5 -58.5t63.5 -142.5q0 -75 -52 -130.5t-141 -65.5l223 -1221h-82l-67 379h-621l-213 -379h-94zM313 457h559l-131 747zM621 1419q0 -59 44 -100t113 -41q71 0 114.5 38.5t43.5 96.5 q0 59 -44 102.5t-114 43.5q-69 0 -113 -41t-44 -99z" />
<glyph unicode="&#xc6;" horiz-adv-x="1644" d="M-76 0l987 1280h789l-14 -78h-648l-100 -522h541l-17 -78h-540l-103 -524h647l-14 -78h-733l74 379h-484l-293 -379h-92zM369 457h438l147 753z" />
<glyph unicode="&#xc7;" horiz-adv-x="1169" d="M115 532q0 117 29.5 229t89.5 209.5t143 171t197.5 116t246.5 42.5q203 0 389 -83l-16 -82q-78 37 -182 62.5t-195 25.5q-143 0 -262 -59t-195 -156.5t-117.5 -218t-41.5 -248.5q0 -230 130.5 -357t352.5 -127q161 0 309 74l17 -80q-148 -71 -334 -71h-10l-138 -113 q97 -3 159.5 -46.5t62.5 -119.5q0 -94 -98.5 -158.5t-264.5 -60.5l2 63q136 -3 210.5 36.5t74.5 111.5q0 68 -74.5 94.5t-198.5 13.5v33l187 150q-221 26 -347 173t-126 375z" />
<glyph unicode="&#xc8;" horiz-adv-x="1003" d="M78 0l250 1280h733l-17 -78h-647l-100 -524h541l-15 -76h-540l-103 -524h647l-16 -78h-733zM408 1759h112l197 -362h-58z" />
<glyph unicode="&#xc9;" horiz-adv-x="1003" d="M78 0l250 1280h733l-17 -78h-647l-100 -524h541l-15 -76h-540l-103 -524h647l-16 -78h-733zM623 1397l340 362h124l-395 -362h-69z" />
<glyph unicode="&#xca;" horiz-adv-x="1003" d="M78 0l250 1280h733l-17 -78h-647l-100 -524h541l-15 -76h-540l-103 -524h647l-16 -78h-733zM426 1397l301 362h102l158 -362h-61l-154 295h-4l-268 -295h-74z" />
<glyph unicode="&#xcb;" horiz-adv-x="1003" d="M78 0l250 1280h733l-17 -78h-647l-100 -524h541l-15 -76h-540l-103 -524h647l-16 -78h-733zM455 1569q0 29 19 50t50 21t51.5 -21t20.5 -50q0 -30 -20.5 -53t-51.5 -23t-50 22.5t-19 53.5zM823 1569q0 29 21.5 50t52.5 21q30 0 50 -21t20 -50q0 -30 -20 -53t-50 -23 q-31 0 -52.5 23t-21.5 53z" />
<glyph unicode="&#xcc;" horiz-adv-x="425" d="M76 0l250 1280h86l-250 -1280h-86zM104 1759h113l197 -362h-58z" />
<glyph unicode="&#xcd;" horiz-adv-x="425" d="M76 0l250 1280h86l-250 -1280h-86zM350 1397l340 362h125l-395 -362h-70z" />
<glyph unicode="&#xce;" horiz-adv-x="425" d="M76 0l250 1280h86l-250 -1280h-86zM94 1397l301 362h103l157 -362h-61l-154 295h-4l-268 -295h-74z" />
<glyph unicode="&#xcf;" horiz-adv-x="425" d="M76 0l250 1280h86l-250 -1280h-86zM162 1569q0 29 19 50t50 21t51.5 -21t20.5 -50q0 -30 -20.5 -53t-51.5 -23t-50 22.5t-19 53.5zM530 1569q0 29 21 50t53 21q30 0 50 -21t20 -50q0 -30 -20 -53t-50 -23q-31 0 -52.5 23t-21.5 53z" />
<glyph unicode="&#xd0;" horiz-adv-x="1292" d="M66 604v76h184l117 600h241q175 0 310 -62.5t214.5 -187.5t79.5 -297q0 -152 -51 -284.5t-146.5 -233t-244 -158t-332.5 -57.5h-319l117 604h-170zM221 78h225q143 0 264.5 41t213.5 119t144 201.5t52 279.5q0 227 -141.5 355t-386.5 128h-154l-100 -522h379v-76h-393z " />
<glyph unicode="&#xd1;" horiz-adv-x="1284" d="M78 0l248 1280h100l547 -1180l227 1180h82l-252 -1292h-94l-551 1190l-225 -1178h-82zM516 1417q66 213 197 213q37 0 79.5 -23.5t74.5 -52t67 -52t59 -23.5q34 0 61.5 28.5t63.5 112.5h1h1h1h1h2h1h1h1h2h1h1h2h1h2h1h2h1h2h2h1h2h2h1h2h2h2h2h2h2h2h2h2h10 q-66 -213 -197 -213q-30 0 -63 15.5t-61.5 38t-55.5 45t-53.5 38t-47.5 15.5q-35 0 -62 -28.5t-65 -113.5h-1h-1h-1h-2h-1h-1h-1h-2h-1h-1h-2h-1h-2h-1h-2h-2h-1h-2h-2h-1h-2h-2h-2h-2h-2h-2h-2h-2h-2h-2h-9z" />
<glyph unicode="&#xd2;" d="M121 561q0 145 52.5 280t143.5 236.5t222 162t278 60.5q246 0 403.5 -163t157.5 -412q0 -145 -53 -280.5t-144 -238t-222 -164.5t-277 -62q-162 0 -290.5 75.5t-199.5 208t-71 297.5zM207 561q0 -217 135 -361.5t350 -144.5q128 0 241.5 57.5t191 151t122.5 214t45 245.5 q0 217 -136 360.5t-351 143.5q-129 0 -242.5 -57t-190 -150t-121 -213t-44.5 -246zM551 1759h113l196 -362h-57z" />
<glyph unicode="&#xd3;" d="M121 561q0 145 52.5 280t143.5 236.5t222 162t278 60.5q246 0 403.5 -163t157.5 -412q0 -145 -53 -280.5t-144 -238t-222 -164.5t-277 -62q-162 0 -290.5 75.5t-199.5 208t-71 297.5zM207 561q0 -217 135 -361.5t350 -144.5q128 0 241.5 57.5t191 151t122.5 214t45 245.5 q0 217 -136 360.5t-351 143.5q-129 0 -242.5 -57t-190 -150t-121 -213t-44.5 -246zM799 1397l340 362h125l-396 -362h-69z" />
<glyph unicode="&#xd4;" d="M121 561q0 145 52.5 280t143.5 236.5t222 162t278 60.5q246 0 403.5 -163t157.5 -412q0 -145 -53 -280.5t-144 -238t-222 -164.5t-277 -62q-162 0 -290.5 75.5t-199.5 208t-71 297.5zM207 561q0 -217 135 -361.5t350 -144.5q128 0 241.5 57.5t191 151t122.5 214t45 245.5 q0 217 -136 360.5t-351 143.5q-129 0 -242.5 -57t-190 -150t-121 -213t-44.5 -246zM571 1397l301 362h103l158 -362h-62l-153 295h-5l-268 -295h-74z" />
<glyph unicode="&#xd5;" d="M121 561q0 145 52.5 280t143.5 236.5t222 162t278 60.5q246 0 403.5 -163t157.5 -412q0 -145 -53 -280.5t-144 -238t-222 -164.5t-277 -62q-162 0 -290.5 75.5t-199.5 208t-71 297.5zM207 561q0 -217 135 -361.5t350 -144.5q128 0 241.5 57.5t191 151t122.5 214t45 245.5 q0 217 -136 360.5t-351 143.5q-129 0 -242.5 -57t-190 -150t-121 -213t-44.5 -246zM545 1417q66 213 196 213q37 0 80 -23.5t74.5 -52t67 -52t59.5 -23.5q34 0 61.5 28.5t63.5 112.5h1h1h1h1h2h1h1h1h2h1h2h1h1h2h1h2h2h1h2h2h1h2h2h2h2h1h2h2h2h2h3h2h8q-66 -213 -196 -213 q-30 0 -63 15.5t-61.5 38t-55.5 45t-53.5 38t-47.5 15.5q-35 0 -62 -28.5t-65 -113.5h-1h-1h-1h-2h-1h-1h-1h-2h-1h-1h-2h-1h-2h-1h-2h-2h-1h-2h-2h-1h-2h-2h-2h-2h-2h-2h-2h-2h-2h-2h-9z" />
<glyph unicode="&#xd6;" d="M121 561q0 145 52.5 280t143.5 236.5t222 162t278 60.5q246 0 403.5 -163t157.5 -412q0 -145 -53 -280.5t-144 -238t-222 -164.5t-277 -62q-162 0 -290.5 75.5t-199.5 208t-71 297.5zM207 561q0 -217 135 -361.5t350 -144.5q128 0 241.5 57.5t191 151t122.5 214t45 245.5 q0 217 -136 360.5t-351 143.5q-129 0 -242.5 -57t-190 -150t-121 -213t-44.5 -246zM674 1569q0 29 19 50t50 21t51.5 -21t20.5 -50q0 -30 -20.5 -53t-51.5 -23t-50 22.5t-19 53.5zM1042 1569q0 29 21 50t53 21q30 0 50 -21t20 -50q0 -30 -20 -53t-50 -23q-31 0 -52.5 23 t-21.5 53z" />
<glyph unicode="&#xd7;" horiz-adv-x="999" d="M78 109l368 368l-368 369l53 53l369 -369l372 373l54 -53l-373 -373l369 -368l-54 -54l-368 369l-369 -369z" />
<glyph unicode="&#xd8;" d="M106 -137l199 256q-88 79 -136 192t-48 246q0 145 52 280.5t142 237.5t220.5 163.5t277.5 61.5q190 0 330 -98l166 215h84l-197 -256q86 -78 134 -190t48 -242q0 -145 -52.5 -281t-142.5 -239.5t-220.5 -166t-276.5 -62.5q-182 0 -330 98q1 0 -40.5 -54t-83.5 -108 l-42 -53h-84zM207 561q0 -113 39 -210t110 -165l738 953q-128 88 -289 88q-129 0 -242.5 -57t-190 -150t-121 -213t-44.5 -246zM408 143q125 -88 284 -88q128 0 241.5 57.5t191 151t122.5 214t45 245.5q0 111 -38.5 208t-108.5 165z" />
<glyph unicode="&#xd9;" horiz-adv-x="1200" d="M127 334q0 75 25 209l145 737h84l-145 -748q-25 -128 -25 -188q0 -131 94.5 -210t272.5 -79q155 0 259.5 105.5t141.5 292.5l160 827h84l-162 -844q-42 -215 -167.5 -335.5t-322.5 -120.5q-203 0 -323.5 99t-120.5 255zM485 1759h113l197 -362h-58z" />
<glyph unicode="&#xda;" horiz-adv-x="1200" d="M127 334q0 75 25 209l145 737h84l-145 -748q-25 -128 -25 -188q0 -131 94.5 -210t272.5 -79q155 0 259.5 105.5t141.5 292.5l160 827h84l-162 -844q-42 -215 -167.5 -335.5t-322.5 -120.5q-203 0 -323.5 99t-120.5 255zM696 1397l340 362h125l-395 -362h-70z" />
<glyph unicode="&#xdb;" horiz-adv-x="1200" d="M127 334q0 75 25 209l145 737h84l-145 -748q-25 -128 -25 -188q0 -131 94.5 -210t272.5 -79q155 0 259.5 105.5t141.5 292.5l160 827h84l-162 -844q-42 -215 -167.5 -335.5t-322.5 -120.5q-203 0 -323.5 99t-120.5 255zM487 1397l301 362h103l158 -362h-62l-153 295h-5 l-268 -295h-74z" />
<glyph unicode="&#xdc;" horiz-adv-x="1200" d="M127 334q0 75 25 209l145 737h84l-145 -748q-25 -128 -25 -188q0 -131 94.5 -210t272.5 -79q155 0 259.5 105.5t141.5 292.5l160 827h84l-162 -844q-42 -215 -167.5 -335.5t-322.5 -120.5q-203 0 -323.5 99t-120.5 255zM545 1569q0 29 19 50t50 21t51.5 -21t20.5 -50 q0 -30 -20.5 -53t-51.5 -23t-50 22.5t-19 53.5zM913 1569q0 29 21.5 50t52.5 21q30 0 50 -21t20 -50q0 -30 -20 -53t-50 -23q-31 0 -52.5 23t-21.5 53z" />
<glyph unicode="&#xdd;" horiz-adv-x="1038" d="M186 1280h88l269 -680l520 680h104l-594 -764l-100 -516h-86l100 520zM606 1397l340 362h125l-395 -362h-70z" />
<glyph unicode="&#xde;" horiz-adv-x="1024" d="M76 0l250 1280h86l-45 -231h202q201 0 308.5 -98.5t107.5 -248.5q0 -218 -155.5 -339.5t-440.5 -118.5l-178 2l-49 -246h-86zM225 322l178 -3q234 -3 363 95.5t129 273.5q0 124 -89 203.5t-249 79.5h-205z" />
<glyph unicode="&#xdf;" horiz-adv-x="1042" d="M76 0l166 850l-127 8l6 55l133 17l41 188q69 307 344 307q127 0 210 -78t83 -194q0 -50 -15.5 -93t-40.5 -73t-54.5 -56.5t-59.5 -49t-55 -45t-40.5 -49.5t-15.5 -58q0 -39 22.5 -78t57 -70t74 -68.5t74 -72.5t57 -83t22.5 -99q0 -128 -85 -203t-228 -75 q-92 0 -179.5 32.5t-141.5 77.5l41 72q71 -56 134.5 -83.5t147.5 -27.5q98 0 158.5 56t60.5 151q0 54 -30.5 102.5t-74 86t-86.5 76t-73.5 89.5t-30.5 109q0 43 15.5 79t39.5 61t53.5 48t59.5 45.5t54 47.5t39.5 60.5t15.5 78.5q0 93 -57.5 152t-151.5 59q-214 0 -260 -230 l-219 -1122h-84z" />
<glyph unicode="&#xe0;" horiz-adv-x="874" d="M33 233q0 161 154.5 237.5t484.5 76.5l12 59q27 125 -30.5 201t-186.5 76q-132 0 -281 -88l-18 73q153 90 305 90q156 0 242 -90.5t51 -261.5l-92 -461q-9 -48 6.5 -73.5t73.5 -24.5l-9 -63q-80 -3 -113.5 30t-33.5 101h-2q-54 -60 -133 -97.5t-162 -37.5q-116 0 -192 76 t-76 177zM117 242q0 -78 54 -133.5t148 -55.5q76 0 151 39t130 101l59 284q-542 3 -542 -235zM254 1417h113l196 -362h-57z" />
<glyph unicode="&#xe1;" horiz-adv-x="874" d="M33 233q0 161 154.5 237.5t484.5 76.5l12 59q27 125 -30.5 201t-186.5 76q-132 0 -281 -88l-18 73q153 90 305 90q156 0 242 -90.5t51 -261.5l-92 -461q-9 -48 6.5 -73.5t73.5 -24.5l-9 -63q-80 -3 -113.5 30t-33.5 101h-2q-54 -60 -133 -97.5t-162 -37.5q-116 0 -192 76 t-76 177zM117 242q0 -78 54 -133.5t148 -55.5q76 0 151 39t130 101l59 284q-542 3 -542 -235zM428 1055l340 362h125l-395 -362h-70z" />
<glyph unicode="&#xe2;" horiz-adv-x="874" d="M33 233q0 161 154.5 237.5t484.5 76.5l12 59q27 125 -30.5 201t-186.5 76q-132 0 -281 -88l-18 73q153 90 305 90q156 0 242 -90.5t51 -261.5l-92 -461q-9 -48 6.5 -73.5t73.5 -24.5l-9 -63q-80 -3 -113.5 30t-33.5 101h-2q-54 -60 -133 -97.5t-162 -37.5q-116 0 -192 76 t-76 177zM117 242q0 -78 54 -133.5t148 -55.5q76 0 151 39t130 101l59 284q-542 3 -542 -235zM250 1055l301 362h102l158 -362h-61l-154 295h-4l-268 -295h-74z" />
<glyph unicode="&#xe3;" horiz-adv-x="874" d="M33 233q0 161 154.5 237.5t484.5 76.5l12 59q27 125 -30.5 201t-186.5 76q-132 0 -281 -88l-18 73q153 90 305 90q156 0 242 -90.5t51 -261.5l-92 -461q-9 -48 6.5 -73.5t73.5 -24.5l-9 -63q-80 -3 -113.5 30t-33.5 101h-2q-54 -60 -133 -97.5t-162 -37.5q-116 0 -192 76 t-76 177zM117 242q0 -78 54 -133.5t148 -55.5q76 0 151 39t130 101l59 284q-542 3 -542 -235zM223 1075q66 213 197 213q37 0 79.5 -23.5t74.5 -52t67 -52t59 -23.5q34 0 61.5 28.5t63.5 112.5h1h1h1h1h2h1h1h1h2h1h1h2h1h2h1h2h1h2h2h1h2h2h1h2h2h2h2h2h2h2h2h2h10 q-66 -213 -197 -213q-37 0 -79 23.5t-73.5 52.5t-67 52.5t-60.5 23.5q-35 0 -62 -28.5t-65 -113.5h-1h-1h-1h-1h-2h-1h-1h-2h-1h-1h-2h-1h-2h-1h-2h-1h-2h-2h-1h-2h-2h-2h-1h-2h-2h-2h-2h-2h-2h-2h-2h-9z" />
<glyph unicode="&#xe4;" horiz-adv-x="874" d="M33 233q0 161 154.5 237.5t484.5 76.5l12 59q27 125 -30.5 201t-186.5 76q-132 0 -281 -88l-18 73q153 90 305 90q156 0 242 -90.5t51 -261.5l-92 -461q-9 -48 6.5 -73.5t73.5 -24.5l-9 -63q-80 -3 -113.5 30t-33.5 101h-2q-54 -60 -133 -97.5t-162 -37.5q-116 0 -192 76 t-76 177zM117 242q0 -78 54 -133.5t148 -55.5q76 0 151 39t130 101l59 284q-542 3 -542 -235zM319 1227q0 29 19.5 50t50.5 21t51.5 -21t20.5 -50q0 -30 -20.5 -53t-51.5 -23t-50.5 22.5t-19.5 53.5zM688 1227q0 29 21 50t53 21q30 0 49.5 -21t19.5 -50q0 -30 -19.5 -53 t-49.5 -23q-31 0 -52.5 23t-21.5 53z" />
<glyph unicode="&#xe5;" horiz-adv-x="874" d="M33 233q0 161 154.5 237.5t484.5 76.5l12 59q27 125 -30.5 201t-186.5 76q-132 0 -281 -88l-18 73q153 90 305 90q156 0 242 -90.5t51 -261.5l-92 -461q-9 -48 6.5 -73.5t73.5 -24.5l-9 -63q-80 -3 -113.5 30t-33.5 101h-2q-54 -60 -133 -97.5t-162 -37.5q-116 0 -192 76 t-76 177zM117 242q0 -78 54 -133.5t148 -55.5q76 0 151 39t130 101l59 284q-542 3 -542 -235zM338 1237q0 84 63 142.5t166 58.5t166.5 -58.5t63.5 -142.5t-63.5 -141.5t-166.5 -57.5t-166 57.5t-63 141.5zM410 1239q0 -59 44 -100t113 -41q71 0 114.5 38.5t43.5 96.5 q0 59 -44 102t-114 43q-69 0 -113 -40.5t-44 -98.5z" />
<glyph unicode="&#xe6;" horiz-adv-x="1511" d="M33 223q0 330 639 312l14 71q26 127 -26 202t-179 75q-137 0 -286 -88l-19 73q153 90 311 90q114 0 188 -51t91 -151q67 94 161.5 148t205.5 54q138 0 227.5 -80.5t89.5 -201.5q0 -93 -43 -187l-655 -4q-4 -50 -4 -71q0 -157 87 -257t238 -100q114 0 234 58l6 -78 q-117 -57 -244 -57q-131 0 -229.5 65t-145.5 176q-84 -123 -187 -182t-204 -59q-116 0 -193 73t-77 170zM117 231q0 -76 54.5 -125t150.5 -49q80 0 173.5 56t178.5 172q-22 80 -12 180q-545 13 -545 -234zM766 559h573q21 55 21 113q0 89 -64 149t-170 60q-127 0 -224.5 -92 t-135.5 -230z" />
<glyph unicode="&#xe7;" horiz-adv-x="911" d="M86 403q0 105 36.5 204.5t101 177.5t160 125.5t204.5 47.5q176 0 307 -108l-35 -72q-124 103 -282 103q-107 0 -200 -65t-147.5 -173t-54.5 -229q0 -158 86 -257.5t236 -99.5q113 0 233 58l6 -78q-117 -57 -243 -57h-7l-137 -113q97 -3 159 -46.5t62 -119.5 q0 -94 -98 -158.5t-264 -60.5l2 63q136 -3 210.5 36.5t74.5 111.5q0 68 -74.5 94.5t-198.5 13.5v33q12 10 32 25.5t61.5 49t69 55.5t26.5 22q-147 26 -236.5 140.5t-89.5 276.5z" />
<glyph unicode="&#xe8;" horiz-adv-x="942" d="M90 403q0 108 36 209t97.5 177.5t150.5 122.5t189 46q139 0 228.5 -80.5t89.5 -201.5q0 -93 -43 -187l-656 -4q-4 -50 -4 -71q0 -157 87.5 -257t238.5 -100q113 0 233 58l6 -78q-117 -57 -243 -57q-182 0 -296 119.5t-114 303.5zM197 559h573q21 55 21 113q0 89 -64 149 t-170 60q-127 0 -224.5 -92t-135.5 -230zM315 1417h113l197 -362h-58z" />
<glyph unicode="&#xe9;" horiz-adv-x="942" d="M90 403q0 108 36 209t97.5 177.5t150.5 122.5t189 46q139 0 228.5 -80.5t89.5 -201.5q0 -93 -43 -187l-656 -4q-4 -50 -4 -71q0 -157 87.5 -257t238.5 -100q113 0 233 58l6 -78q-117 -57 -243 -57q-182 0 -296 119.5t-114 303.5zM197 559h573q21 55 21 113q0 89 -64 149 t-170 60q-127 0 -224.5 -92t-135.5 -230zM489 1055l340 362h125l-395 -362h-70z" />
<glyph unicode="&#xea;" horiz-adv-x="942" d="M90 403q0 108 36 209t97.5 177.5t150.5 122.5t189 46q139 0 228.5 -80.5t89.5 -201.5q0 -93 -43 -187l-656 -4q-4 -50 -4 -71q0 -157 87.5 -257t238.5 -100q113 0 233 58l6 -78q-117 -57 -243 -57q-182 0 -296 119.5t-114 303.5zM197 559h573q21 55 21 113q0 89 -64 149 t-170 60q-127 0 -224.5 -92t-135.5 -230zM289 1055l301 362h102l158 -362h-62l-153 295h-4l-269 -295h-73z" />
<glyph unicode="&#xeb;" horiz-adv-x="942" d="M90 403q0 108 36 209t97.5 177.5t150.5 122.5t189 46q139 0 228.5 -80.5t89.5 -201.5q0 -93 -43 -187l-656 -4q-4 -50 -4 -71q0 -157 87.5 -257t238.5 -100q113 0 233 58l6 -78q-117 -57 -243 -57q-182 0 -296 119.5t-114 303.5zM197 559h573q21 55 21 113q0 89 -64 149 t-170 60q-127 0 -224.5 -92t-135.5 -230zM369 1227q0 29 19 50t50 21t51.5 -21t20.5 -50q0 -30 -20.5 -53t-51.5 -23t-50 22.5t-19 53.5zM737 1227q0 29 21.5 50t52.5 21q30 0 50 -21t20 -50q0 -30 -20 -53t-50 -23q-31 0 -52.5 23t-21.5 53z" />
<glyph unicode="&#xec;" horiz-adv-x="397" d="M27 1417h112l197 -362h-57zM66 0l180 932l88 26l-184 -958h-84z" />
<glyph unicode="&#xed;" horiz-adv-x="397" d="M66 0l180 932l88 26l-184 -958h-84zM260 1055l340 362h125l-395 -362h-70z" />
<glyph unicode="&#xee;" horiz-adv-x="397" d="M33 1055l301 362h102l158 -362h-62l-153 295h-4l-269 -295h-73zM66 0l180 932l88 26l-184 -958h-84z" />
<glyph unicode="&#xef;" horiz-adv-x="397" d="M66 0l180 932l88 26l-184 -958h-84zM94 1227q0 29 19.5 50t50.5 21t51.5 -21t20.5 -50q0 -30 -20.5 -53t-51.5 -23t-50.5 22.5t-19.5 53.5zM463 1227q0 29 21.5 50t52.5 21q30 0 49.5 -21t19.5 -50q0 -30 -19.5 -53t-49.5 -23q-31 0 -52.5 23t-21.5 53z" />
<glyph unicode="&#xf0;" horiz-adv-x="1054" d="M80 387q0 133 62 247t174.5 182.5t250.5 68.5q167 0 310 -107h4q-46 179 -189 387q0 1 -65 -16.5t-130 -34.5l-65 -18l-18 73l229 62q-58 78 -158 178l95 16q70 -64 151 -170l221 60l19 -74l-193 -51q213 -315 213 -610q0 -108 -34.5 -212t-97 -188.5t-160 -136 t-212.5 -51.5q-178 0 -292.5 106t-114.5 289zM168 395q0 -151 89 -241.5t235 -90.5q98 0 178 44.5t130.5 117.5t77.5 163.5t27 186.5q0 60 -8 107q-65 59 -154.5 93t-175.5 34q-177 0 -288 -121t-111 -293z" />
<glyph unicode="&#xf1;" horiz-adv-x="1007" d="M61 0l181 932l90 26l-27 -139q172 139 334 139q122 0 193 -68.5t71 -184.5q0 -45 -16 -130l-113 -575h-84l113 582q14 71 14 108q0 90 -52.5 142.5t-152.5 52.5q-130 0 -323 -150l-144 -735h-84zM311 1075q66 213 197 213q37 0 79.5 -23.5t74.5 -52t67 -52t59 -23.5 q34 0 61.5 28.5t63.5 112.5h1h1h1h1h2h1h1h1h2h1h1h2h1h2h1h2h1h2h2h1h2h2h1h2h2h2h2h2h2h2h2h2h10q-66 -213 -197 -213q-37 0 -79 23.5t-73.5 52.5t-67 52.5t-60.5 23.5q-35 0 -62 -28.5t-65 -113.5h-1h-1h-1h-1h-2h-1h-1h-2h-1h-1h-2h-1h-2h-1h-2h-1h-2h-2h-1h-2h-2h-2h-1 h-2h-2h-2h-2h-2h-2h-2h-2h-9z" />
<glyph unicode="&#xf2;" horiz-adv-x="1089" d="M86 403q0 146 64.5 272.5t183.5 203.5t266 77q184 0 294 -118.5t110 -305.5q0 -146 -64.5 -271.5t-184 -202t-266.5 -76.5q-184 0 -293.5 117t-109.5 304zM172 408q0 -156 87 -254.5t237 -98.5q124 0 222 67t149 173.5t51 228.5q0 158 -86 258.5t-238 100.5 q-123 0 -221.5 -69t-149.5 -177t-51 -229zM348 1417h113l196 -362h-57z" />
<glyph unicode="&#xf3;" horiz-adv-x="1089" d="M86 403q0 146 64.5 272.5t183.5 203.5t266 77q184 0 294 -118.5t110 -305.5q0 -146 -64.5 -271.5t-184 -202t-266.5 -76.5q-184 0 -293.5 117t-109.5 304zM172 408q0 -156 87 -254.5t237 -98.5q124 0 222 67t149 173.5t51 228.5q0 158 -86 258.5t-238 100.5 q-123 0 -221.5 -69t-149.5 -177t-51 -229zM571 1055l340 362h125l-395 -362h-70z" />
<glyph unicode="&#xf4;" horiz-adv-x="1089" d="M86 403q0 146 64.5 272.5t183.5 203.5t266 77q184 0 294 -118.5t110 -305.5q0 -146 -64.5 -271.5t-184 -202t-266.5 -76.5q-184 0 -293.5 117t-109.5 304zM172 408q0 -156 87 -254.5t237 -98.5q124 0 222 67t149 173.5t51 228.5q0 158 -86 258.5t-238 100.5 q-123 0 -221.5 -69t-149.5 -177t-51 -229zM379 1055l301 362h102l158 -362h-61l-154 295h-4l-268 -295h-74z" />
<glyph unicode="&#xf5;" horiz-adv-x="1089" d="M86 403q0 146 64.5 272.5t183.5 203.5t266 77q184 0 294 -118.5t110 -305.5q0 -146 -64.5 -271.5t-184 -202t-266.5 -76.5q-184 0 -293.5 117t-109.5 304zM172 408q0 -156 87 -254.5t237 -98.5q124 0 222 67t149 173.5t51 228.5q0 158 -86 258.5t-238 100.5 q-123 0 -221.5 -69t-149.5 -177t-51 -229zM352 1075q66 213 197 213q37 0 79.5 -23.5t74.5 -52t67 -52t59 -23.5q34 0 61.5 28.5t63.5 112.5h1h1h1h1h2h1h1h1h2h1h1h2h1h2h1h2h1h2h2h1h2h2h1h2h2h2h2h2h2h2h2h2h10q-66 -213 -197 -213q-37 0 -79 23.5t-73.5 52.5t-67 52.5 t-60.5 23.5q-35 0 -62 -28.5t-65 -113.5h-1h-1h-1h-1h-2h-1h-1h-2h-1h-1h-2h-1h-2h-1h-2h-1h-2h-2h-1h-2h-2h-2h-1h-2h-2h-2h-2h-2h-2h-2h-2h-9z" />
<glyph unicode="&#xf6;" horiz-adv-x="1089" d="M86 403q0 146 64.5 272.5t183.5 203.5t266 77q184 0 294 -118.5t110 -305.5q0 -146 -64.5 -271.5t-184 -202t-266.5 -76.5q-184 0 -293.5 117t-109.5 304zM172 408q0 -156 87 -254.5t237 -98.5q124 0 222 67t149 173.5t51 228.5q0 158 -86 258.5t-238 100.5 q-123 0 -221.5 -69t-149.5 -177t-51 -229zM451 1227q0 29 19 50t50 21t51.5 -21t20.5 -50q0 -30 -20.5 -53t-51.5 -23t-50 22.5t-19 53.5zM819 1227q0 29 21.5 50t52.5 21q30 0 50 -21t20 -50q0 -30 -20 -53t-50 -23q-31 0 -52.5 23t-21.5 53z" />
<glyph unicode="&#xf7;" horiz-adv-x="999" d="M86 444l6 74h817l6 -74h-829zM430 219q0 30 20.5 52t51.5 22t52 -22t21 -52q0 -32 -21 -55t-52 -23t-51.5 23t-20.5 55zM430 739q0 30 20.5 52t51.5 22t52 -22t21 -52q0 -32 -20.5 -54.5t-52.5 -22.5q-31 0 -51.5 22.5t-20.5 54.5z" />
<glyph unicode="&#xf8;" horiz-adv-x="1089" d="M39 -137l170 221q-131 118 -131 315q0 146 66 273.5t186.5 205.5t267.5 78q135 0 236 -63l141 184h84q-172 -223 -172 -225q131 -118 131 -315q0 -146 -66 -273t-186.5 -204.5t-267.5 -77.5q-135 0 -236 63l-139 -182h-84zM164 403q0 -154 96 -253l524 679 q-87 54 -192 54q-123 0 -223 -70.5t-152.5 -179.5t-52.5 -230zM311 109q82 -54 193 -54q124 0 223.5 68t152 175.5t52.5 229.5q0 159 -96 258z" />
<glyph unicode="&#xf9;" horiz-adv-x="1007" d="M106 233q0 39 17 129l113 576h83l-112 -582q-14 -71 -14 -108q0 -90 52 -142.5t152 -52.5q137 0 324 146l143 739h84l-180 -932l-90 -26l27 139q-172 -139 -334 -139q-123 0 -194 68.5t-71 184.5zM330 1417h112l197 -362h-57z" />
<glyph unicode="&#xfa;" horiz-adv-x="1007" d="M106 233q0 39 17 129l113 576h83l-112 -582q-14 -71 -14 -108q0 -90 52 -142.5t152 -52.5q137 0 324 146l143 739h84l-180 -932l-90 -26l27 139q-172 -139 -334 -139q-123 0 -194 68.5t-71 184.5zM551 1055l340 362h125l-395 -362h-70z" />
<glyph unicode="&#xfb;" horiz-adv-x="1007" d="M106 233q0 39 17 129l113 576h83l-112 -582q-14 -71 -14 -108q0 -90 52 -142.5t152 -52.5q137 0 324 146l143 739h84l-180 -932l-90 -26l27 139q-172 -139 -334 -139q-123 0 -194 68.5t-71 184.5zM322 1055l301 362h102l158 -362h-62l-153 295h-4l-269 -295h-73z" />
<glyph unicode="&#xfc;" horiz-adv-x="1007" d="M106 233q0 39 17 129l113 576h83l-112 -582q-14 -71 -14 -108q0 -90 52 -142.5t152 -52.5q137 0 324 146l143 739h84l-180 -932l-90 -26l27 139q-172 -139 -334 -139q-123 0 -194 68.5t-71 184.5zM373 1227q0 29 19 50t50 21t51.5 -21t20.5 -50q0 -30 -20.5 -53 t-51.5 -23t-50 22.5t-19 53.5zM741 1227q0 29 21.5 50t52.5 21q30 0 50 -21t20 -50q0 -30 -20 -53t-50 -23q-31 0 -52.5 23t-21.5 53z" />
<glyph unicode="&#xfd;" horiz-adv-x="829" d="M-209 -422l45 68q57 -39 103 -39q100 0 225 211l117 202l-179 918h86l154 -823l475 823h94l-565 -956l-121 -205q-84 -143 -152.5 -195.5t-138.5 -52.5q-72 0 -143 49zM446 1055l340 362h125l-395 -362h-70z" />
<glyph unicode="&#xfe;" horiz-adv-x="1040" d="M-31 -477l361 1857l90 27l-111 -567q128 108 283 108q154 0 258 -111t104 -286q0 -244 -144 -407.5t-359 -163.5q-168 0 -287 122l-113 -579h-82zM178 168q46 -52 124 -85.5t155 -33.5q115 0 210.5 67.5t149 179t53.5 239.5q0 154 -79.5 249t-206.5 95q-79 0 -155 -33 t-136 -84z" />
<glyph unicode="&#xff;" horiz-adv-x="829" d="M-209 -422l45 68q57 -39 103 -39q100 0 225 211l117 202l-179 918h86l154 -823l475 823h94l-565 -956l-121 -205q-84 -143 -152.5 -195.5t-138.5 -52.5q-72 0 -143 49zM305 1227q0 29 19.5 50t50.5 21t51 -21t20 -50q0 -31 -20 -53.5t-51 -22.5t-50.5 22.5t-19.5 53.5z M674 1227q0 29 21 50t53 21q30 0 49.5 -21t19.5 -50q0 -30 -19.5 -53t-49.5 -23q-31 0 -52.5 23t-21.5 53z" />
<glyph unicode="&#x152;" horiz-adv-x="1837" d="M152 555q0 152 51 283.5t146.5 230t244 155t332.5 56.5h966l-14 -78h-647l-101 -522h541l-16 -78h-541l-102 -524h647l-14 -78h-889q-174 0 -310 64.5t-215 191.5t-79 299zM244 561q0 -227 141.5 -355t386.5 -128h154l217 1124h-225q-143 0 -264.5 -41t-213.5 -119 t-144 -201.5t-52 -279.5z" />
<glyph unicode="&#x153;" horiz-adv-x="1763" d="M86 403q0 146 64.5 272.5t183.5 203.5t266 77q142 0 241 -72.5t138 -197.5q62 124 168 198t237 74q139 0 228.5 -80.5t89.5 -201.5q0 -93 -43 -187l-655 -4q-5 -63 -5 -71q0 -157 87.5 -257t238.5 -100q114 0 234 58l6 -78q-117 -57 -244 -57q-141 0 -244 75t-143 201 q-65 -125 -181.5 -199.5t-263.5 -74.5q-184 0 -293.5 117t-109.5 304zM172 408q0 -156 87 -254.5t237 -98.5q124 0 222 67t149 173.5t51 228.5q0 158 -86 258.5t-238 100.5q-123 0 -221.5 -69t-149.5 -177t-51 -229zM1018 559h573q21 55 21 113q0 89 -64 149t-170 60 q-127 0 -224.5 -92t-135.5 -230z" />
<glyph unicode="&#x178;" horiz-adv-x="1038" d="M186 1280h88l269 -680l520 680h104l-594 -764l-100 -516h-86l100 520zM440 1569q0 29 19.5 50t50.5 21t51.5 -21t20.5 -50q0 -30 -20.5 -53t-51.5 -23t-50.5 22.5t-19.5 53.5zM809 1569q0 29 21.5 50t52.5 21q30 0 49.5 -21t19.5 -50q0 -30 -19.5 -53t-49.5 -23 q-31 0 -52.5 23t-21.5 53z" />
<glyph unicode="&#x2c6;" horiz-adv-x="819" d="M244 1055l301 362h102l158 -362h-62l-153 295h-4l-269 -295h-73z" />
<glyph unicode="&#x2dc;" horiz-adv-x="819" d="M217 1075q66 213 197 213q37 0 79.5 -23.5t74.5 -52t67 -52t59 -23.5q34 0 61.5 28.5t63.5 112.5h1h1h1h1h2h1h1h1h2h1h1h2h1h2h1h2h1h2h2h1h2h2h1h2h2h2h2h2h2h2h2h2h10q-66 -213 -197 -213q-30 0 -63 15.5t-61.5 38t-55.5 45t-53.5 38t-47.5 15.5q-35 0 -62 -28.5 t-65 -113.5h-1h-1h-1h-2h-1h-1h-1h-2h-1h-1h-2h-1h-2h-1h-2h-2h-1h-2h-2h-1h-2h-2h-2h-2h-2h-2h-2h-2h-2h-2h-9z" />
<glyph unicode="&#x2000;" horiz-adv-x="879" />
<glyph unicode="&#x2001;" horiz-adv-x="1759" />
<glyph unicode="&#x2002;" horiz-adv-x="879" />
<glyph unicode="&#x2003;" horiz-adv-x="1759" />
<glyph unicode="&#x2004;" horiz-adv-x="586" />
<glyph unicode="&#x2005;" horiz-adv-x="439" />
<glyph unicode="&#x2006;" horiz-adv-x="293" />
<glyph unicode="&#x2007;" horiz-adv-x="293" />
<glyph unicode="&#x2008;" horiz-adv-x="219" />
<glyph unicode="&#x2009;" horiz-adv-x="351" />
<glyph unicode="&#x200a;" horiz-adv-x="97" />
<glyph unicode="&#x2010;" horiz-adv-x="561" d="M74 459v78h420v-78h-420z" />
<glyph unicode="&#x2011;" horiz-adv-x="561" d="M74 459v78h420v-78h-420z" />
<glyph unicode="&#x2012;" horiz-adv-x="561" d="M74 459v78h420v-78h-420z" />
<glyph unicode="&#x2013;" horiz-adv-x="876" d="M66 459l6 78h735l6 -78h-747z" />
<glyph unicode="&#x2014;" horiz-adv-x="1839" d="M66 459l6 78h1697l7 -78h-1710z" />
<glyph unicode="&#x2018;" horiz-adv-x="313" d="M152 1004q0 89 78 172.5t190 134.5l31 -37q-197 -109 -197 -230q0 -54 92 -90q-6 -28 -33 -49.5t-59 -21.5q-42 0 -72 36.5t-30 84.5z" />
<glyph unicode="&#x2019;" horiz-adv-x="313" d="M113 938q196 109 196 229q0 54 -92 90q6 28 33 50t59 22q42 0 72.5 -36.5t30.5 -84.5q0 -89 -78.5 -172.5t-190.5 -134.5z" />
<glyph unicode="&#x201a;" horiz-adv-x="313" d="M-117 -252q197 109 197 229q0 55 -92 91q6 28 33 49.5t59 21.5q42 0 72 -36.5t30 -84.5q0 -89 -78 -172.5t-190 -134.5z" />
<glyph unicode="&#x201c;" horiz-adv-x="681" d="M152 1004q0 89 78 172.5t190 134.5l31 -37q-197 -109 -197 -230q0 -54 92 -90q-6 -28 -33 -49.5t-59 -21.5q-42 0 -72 36.5t-30 84.5zM520 1004q0 89 78 172.5t190 134.5l31 -37q-196 -109 -196 -230q0 -54 92 -90q-6 -28 -33 -49.5t-59 -21.5q-42 0 -72.5 36.5 t-30.5 84.5z" />
<glyph unicode="&#x201d;" horiz-adv-x="681" d="M113 938q196 109 196 229q0 54 -92 90q6 28 33 50t59 22q42 0 72.5 -36.5t30.5 -84.5q0 -89 -78.5 -172.5t-190.5 -134.5zM481 938q197 109 197 229q0 54 -92 90q6 28 33 50t59 22q42 0 72 -36.5t30 -84.5q0 -89 -78 -172.5t-190 -134.5z" />
<glyph unicode="&#x201e;" horiz-adv-x="681" d="M-115 -252q197 109 197 229q0 55 -92 91q6 28 33 49.5t59 21.5q42 0 72 -36.5t30 -84.5q0 -89 -78 -172.5t-190 -134.5zM254 -252q197 109 197 229q0 55 -93 91q6 27 33 49t60 22q42 0 72 -36.5t30 -84.5q0 -89 -78 -172.5t-190 -134.5z" />
<glyph unicode="&#x2022;" horiz-adv-x="931" d="M72 475q0 44 42.5 146t73.5 133t133.5 72.5t145.5 41.5q44 0 145.5 -42t132.5 -72q32 -30 73.5 -132t41.5 -147t-41.5 -146.5t-73.5 -133.5q-31 -31 -133.5 -73t-146.5 -42q-43 0 -145.5 42.5t-131.5 72.5q-30 31 -73 134t-43 146z" />
<glyph unicode="&#x2026;" horiz-adv-x="940" d="M8 57q0 30 20.5 52t51.5 22q32 0 53 -22t21 -52q0 -31 -21 -54t-53 -23q-31 0 -51.5 22.5t-20.5 54.5zM322 57q0 30 20 52t51 22q32 0 53 -22t21 -52q0 -31 -21 -54t-53 -23q-31 0 -51 22.5t-20 54.5zM635 57q0 30 20.5 52t51.5 22t52 -22t21 -52q0 -32 -20.5 -54.5 t-52.5 -22.5q-31 0 -51.5 22.5t-20.5 54.5z" />
<glyph unicode="&#x202f;" horiz-adv-x="351" />
<glyph unicode="&#x2039;" horiz-adv-x="641" d="M61 442l15 74l540 383l-14 -90l-465 -338v-2l350 -360l-34 -54z" />
<glyph unicode="&#x203a;" horiz-adv-x="641" d="M29 53l14 90l465 334v2l-350 365l35 53l391 -387l-15 -74z" />
<glyph unicode="&#x205f;" horiz-adv-x="439" />
<glyph unicode="&#x20ac;" horiz-adv-x="1036" d="M76 444l6 72h139q8 67 25 168q9 44 18 84h-121l-6 72h148q72 220 202.5 339t311.5 119q85 0 176 -27.5t147 -64.5l-32 -71q-58 39 -140 64.5t-155 25.5q-301 0 -424 -385h497l-6 -72h-512q-9 -40 -18 -84q-19 -95 -25 -168h432l6 -72h-442q-2 -196 88.5 -294.5 t280.5 -98.5q104 0 211 35l-2 -74q-98 -32 -215 -35q-225 0 -337 119t-110 348h-143z" />
<glyph unicode="&#x2122;" horiz-adv-x="1775" d="M199 1214v66h649v-66h-289v-700h-70v700h-290zM961 514l47 766h106l242 -696h6l264 696h103l45 -766h-68l-39 678h-6l-262 -678h-88l-238 678h-6l-37 -678h-69z" />
<glyph unicode="&#x25fc;" horiz-adv-x="942" d="M0 0v942h942v-942h-942z" />
</font>
</defs>
</svg>
