<?xml version="1.0" encoding="utf-8"?>
<!-- Generator: Adobe Illustrator 17.1.0, SVG Export Plug-In . SVG Version: 6.00 Build 0)  -->
<!DOCTYPE svg PUBLIC "-//W3C//DTD SVG 1.1//EN" "http://www.w3.org/Graphics/SVG/1.1/DTD/svg11.dtd">
<svg version="1.1" id="Layer_1" xmlns="http://www.w3.org/2000/svg" xmlns:xlink="http://www.w3.org/1999/xlink" x="0px" y="0px"
	 width="36px" height="35.512px" viewBox="5.573 6.094 36 35.512" enable-background="new 5.573 6.094 36 35.512"
	 xml:space="preserve">
<g>
	<title></title>
	<g id="Page-1">
		<g id="Amelia">
			<g>
				<path fill="#FFFFFF" d="M40.187,16.853c-0.899-2.208-2.208-4.083-3.826-5.623c-1.618-1.618-3.492-2.85-5.7-3.749
					s-4.571-1.387-7.087-1.387s-4.956,0.488-7.087,1.387c-2.208,0.899-4.083,2.106-5.7,3.749c-1.618,1.618-2.927,3.492-3.826,5.623
					c-0.899,2.208-1.387,4.468-1.387,7.01s0.488,4.879,1.387,7.01c0.899,2.208,2.208,4.083,3.826,5.623
					c1.618,1.618,3.492,2.85,5.7,3.749c2.208,0.899,4.545,1.361,7.087,1.361s4.956-0.488,7.087-1.387
					c2.208-0.899,4.083-2.106,5.7-3.749c1.618-1.618,2.927-3.492,3.826-5.623c0.899-2.208,1.387-4.468,1.387-7.01
					C41.573,21.321,41.085,19.035,40.187,16.853z M12.814,22.553c2.029-0.642,4.648-1.464,4.648-1.464
					c5.854-1.874,6.676-4.083,6.676-4.083s1.233,2.208,5.469,3.672c0,0,2.362,0.745,4.571,1.541
					c0.077,0.257,0.257,0.411,0.334,0.642c0.411,0.899,0.642,1.874,0.822,2.85h-3.004c0,0,0,0,0-0.077
					c-0.257-0.488-0.488-0.976-0.899-1.31c-0.411-0.411-0.822-0.642-1.387-0.899c-0.488-0.257-1.053-0.334-1.72-0.334
					c-0.565,0-1.13,0.077-1.72,0.334c-0.488,0.257-0.976,0.488-1.387,0.899c-0.411,0.411-0.642,0.822-0.899,1.31
					c-0.077,0.154-0.154,0.334-0.154,0.488h-1.13c-0.077-0.154-0.077-0.334-0.154-0.488c-0.257-0.488-0.488-0.976-0.899-1.31
					c-0.411-0.411-0.822-0.642-1.387-0.899c-0.488-0.257-1.053-0.334-1.72-0.334c-0.565,0-1.13,0.077-1.72,0.334
					c-0.488,0.257-0.976,0.488-1.387,0.899c-0.411,0.411-0.642,0.822-0.899,1.31c0,0,0,0,0,0.077h-3.03
					c0.154-0.976,0.411-1.951,0.822-2.85C12.737,22.784,12.737,22.707,12.814,22.553z M30.814,27.355
					c0,0.334-0.077,0.642-0.154,0.976c-0.154,0.334-0.334,0.565-0.565,0.822c-0.257,0.257-0.488,0.411-0.822,0.488
					c-0.334,0.154-0.642,0.154-0.976,0.154c-0.334,0-0.745-0.077-0.976-0.154c-0.334-0.154-0.565-0.334-0.822-0.488
					c-0.257-0.257-0.411-0.488-0.565-0.822c-0.154-0.334-0.154-0.642-0.154-0.976c0-0.334,0.077-0.642,0.154-0.976
					c0.154-0.334,0.334-0.565,0.565-0.822c0.257-0.257,0.488-0.411,0.822-0.488c0.334-0.154,0.642-0.154,0.976-0.154
					c0.334,0,0.745,0.077,0.976,0.154c0.334,0.154,0.565,0.334,0.822,0.488c0.257,0.257,0.411,0.488,0.565,0.822
					C30.737,26.713,30.814,27.021,30.814,27.355z M21.365,27.355c0,0.334-0.077,0.642-0.154,0.976
					c-0.154,0.334-0.334,0.565-0.565,0.822c-0.257,0.257-0.488,0.411-0.822,0.488c-0.334,0.154-0.642,0.154-0.976,0.154
					c-0.334,0-0.745-0.077-0.976-0.154c-0.334-0.154-0.565-0.334-0.822-0.488c-0.257-0.257-0.411-0.488-0.565-0.822
					c-0.154-0.334-0.154-0.642-0.154-0.976c0-0.334,0.077-0.642,0.154-0.976c0.154-0.334,0.334-0.565,0.565-0.822
					c0.257-0.257,0.488-0.411,0.822-0.488c0.334-0.154,0.642-0.154,0.976-0.154c0.334,0,0.745,0.077,0.976,0.154
					c0.334,0.154,0.565,0.334,0.822,0.488c0.257,0.257,0.411,0.488,0.565,0.822C21.365,26.713,21.365,27.021,21.365,27.355z
					 M31.97,35.829c-1.053,1.053-2.285,1.874-3.749,2.439s-3.004,0.899-4.648,0.899c-1.72,0-3.261-0.334-4.648-0.899
					c-1.464-0.565-2.696-1.387-3.749-2.439s-1.874-2.285-2.516-3.672c-0.565-1.387-0.899-2.85-0.899-4.468h2.85
					c0,0.488,0.154,0.976,0.334,1.387c0.257,0.488,0.488,0.976,0.899,1.31c0.411,0.411,0.822,0.642,1.387,0.899
					c0.488,0.257,1.053,0.334,1.72,0.334c0.565,0,1.13-0.077,1.72-0.334c0.488-0.257,0.976-0.488,1.387-0.899
					c0.411-0.411,0.642-0.822,0.899-1.31c0.154-0.334,0.257-0.745,0.334-1.053h0.745c0.077,0.411,0.154,0.745,0.334,1.053
					c0.257,0.488,0.488,0.976,0.899,1.31c0.411,0.411,0.822,0.642,1.387,0.899c0.488,0.257,1.053,0.334,1.72,0.334
					c0.565,0,1.13-0.077,1.72-0.334c0.488-0.257,0.976-0.488,1.387-0.899c0.411-0.411,0.642-0.822,0.899-1.31
					c0.154-0.411,0.334-0.899,0.334-1.387h2.773c0,1.618-0.334,3.107-0.899,4.468C33.819,33.543,33.023,34.776,31.97,35.829z"/>
			</g>
		</g>
	</g>
</g>
</svg>
