<?xml version="1.0" encoding="utf-8"?>
<!-- Generator: Adobe Illustrator 17.1.0, SVG Export Plug-In . SVG Version: 6.00 Build 0)  -->
<!DOCTYPE svg PUBLIC "-//W3C//DTD SVG 1.1//EN" "http://www.w3.org/Graphics/SVG/1.1/DTD/svg11.dtd">
<svg version="1.1" id="Layer_1" xmlns="http://www.w3.org/2000/svg" xmlns:xlink="http://www.w3.org/1999/xlink" x="0px" y="0px"
	 viewBox="10.8 239.7 140.2 138.3" enable-background="new 10.8 239.7 140.2 138.3" xml:space="preserve">
<g>
	<path fill="#FFFFFF" d="M145.6,281.6c-3.5-8.6-8.6-15.9-14.9-21.9c-6.3-6.3-13.6-11.1-22.2-14.6c-8.6-3.5-17.8-5.4-27.6-5.4
		s-19.3,1.9-27.6,5.4c-8.6,3.5-15.9,8.2-22.2,14.6c-6.3,6.3-11.4,13.6-14.9,21.9c-3.5,8.6-5.4,17.4-5.4,27.3s1.9,19,5.4,27.3
		c3.5,8.6,8.6,15.9,14.9,21.9c6.3,6.3,13.6,11.1,22.2,14.6S71,378,80.9,378s19.3-1.9,27.6-5.4c8.6-3.5,15.9-8.2,22.2-14.6
		c6.3-6.3,11.4-13.6,14.9-21.9c3.5-8.6,5.4-17.4,5.4-27.3C151,299,149.1,290.1,145.6,281.6z M39,303.8c7.9-2.5,18.1-5.7,18.1-5.7
		c22.8-7.3,26-15.9,26-15.9s4.8,8.6,21.3,14.3c0,0,9.2,2.9,17.8,6c0.3,1,1,1.6,1.3,2.5c1.6,3.5,2.5,7.3,3.2,11.1h-11.7
		c0,0,0,0,0-0.3c-1-1.9-1.9-3.8-3.5-5.1c-1.6-1.6-3.2-2.5-5.4-3.5c-1.9-1-4.1-1.3-6.7-1.3c-2.2,0-4.4,0.3-6.7,1.3
		c-1.9,1-3.8,1.9-5.4,3.5c-1.6,1.6-2.5,3.2-3.5,5.1c-0.3,0.6-0.6,1.3-0.6,1.9h-4.4c-0.3-0.6-0.3-1.3-0.6-1.9c-1-1.9-1.9-3.8-3.5-5.1
		c-1.6-1.6-3.2-2.5-5.4-3.5c-1.9-1-4.1-1.3-6.7-1.3c-2.2,0-4.4,0.3-6.7,1.3c-1.9,1-3.8,1.9-5.4,3.5c-1.6,1.6-2.5,3.2-3.5,5.1
		c0,0,0,0,0,0.3H35.2c0.6-3.8,1.6-7.6,3.2-11.1C38.7,304.7,38.7,304.4,39,303.8z M109.1,322.5c0,1.3-0.3,2.5-0.6,3.8
		c-0.6,1.3-1.3,2.2-2.2,3.2c-1,1-1.9,1.6-3.2,1.9c-1.3,0.6-2.5,0.6-3.8,0.6c-1.3,0-2.9-0.3-3.8-0.6c-1.3-0.6-2.2-1.3-3.2-1.9
		c-1-1-1.6-1.9-2.2-3.2c-0.6-1.3-0.6-2.5-0.6-3.8s0.3-2.5,0.6-3.8c0.6-1.3,1.3-2.2,2.2-3.2c1-1,1.9-1.6,3.2-1.9
		c1.3-0.6,2.5-0.6,3.8-0.6s2.9,0.3,3.8,0.6c1.3,0.6,2.2,1.3,3.2,1.9c1,1,1.6,1.9,2.2,3.2C108.8,320,109.1,321.2,109.1,322.5z
		 M72.3,322.5c0,1.3-0.3,2.5-0.6,3.8c-0.6,1.3-1.3,2.2-2.2,3.2c-1,1-1.9,1.6-3.2,1.9c-1.3,0.6-2.5,0.6-3.8,0.6
		c-1.3,0-2.9-0.3-3.8-0.6c-1.3-0.6-2.2-1.3-3.2-1.9c-1-1-1.6-1.9-2.2-3.2c-0.6-1.3-0.6-2.5-0.6-3.8s0.3-2.5,0.6-3.8
		c0.6-1.3,1.3-2.2,2.2-3.2c1-1,1.9-1.6,3.2-1.9c1.3-0.6,2.5-0.6,3.8-0.6c1.3,0,2.9,0.3,3.8,0.6c1.3,0.6,2.2,1.3,3.2,1.9
		c1,1,1.6,1.9,2.2,3.2C72.3,320,72.3,321.2,72.3,322.5z M113.6,355.5c-4.1,4.1-8.9,7.3-14.6,9.5c-5.7,2.2-11.7,3.5-18.1,3.5
		c-6.7,0-12.7-1.3-18.1-3.5c-5.7-2.2-10.5-5.4-14.6-9.5s-7.3-8.9-9.8-14.3c-2.2-5.4-3.5-11.1-3.5-17.4H46c0,1.9,0.6,3.8,1.3,5.4
		c1,1.9,1.9,3.8,3.5,5.1c1.6,1.6,3.2,2.5,5.4,3.5c1.9,1,4.1,1.3,6.7,1.3c2.2,0,4.4-0.3,6.7-1.3c1.9-1,3.8-1.9,5.4-3.5
		c1.6-1.6,2.5-3.2,3.5-5.1c0.6-1.3,1-2.9,1.3-4.1h2.9c0.3,1.6,0.6,2.9,1.3,4.1c1,1.9,1.9,3.8,3.5,5.1c1.6,1.6,3.2,2.5,5.4,3.5
		c1.9,1,4.1,1.3,6.7,1.3c2.2,0,4.4-0.3,6.7-1.3c1.9-1,3.8-1.9,5.4-3.5c1.6-1.6,2.5-3.2,3.5-5.1c0.6-1.6,1.3-3.5,1.3-5.4h10.8
		c0,6.3-1.3,12.1-3.5,17.4C120.8,346.6,117.7,351.4,113.6,355.5z"/>
</g>
</svg>
