<?xml version="1.0" encoding="utf-8"?>
<!-- Generator: Adobe Illustrator 17.1.0, SVG Export Plug-In . SVG Version: 6.00 Build 0)  -->
<!DOCTYPE svg PUBLIC "-//W3C//DTD SVG 1.1//EN" "http://www.w3.org/Graphics/SVG/1.1/DTD/svg11.dtd">
<svg version="1.1" id="Layer_1" xmlns="http://www.w3.org/2000/svg" xmlns:xlink="http://www.w3.org/1999/xlink" x="0px" y="0px"
	 viewBox="383.5 288.5 25 35" enable-background="new 383.5 288.5 25 35" xml:space="preserve">
<g>
	<g>
		<g>
			<path fill="#666666" d="M397.7,323.5h-2.8c-5.2,0-6.2-5.1-6.2-8.1v-7.7h5.5v1.5c0,1,0.7,1.8,1.7,1.8h0.9c1,0,1.8-0.8,1.8-1.8
				v-1.5h5.5v7.7C404,318.4,402.3,323.5,397.7,323.5z M398.9,305.5c0-1-0.8-1.8-1.8-1.8l0,0v-6.5c0,0-0.2-0.1,1.7,0
				c2.9,0.2,5.1,3,5.1,6.5c0,1.8,0,2.5,0,2.7h-5.1L398.9,305.5L398.9,305.5z"/>
		</g>
	</g>
	<path fill="#3F3F3F" d="M393.7,297.1c1.7,0,1.8,0,1.8,0v6.5c-1.2,0-1.8,0.8-1.8,1.8v0.8h-5.1c0-0.2,0-0.8,0-2.7
		C388.7,300.2,390.6,297.1,393.7,297.1z"/>
	<path fill="#3F3F3F" d="M397.8,308.8c0,0.6-0.6,1.1-1.1,1.1h-0.7c-0.6,0-1.1-0.6-1.1-1.1v-3.2c0-0.6,0.6-1.1,1.1-1.1h0.7
		c0.6,0,1.1,0.6,1.1,1.1V308.8z"/>
</g>
</svg>
