<?xml version="1.0" encoding="utf-8"?>
<!-- Generator: Adobe Illustrator 17.1.0, SVG Export Plug-In . SVG Version: 6.00 Build 0)  -->
<!DOCTYPE svg PUBLIC "-//W3C//DTD SVG 1.1//EN" "http://www.w3.org/Graphics/SVG/1.1/DTD/svg11.dtd">
<svg version="1.1" id="Layer_1" xmlns="http://www.w3.org/2000/svg" xmlns:xlink="http://www.w3.org/1999/xlink" x="0px" y="0px"
	 viewBox="0 0 792 612" enable-background="new 0 0 792 612" xml:space="preserve">
<path fill="#FFFFFF" d="M408,305c172,32.3,225.9,134.3,184,293l-369,2C192.1,437.2,244.8,332.6,408,305z"/>
<path fill="#CCCCCC" d="M441.2,596.3H233.1c-14-28-21-57.7-21-89.2c-1.7-62.9,33.2-106.7,40.2-113.7L441.2,596.3z"/>
<rect x="259.4" y="501.8" fill="#3F3F3F" width="42" height="22.7"/>
<rect x="401" y="348" fill="#3F3F3F" width="22.7" height="42"/>
<rect x="535.6" y="489.6" fill="#3F3F3F" width="42" height="22.7"/>
<rect x="497.4" y="398.8" transform="matrix(-0.7314 0.682 -0.682 -0.7314 1177.3065 356.6091)" fill="#3F3F3F" width="42" height="22.7"/>
<rect x="296.6" y="389.3" transform="matrix(0.6292 0.7772 -0.7772 0.6292 429.1464 -98.2462)" fill="#3F3F3F" width="42" height="22.7"/>
<g>
	<path fill="#3F3F3F" d="M408,519.3L269.9,395.2c-5.2,5.2-15.7,15.7-15.7,15.7l129.4,132.9c-5.2,14,0,29.7,10.5,42
		c15.7,15.7,43.7,15.7,59.5-1.7c15.7-15.7,15.7-43.7-1.7-59.5C441.2,515.8,423.7,512.3,408,519.3z"/>
	<path fill="#4F4F4F" d="M453.5,585.8c15.7-15.7,15.7-43.7-1.7-59.5c-12.2-10.5-29.7-14-45.5-8.7L268.1,393.4l-10.5,10.5
		L453.5,585.8z"/>
</g>
<g>
	<path fill="#888888" d="M600.3,612H220.9l-5.2-8.7c-15.7-31.5-22.7-64.7-22.7-96.2c0-118.9,97.9-216.8,216.8-216.8
		s216.8,97.9,216.8,216.8c0,36.7-7,68.2-22.7,97.9L600.3,612z M241.9,578.8h339.2c10.5-21,14-47.2,14-73.4
		c0-101.4-82.2-183.6-183.6-183.6s-183.6,82.2-183.6,183.6C226.2,529.8,231.4,556,241.9,578.8z"/>
</g>
</svg>
