<?xml version="1.0" encoding="utf-8"?>
<!-- Generator: Adobe Illustrator 17.1.0, SVG Export Plug-In . SVG Version: 6.00 Build 0)  -->
<!DOCTYPE svg PUBLIC "-//W3C//DTD SVG 1.1//EN" "http://www.w3.org/Graphics/SVG/1.1/DTD/svg11.dtd">
<svg version="1.1" id="Layer_1" xmlns="http://www.w3.org/2000/svg" xmlns:xlink="http://www.w3.org/1999/xlink" x="0px" y="0px"
	 width="50px" height="37.096px" viewBox="291.664 489.613 50 37.096" enable-background="new 291.664 489.613 50 37.096"
	 xml:space="preserve">
<path fill="#FFFFFF" d="M316.456,491.308c19.834,3.725,26.049,15.487,21.218,33.787l-42.551,0.231
	C291.56,506.553,297.637,494.491,316.456,491.308z"/>
<path fill="#CCCCCC" d="M320.284,524.899h-23.997c-1.614-3.229-2.422-6.654-2.422-10.286c-0.196-7.253,3.828-12.304,4.636-13.111
	L320.284,524.899z"/>
<rect x="299.32" y="514.002" fill="#3F3F3F" width="4.843" height="2.618"/>
<rect x="315.649" y="496.267" fill="#3F3F3F" width="2.618" height="4.843"/>
<rect x="331.17" y="512.595" fill="#3F3F3F" width="4.843" height="2.618"/>
<rect x="326.768" y="502.127" transform="matrix(0.7314 -0.682 0.682 0.7314 -254.9028 359.7354)" fill="#3F3F3F" width="4.843" height="2.618"/>
<rect x="303.61" y="501.033" transform="matrix(-0.6292 -0.7772 0.7772 -0.6292 108.1592 1056.2811)" fill="#3F3F3F" width="4.843" height="2.618"/>
<g>
	<path fill="#3F3F3F" d="M316.456,516.02l-15.925-14.31c-0.6,0.6-1.81,1.81-1.81,1.81l14.922,15.325c-0.6,1.614,0,3.425,1.211,4.843
		c1.81,1.81,5.039,1.81,6.861-0.196c1.81-1.81,1.81-5.039-0.196-6.861C320.284,515.616,318.266,515.213,316.456,516.02z"/>
	<path fill="#4F4F4F" d="M321.703,523.688c1.81-1.81,1.81-5.039-0.196-6.861c-1.407-1.211-3.425-1.614-5.247-1.003l-15.936-14.322
		l-1.211,1.211L321.703,523.688z"/>
</g>
<g>
	<path fill="#888888" d="M338.631,526.71h-43.75l-0.6-1.003c-1.81-3.632-2.618-7.461-2.618-11.093c0-13.711,11.289-25,25-25
		s25,11.289,25,25c0,4.232-0.807,7.864-2.618,11.289L338.631,526.71z M297.302,522.881h39.114c1.211-2.422,1.614-5.443,1.614-8.464
		c0-11.693-9.479-21.172-21.172-21.172c-11.693,0-21.172,9.479-21.172,21.172C295.492,517.231,296.092,520.252,297.302,522.881z"/>
</g>
</svg>
