<?xml version="1.0" encoding="utf-8"?>
<!-- Generator: Adobe Illustrator 17.1.0, SVG Export Plug-In . SVG Version: 6.00 Build 0)  -->
<!DOCTYPE svg PUBLIC "-//W3C//DTD SVG 1.1//EN" "http://www.w3.org/Graphics/SVG/1.1/DTD/svg11.dtd">
<svg version="1.1" id="Layer_1" xmlns="http://www.w3.org/2000/svg" xmlns:xlink="http://www.w3.org/1999/xlink" x="0px" y="0px"
	 viewBox="0 0 1164 1100" enable-background="new 0 0 1164 1100" xml:space="preserve">
<path fill-rule="evenodd" clip-rule="evenodd" fill="none" d="M154.7,90h16.5c1,0,1.7,0.8,1.7,1.7l0,0c0,1-0.8,1.7-1.7,1.7h-16.5
	c-1,0-1.7-0.8-1.7-1.7l0,0C153,90.8,153.8,90,154.7,90z"/>
<path fill-rule="evenodd" clip-rule="evenodd" fill="none" d="M154.7,97.8h16.5c1,0,1.7,0.8,1.7,1.7v0c0,1-0.8,1.7-1.7,1.7h-16.5
	c-1,0-1.7-0.8-1.7-1.7v0C153,98.6,153.8,97.8,154.7,97.8z"/>
<path fill-rule="evenodd" clip-rule="evenodd" fill="none" d="M154.7,106.5h16.5c1,0,1.7,0.8,1.7,1.7l0,0c0,1-0.8,1.7-1.7,1.7h-16.5
	c-1,0-1.7-0.8-1.7-1.7l0,0C153,107.3,153.8,106.5,154.7,106.5z"/>
</svg>